/* XPM */
static char *_3c8004cc4844b7ba4316f2da31cb4ab_0[] = {
/* columns rows colors chars-per-pixel */
"64 64 250 2 ",
"   c #03020C",
".  c #080409",
"X  c #030412",
"o  c #080918",
"O  c #140D15",
"+  c #2C1414",
"@  c #191927",
"#  c #101532",
"$  c #251827",
"%  c #2D1B32",
"&  c #1C2236",
"*  c #35272C",
"=  c #27283B",
"-  c #581E17",
";  c #491B2C",
":  c #4C2C37",
">  c #532B37",
",  c #653038",
"<  c #6C483B",
"1  c #0C1947",
"2  c #151C45",
"3  c #0B1C59",
"4  c #271D4A",
"5  c #15234E",
"6  c #2D324D",
"7  c #0A1D65",
"8  c #112671",
"9  c #2E3774",
"0  c #51334C",
"q  c #6C3643",
"w  c #43316F",
"e  c #3E4257",
"r  c #464451",
"t  c #70494A",
"y  c #54566F",
"u  c #6E5A68",
"i  c #676577",
"p  c #BB3013",
"a  c #90302D",
"s  c #B23538",
"d  c #CC3715",
"f  c #D13331",
"g  c #A65433",
"h  c #D34C1B",
"j  c #EA4719",
"k  c #DD631A",
"l  c #D0522C",
"z  c #EA5128",
"x  c #F06C30",
"c  c #983B50",
"v  c #B0394C",
"b  c #CB334E",
"n  c #AF4F50",
"m  c #9A604A",
"M  c #B06D53",
"N  c #905667",
"B  c #B0576E",
"V  c #926E72",
"C  c #B27A6A",
"Z  c #D1564A",
"A  c #CD724F",
"S  c #F17146",
"D  c #D3506C",
"F  c #E54F6D",
"G  c #DA7468",
"H  c #D88B0C",
"J  c #D48D13",
"K  c #DA9514",
"L  c #E5920D",
"P  c #E59916",
"I  c #FDB806",
"U  c #FDB40B",
"Y  c #FEBB0B",
"T  c #F4A911",
"R  c #FDB313",
"E  c #FEBA12",
"W  c #FBB71B",
"Q  c #C98D29",
"!  c #D59524",
"~  c #ED8D3B",
"^  c #EAAC2F",
"/  c #F9B927",
"(  c #F9BA36",
")  c #FDC40A",
"_  c #FDD30A",
"`  c #FCC413",
"'  c #FDCB14",
"]  c #FBC81A",
"[  c #FCD618",
"{  c #FCE21A",
"}  c #FCC927",
"|  c #FCD928",
" . c #EDCB32",
".. c #FBC639",
"X. c #FCD838",
"o. c #FCE828",
"O. c #FDF22B",
"+. c #FDEB36",
"@. c #FEF538",
"#. c #9F826B",
"$. c #AF8777",
"%. c #D58856",
"&. c #F28A4D",
"*. c #FD964B",
"=. c #FB8955",
"-. c #FC9857",
";. c #DBB158",
":. c #EEB74F",
">. c #CF8F73",
",. c #EB956C",
"<. c #F3976C",
"1. c #F9A469",
"2. c #F6A776",
"3. c #F0AF74",
"4. c #F9CD4D",
"5. c #FDEA44",
"6. c #FEF547",
"7. c #FFFB44",
"8. c #FEFC4B",
"9. c #FEF653",
"0. c #FEFD54",
"q. c #FEFF5C",
"w. c #DAC77D",
"e. c #F7D272",
"r. c #FFFF64",
"t. c #FCF469",
"y. c #FFFE6B",
"u. c #F4E573",
"i. c #FFFE73",
"p. c #FDF678",
"a. c #FEFE7B",
"s. c #12308A",
"d. c #193898",
"f. c #273989",
"g. c #233E98",
"h. c #153AA6",
"j. c #233CA4",
"k. c #374092",
"l. c #52538A",
"z. c #727593",
"x. c #817B8F",
"c. c #A67184",
"v. c #DB728C",
"b. c #7F86A1",
"n. c #34A4CF",
"m. c #2DA6DC",
"M. c #29A9DB",
"N. c #2BA9DE",
"B. c #32A5DB",
"V. c #34A7D9",
"C. c #2CA7E1",
"Z. c #27A9E2",
"A. c #2BA8E1",
"S. c #35ABE2",
"D. c #3FB0E1",
"F. c #41ACDD",
"G. c #59B7DD",
"H. c #64BADD",
"J. c #6ABBDD",
"K. c #7BBCD6",
"L. c #75BEDD",
"P. c #7ABEDB",
"I. c #49B7E8",
"U. c #55B6E3",
"Y. c #5AB7E3",
"T. c #56B9E4",
"R. c #59B9E3",
"E. c #53BBEA",
"W. c #57B8E9",
"Q. c #51BCF0",
"!. c #64BCE2",
"~. c #68BCE2",
"^. c #76BEE2",
"/. c #6EC1DF",
"(. c #75C0DE",
"). c #7AC1DC",
"_. c #6CC1E6",
"`. c #74C1E1",
"'. c #78C4E7",
"]. c #8B8997",
"[. c #B28C8B",
"{. c #B2A09D",
"}. c #9494A6",
"|. c #B0AAB0",
" X c #D59799",
".X c #E7928C",
"XX c #CFA791",
"oX c #F2B18D",
"OX c #D4B5B0",
"+X c #EBB5BA",
"@X c #DAC68A",
"#X c #F5D092",
"$X c #FEFD87",
"%X c #FAE696",
"&X c #FEFC96",
"*X c #D8C5BA",
"=X c #F4C9AF",
"-X c #FBD2A9",
";X c #F9CBB4",
":X c #FBD6B8",
">X c #FBF0AD",
",X c #FEFBB8",
"<X c #8EA5C9",
"1X c #AEAFD0",
"2X c #BCBAE2",
"3X c #82C3DD",
"4X c #9BC7DD",
"5X c #BFC3CC",
"6X c #89C9E6",
"7X c #92CEEA",
"8X c #93D1EB",
"9X c #9DD6ED",
"0X c #9ED9EE",
"qX c #99D5F2",
"wX c #9ED9F2",
"eX c #BDC4E0",
"rX c #A2D7EE",
"tX c #A1D8EE",
"yX c #A9D8ED",
"uX c #B6DDEE",
"iX c #B9DDEE",
"pX c #A2D6F0",
"aX c #A2D9F1",
"sX c #ADDCF2",
"dX c #B5DEF3",
"fX c #B9DDF2",
"gX c #B4E0F5",
"hX c #BDE1F2",
"jX c #D1CBCD",
"kX c #D7D7DA",
"lX c #F0D4CE",
"zX c #FEFBC9",
"xX c #FAE7D2",
"cX c #FCFBD9",
"vX c #D1D4EA",
"bX c #F3DCE9",
"nX c #D1E6ED",
"mX c #CCE7F2",
"MX c #C7E8F6",
"NX c #CBE9F4",
"BX c #D3ECF5",
"VX c #D8EEF8",
"CX c #DCF1F5",
"ZX c #DEF1FA",
"AX c #F9FAE8",
"SX c #EBEBF0",
"DX c #E5F4F7",
"FX c #E0F1FA",
"GX c #FAF8F7",
"HX c #FEFEFE",
/* pixels */
"N.N.N.A.A.A.N.A.C.A.A.N.A.N.C.N.A.N.A.N.A.N.N.M.N.N.C.A.C.C.B.B.M.n.T.E.kXY.|.W.n.B.m.N.B.N.N.A.A.M.A.N.A.A.A.A.N.A.N.N.A.A.N.N.",
"A.N.C.A.A.N.A.N.N.A.N.A.A.A.A.A.A.N.A.A.C.A.N.N.A.A.A.A.B.I.E.E.E.U.T.T.R.Y.SX}.e 7XE.E.I.Q.m.C.Z.Z.A.N.N.C.C.N.A.A.A.A.A.A.A.N.",
"A.C.N.A.C.N.A.A.A.A.A.A.A.A.A.C.A.A.A.N.A.A.A.A.A.A.A.C.I.E.T.Y.5Xr 6 = 4 = 6 |.& & r R.jXE.I.S.C.A.N.N.C.C.N.A.N.C.N.A.N.A.N.A.",
"A.N.A.N.N.A.N.A.A.N.A.C.A.A.N.A.A.A.A.A.A.A.C.N.C.N.m.S.E.R.vX~.nXy @ o X X X o @ o X r nX'.I.B.S.C.N.A.N.C.A.N.A.N.A.N.N.A.A.A.",
"A.C.A.A.A.C.A.A.A.C.A.A.C.N.C.C.A.A.A.A.A.A.A.N.B.n.V.E.T.R.!.R.z.6 = o X       .   .   y 6 E.V.n.B.N.C.A.A.A.A.A.N.C.A.A.A.A.A.",
"N.N.N.A.A.N.N.N.N.N.N.N.N.N.N.N.N.A.A.N.A.N.B.I.E.E.T.U.U.R.z.6 o o o X X X       X   X   O V !.T.Q.I.B.A.N.A.N.A.A.A.C.A.A.A.C.",
"B.M.M.A.A.S.I.I.I.I.I.v [.B.C.A.B.A.Z.C.B.I.U.U.U.T.R.T.R.y O o X o X         X X           O jXT.T.E.I.N.A.A.A.C.A.A.C.C.Z.Z.A.",
"D.m.N.N.S.F.U.W.R.W.c.b +Xc.C.C.C.A.C.N.D.W.T.T.W.U.T.T.].6 & # # X     X   . 0 . t + . .     ^.T.R.T.I.B.N.A.C.N.B.D.S.N.N.Z.A.",
"I.V.N.B.I.T.R.T.R.R.[.b >.SXN A.A.C.C.B.E.Y.Y.T.T.W.T.T.T.T.jX1X& = X   . o >.- XX;X:XXX. @ O = R.U.T.U.V.B.C.N.B.V.E.E.V.B.N.A.",
"I.E.E.E.E.U.Y.T.U.T.U.bXv b bXB A.I.I.n.W.Y.R.R.R.T.T.T.!.R.r 6 o   .   X - >.$.+ V 2., * lX$ @ G.U.T.T.T.E.Q.Q.E.W.R.U.T.E.D.N.",
"T.G.Y.T.W.R.R.T.T.T.T.T.Y.v s GXB T.U.T.T.W.W.T.R.T.T.T.T.6 4 X           C -.3.C {.: : :X-XGX*XH.R.T.R.T.R.T.T.G.T.T.G.U.T.E.I.",
"H.R.Y.R.T.T.R.W.R.W.R.R.Y.R.B f bXv.^.T.T.T.R.R.T.T.R.T.6 &           + O + -.:XHXHX, :X:X:XHXjXJ.R.T.T.U.G.R.T.T.R.T.T.G.R.W.I.",
"H.R.R.R.T.T.T.W.T.T.U.R.U.T.T. Xf +X XSXR.R.R.R.R.T.R.}.6 =   o     . < + , -.-XHXHXHX:X-X=X0 ].(.H.G.R.T.).T.T.T.T.T.T.R.R.R.T.",
"_._.G.R.T.T.T.T.T.T.T.T.T.T.R.R.kXf F +XvXT.R.T.R.T.T.T.T.T.z.@   X t ,..X&.-.oXHXHX* :X:XAXlX3X(.(.~.jXOX;XHX6XT.T.T.T.R.T.T.T.",
"`././.G.T.T.T.R.T.U.T.T.T.T.R.R.R.R.s b +X+XT.R.R.Y.R.T.T.T.T.kXi   XX<.*.-.-.#X$.xXAX:X$.HXxX(.L.).L.oXM ;XAXjXG.U.R.R.T.T.T.U.",
"`.(.'.J.H.!.!.G.R.T.U.T.R.T.T.T.T.T.T.c f bXv.R.!.!.!.G.R.R.R.u O . < ,.g *.1.;Xt XXxX:XxXHX{.`.(.P.{.A m 1.@XXXY.G.R.R.R.R.R.R.",
"(.(.`.L.^.`.`._.!.R.R.T.T.T.R.T.T.T.T.T.C f lXB ^.^._.G.G.G.Y.|.jXX O >.oX-.e.;Xq t GXOX+X#.OX(.`.{.G %.A ;XxXAXY.Y.R.G.H.H._.~.",
"(.L.`.`.`.).(.`.`.H.R.R.T.T.R.T.R.U.Y.Y.R.+Xb  Xc.^.`.`.J.~.`.`.t ; O . O &.3.lXB c q : jXHX(.`.`.v.D A g 1.,.;XjXG.H.J.(.(.(.(.",
"(.L.(.(.(.(.(.L.`._.G.G.Y.T.G.U.T.R.!.G.~._.4Xb  XB XX[.L.`.L.(.0 % & % 6 >.<.:X+Xv.B $ lXHXkXjX+Xv.D a 2.2.#XXX/.J.`.(.(.(.(.).",
"P.P.P.L.(.(.(.(.(.`.!.H.J.!.!.Y.R.!.`.J./.L.(.(.c s =Xm lX`.`.OXN 1 $ # > 1.1.-X:X:X$.:XxX*XHXHX2.F F F Z M > `.`.`.(.(.(.(.`.L.",
"K.3XP.P.L.(.`.(.`.J.~.J.(.L.`.H._.`.(.`.(.(.(.`.`.>.xX-X#.).%.,.; & $ 2 [.M #XM =X=XlX;X$.xXcX=X-.=.D F b B (.(.`.`.`.(.(.(.`.`.",
"aXwXwX3X).(.(.^.`.`.`.`.(.(.L.).L.).).L.L.`.(.(.L..X>.-X;XM =.,.4 9 $ 5 V :XoX.XlX6 5 f.;X%X#X1.l =.,.c V (.(.(.(.(.(.L.).P.8X8X",
"rXpXtXwX6X`.L.L.`.`.`.L.`.).P.9X9XqXqXqX^.`.`.(.L.>.#X-X=X- %.> 8 g.2 $ , ;X-XlXy 7 7 f.2.1.-.-.*.1.-XkX(.(.(.(.(.(.(.).qXqXwXaX",
"rXtXtXwX9X8X7XL.L.L.(.(.J.).7X0XrXpXaXwX8XK.L.(.(.=X,.2.;Xa D = 8 g.8 0 : -X:Xz.8 f.j.g.,.-.-.-.1.XXwX8X8X7X8X).(.(.`.P.9XwXaXrX",
"rXtXtXrXtX9X9XP.).(.).(.L.3XaX0X0XrXrXrX9X3X).).L.L.n n B s a O 5 d.s.# 9 9 f.s.d.s.h.f.c.V xXxXaXrXtXtXpXrXwX3X).(.`.P.0XrXtXtX",
"pXrXtXtXtXtXrXwXwX).(.(.'.wX9XrX* : 0 > > V wX6X).P.4Xc n &.>.# 1 7 h.8 # g.h.s.8 d.h.g.j.rXrXrXtXrXtXtXpXtXwXaX7XP.P.3XrXaXaXtX",
"tXrXtXtXtXpXtXrXaXK.L.(.).r N N > > ; : 0 q N u 0Xi 2 2 @ + $ & 7 # 7 5 * # 1 3 d.d.d.8 6 aX0XtXtXpXtXtXtXtXpXpXwX9XwX9X0XrX0XrX",
"tXtXtXtXtXtXtXrXrX6X7X6X* V > + @ 6 vXrXuX& O % % x.<Xk.2 3 1 7 z.5 3 6 1 # o 3 3 2 8 9 V pXtXtXtXtXtX9XtXtXpXaXpXaXaX0X0XwXrXtX",
"tXtXtXtXtXtXrXtXpXaX9X$ $ % kXrXtXrXrXtXtXkX1X2X2X<XbXHXSXvXz.z.z.SXb.vX2 2 4 # * C ,.1.G %.bXrXaXaXaXpXrXtXwXrXtXtXrXrX0XrXtXtX",
"tXtXtXrXtXrXtXtXpXtXrX}.dXaXtXpXpXpXpXpXrXpXtXvXi }.HXHXDX5Xy 6 1 1 4 z.l.}.b.].2.-.1.-.x *.1.CXdXdXdXrXrXtXaXrXrXtXrXrX0XrXrXrX",
"rXtXtXrXtXaXtXtXtXtXtXrXtXtXtXtXrXtXtXtXrXtXpXtXnXn GXi 9 s.8 1 # 6 eX1X1 1 2  Xl =.-.-.*.*.j C dXfXdXsXsXrXrX0XtXaXsXsXsXtXrXyX",
"rXtXtXtXtXrXrXtXtXwXtXtXrXrXrXrXrXrXaXrXtXtXtXcX<.=.h z w h.d.1 1XvX2X7 7 1 , Z =.=.h *.*.*.h 2.dXdXdXdXdXsXrXrXsXsXgXgXgXsXsXdX",
"rX9XtXaXtXtXtXtXtXaX9X9XrXtXrXtXrXrXtXrXtXtXSX<.x j d f ; 9 y vXz.1X3 s.8 % ,.d h *.d *.~ *.l -.dXdXdXdXdXdXsXsXdXdXdXdXdXfXdXdX",
"rXpXrXtXrXtXtXtXtXtXpXtXyXyXtXrXrXrXrXrXrXrX2.-.*.=.&.f OXGX2X|.vX4 d.d.0 Z z f =.x d &.*.&.h ~ mXdXdXdXdXdXdXsXdXdXdXdXdXdXdXdX",
"dXsXaX9XtXtXrX9XtXtXaXaXyXsXdXdXdXdXgXgXdXdXS *.*.x z x &.*XHXHX@ m ; a l p f f z j S j x j x =.dXdXdXdXdXfXuXdXdXdXfXdXdXdXuXuX",
"dXsX9XrXrXrXrXdXdXdXdXdXdXdXdXdXdXdXdXdXdXXXd x x S 4.y.y.i.&X,.Z l g OXG Z z Z j j z k ~ *.k k XXdXdXdXdXfXdXdXdXdXdXdXdXdXdXdX",
"dXgXyXrXrXaXsXdXdXdXdXdXdXdXdXdXdXdXdXdXdX3.l h S ^ } y.y.y.y.y.:.%.e.%XzXHXHXA h e.a.a.a.a.&X~ [.dXdXdXdXdXdXdXdXdXdXdXdXdXdXdX",
"dXdXdXyXsXdXdXdXdXdXdXdXdXdXdXdXdXdXdXdXdX%X$Xi.p.] @.y.r.r.y.r.i.| X.y.i.a.AXHXi.+.y.i.i.i.y.$XBXdXdXdXdXdXdXdXdXdXdXdXdXdXdXdX",
"dXdXdXfXfXdXdXdXdXdXdXdXdXdXdXdXdXdXdXdX>X$Xi.r.y.' @.y.r.r.r.r.y.| 0.i.y.i.a.&X_ 7.i.r.y.r.r.y.$X,X,XcXdXdXdXdXdXdXdXdXdXdXdXdX",
"dXdXfXfXdXdXdXdXdXdXdXdXdXdXdXdXcXu.$X$Xu.i.y.y.y.| o.q.r.r.r.r.X.{ r.y.y.y.y.y.0.O.@.O.@.q.r.y.y.$Xa.$X,XdXdXdXdXdXdXdXdXdXdXdX",
"dXdXuXuXdXdXdXdXdXdXdXdXdXdXdXzX} 7.i.5.t.y.y.r.y.q.{ 0.y.r.r.y.) 7.r.r.r.r.r.y.i.[ { 8.9.7.y.y.y.a.r.p.a.zXdXdXdXdXdXdXdXdXdXdX",
"dXiXiXiXuXfXdXdXdXdXdXdXdXdXdX4.' r.a.} y.q.y.y.r.r.0.r.r.r.9.5.` 7.y.y.y.r.y.r.y.r.y.q.r.y.q.r.r.y.+.i.a.$XdXfXuXdXuXdXdXdXdXdX",
"gXMXmXMXMXiXdXdXdXdXdXdXuXdXzX..' y.y.[ 8.o.q.y.r.r.q.O.0.| ' 0._ 7.y.i.y.r.i.y.y.q.r.r.r.r.r.y.y.i.{ i.i.i.cXdXiXdXdXdXdXdXdXuX",
"MXMXNXMXMXMXuXdXdXdXdXdXiXiX-X/ ` r.r.} ] 9.y.r.r.q.0.[ X.I 7.r.6.O.t.r.y.r.y.y.0.0.i.r.r.r.y.y.i.o.O.i.i.a.,XdXdXuXfXiXiXiXuXhX",
"NXNXNXNXBXMXhXfXhXhXhXhXhXhX>X/ ) q.r.] X.0.y.r.q.[ ) Y ] ' t.r.y.q.r.r.y.y.r.0.| 5.y.r.r.r.r.y.r.[ r.y.i.a.,XdXfXiXdXhXhXhXiXMX",
"NXNXNXNXMXMXMXiXNXMXMXMXmXNXCX^ E +.r.6.4.] q.9.0.q.X.) T ' y.r.0.8.8.q.q.O.| 4.4.8.q.@.O.8.y.y.q.r.y.i.i.i.,XfXiXfXfXMXNXNXBXNX",
"mXmXmXmXNXMXMXNXNXNXNXNXmXNXNX4./ ' o.0.} ( } @.q.r.y.X./ R 0.@._ ) [ 8.r.+.5.W U | | 6.i.a.i.i.y.i.y.i.i.i.zXdXiXfXfXMXNXNXmXmX",
"mXNXmXNXNXNXNXNXNXNXNXNXNXNXu.| y.q.X.` P } ) q.r.r.r.p.^ K T ) ) 0.a.a.r.q.q.+.I ' q.y.y.r.r.y.y.i.r.i.y.$XMXdXuXfXMXNXmXNXNXNX",
"BXBXBXmXNXNXNXNXNXNXNXNXNX,X} q.y.y.q.X.T W ) 7.8.r.r.i.} U E +.y.y.i.y.y.o.0.0.) | q.r.r.r.r.r.i.r.o._ q.,XuXdXfXhXMXNXNXmXmXNX",
"ZXZXFXBXmXNXNXNXNXNXNXNXNX4.| 0.8.8.0.8.W } ] ) o.8.q.y.| ' +.r.r.r.y.y.i.r.{ +.` | r.r.r.r.r.r.r.i.] [ p.cXdXuXiXhXNXNXNXmXmXmX",
"ZXFXFXFXBXNXmXmXmXNXNXNXNXu.E E I ) Y Y 4.R I +.r.r.q.r.0.` 8.y.r.r.q.q.r.y.+.o.` [ r.r.r.y.r.r.r.r.r.6.@.,XMXhXMXMXNXNXNXNXmXmX",
"FXFXAXDXZXZXVXZXZXNXmXmXNX,XW Y Y U Y W W Y I 0.q.r.r.r.0.| 7.r.r.r.7.5.r.y.9.@.` ' q.r.y.r.r.r.r.r.q.{ r.&XiXhXMXNXNXNXNXNXMXNX",
"FXFX&XAXZXFXFXCXCXBXBXBXNXzX/ U W E R ..E Y Y q.q.8.O.+.0.X.7.r.r.r.| } 0.y.a.8.) } +.8.7.o.q.r.r.r.y.@.r.,XMXMXMXNXNXNXNXNXNXBX",
"FXDX$X$XcXAXAXAXcXzXzX>X&XX./ ( ( ..W 4.Y R I q.@.I I U ) ..O.q.r.r.7.' | 0.y.r.' ` ] ) Y | q.r.r.r.y.| a.AXNXNXNXNXNXNXmXmXCXZX",
"ZXZX7.r.y.i.i.y.i.y.y.y.q.o.U P K P R ^ R R U | ) U U U U 4.' q.r.r.i.0.+.] 8.y.+.` ` X.X.+.q.r.r.y.i.| $XNXNXNXNXNXNXNXmXCXCXCX",
"ZXFX%X+.q.q.r.r.r.7.O.{ ' ` ] E R R / ! / R R U U L U U U ..E 0.r.r.r.5...T | r.r.6._ ) ] 8.r.r.r.y.y.5.SXMXNXNXNXNXNXmXCXZXZXFX",
"ZXFXFXzX .| +.7.0.0.q.0.8.8.6.+.] R W J 4.W R K J P L U U P W ) 7.q.q.] J R ' r.r.r.r.q.r.r.r.r.y.a.u.cXNXNXNXNXNXNXNXmXCXZXZXFX",
"ZXZXZXFXFXcX#X4.] / ] ] ] E ] E R T ! J ! 4.^ J ^ R U U U H ( R R | +./ J R Y q.r.r.r.r.r.r.r.r.r.$XNXNXNXNXNXNXNXNXNXBXZXZXFXFX",
"FXFXZXFXFXZXZXFXFXDXcX,X>X#X@X#X:X>XcXcXAXNXDXw./ R U U U H ! W L T U ( J R Y 7.r.r.r.y.r.r.r.r.0.cXNXNXNXNXNXNXNXNXNXCXZXZXFXFX",
"FXFXZXZXFXFXFXZXZXFXFXZXFXFXFXFXZXZXVXmXNXNXNXNX:.E U U U T J ! ^ H J ! Q L U Y 0.q.q.q.q.r.y.@.4.NXNXNXmXmXZXZXZXZXZXFXZXFXZXFX",
"ZXZXZXFXZXZXFXFXFXZXZXZXZXFXZXZXZXZXCXBXmXNXNXNX>XW U U U R P J J e.:.w.;.J T I ' 8.q.r.q.0.[ ..NXNXNXBXBXBXZXZXZXZXZXZXZXZXFXFX",
"ZXFXZXFXFXZXFXFXFXZXFXFXZXZXFXFXZXFXZXZXmXNXNXNXNX#X( W T P L ! ;...( / ^ Q H T U Y ` [ _ W 4.BXNXNXmXBXZXZXZXZXZXZXZXZXFXZXZXZX",
"ZXZXZXFXFXZXZXFXZXFXFXZXZXZXZXFXFXFXZXZXBXmXNXNXNXNXzXe.4.4.e.cX%X4.( K ;.@X@XQ K T U Y :.zXNXNXNXmXBXFXZXFXZXZXFXZXZXFXFXZXFXZX",
"ZXZXFXZXFXFXZXFXZXFXFXZXZXFXFXZXZXFXFXZXBXNXNXNXNXNXNXNXNXNXNXNXNXCXzXzXNXNXNXNXAXxXAXNXNXNXNXNXNXBXCXFXFXFXZXZXFXFXFXZXFXFXZXZX"
};
