/* XPM */
static char * goku_xpm[] = {
"64 64 467 2",
"  	c #DDF0FB",
". 	c #DFF1FB",
"+ 	c #D7D7DA",
"@ 	c #BEC1C8",
"# 	c #DEF1FB",
"$ 	c #DCEFFA",
"% 	c #DDF0FA",
"& 	c #DCF0FA",
"* 	c #DBEFFA",
"= 	c #EBEBF0",
"- 	c #3E4257",
"; 	c #BFC3CC",
"> 	c #464451",
", 	c #2D324D",
"' 	c #27283B",
") 	c #271D4A",
"! 	c #1C2236",
"~ 	c #D1CBCD",
"{ 	c #D1D4EA",
"] 	c #D1E6ED",
"^ 	c #54566F",
"/ 	c #191927",
"( 	c #080918",
"_ 	c #030412",
": 	c #CBDBE7",
"< 	c #03020C",
"[ 	c #080409",
"} 	c #D4ECF9",
"| 	c #140D15",
"1 	c #926E72",
"2 	c #CCE8F7",
"3 	c #B0394C",
"4 	c #BDAAAD",
"5 	c #DEF0FB",
"6 	c #D5ECF9",
"7 	c #BDADBA",
"8 	c #CB334E",
"9 	c #EBB5BA",
"0 	c #D9EEFA",
"a 	c #D3E5EF",
"b 	c #101532",
"c 	c #51334C",
"d 	c #70494A",
"e 	c #2C1414",
"f 	c #DAEEFA",
"g 	c #CF8F73",
"h 	c #905667",
"i 	c #AEAFD0",
"j 	c #581E17",
"k 	c #CFA791",
"l 	c #F9CBB4",
"m 	c #FBD6B8",
"n 	c #D6EDF8",
"o 	c #F3DCE9",
"p 	c #B0576E",
"q 	c #AF8777",
"r 	c #F6A776",
"s 	c #653038",
"t 	c #35272C",
"u 	c #F0D4CE",
"v 	c #251827",
"w 	c #CCE9F4",
"x 	c #D0EBF6",
"y 	c #D8EEF9",
"z 	c #DBF0FA",
"A 	c #CEE9F6",
"B 	c #B23538",
"C 	c #FAF8F7",
"D 	c #D9EEF9",
"E 	c #DAEFF9",
"F 	c #B27A6A",
"G 	c #FC9857",
"H 	c #F0AF74",
"I 	c #B2A09D",
"J 	c #4C2C37",
"K 	c #FBD2A9",
"L 	c #D8C5BA",
"M 	c #CBE9F4",
"N 	c #CFEAF5",
"O 	c #D2ECF6",
"P 	c #D1EBF6",
"Q 	c #CFEBF6",
"R 	c #D7EEF8",
"S 	c #D3ECF7",
"T 	c #CCE9F5",
"U 	c #DBEFF9",
"V 	c #D5EDF7",
"W 	c #D4EDF7",
"X 	c #D13331",
"Y 	c #DB728C",
"Z 	c #CEEAF5",
"` 	c #FEFEFE",
" .	c #CBE9F5",
"..	c #CEEAF6",
"+.	c #CDEAF5",
"@.	c #CFEBF5",
"#.	c #D2ECF7",
"$.	c #D9EFF9",
"%.	c #D4ECF7",
"&.	c #CCEAF4",
"*.	c #D59799",
"=.	c #6C483B",
"-.	c #F4C9AF",
";.	c #C4DFEA",
">.	c #CAE9F4",
",.	c #E54F6D",
"'.	c #BAD4E1",
").	c #EB956C",
"!.	c #E7928C",
"~.	c #F28A4D",
"{.	c #F2B18D",
"].	c #F9FAE8",
"^.	c #D4B5B0",
"/.	c #CAE8F4",
"(.	c #C4E6F3",
"_.	c #676577",
":.	c #F3976C",
"<.	c #FD964B",
"[.	c #F5D092",
"}.	c #FAE7D2",
"|.	c #B06D53",
"1.	c #C5E6F4",
"2.	c #983B50",
"3.	c #C6E6F4",
"4.	c #C4E5F3",
"5.	c #6E5A68",
"6.	c #A65433",
"7.	c #F9A469",
"8.	c #B8B4B5",
"9.	c #CD724F",
"0.	c #9A604A",
"a.	c #DAC68A",
"b.	c #C8E8F4",
"c.	c #C1E4F4",
"d.	c #BEE3F3",
"e.	c #BCE2F3",
"f.	c #C6E7F4",
"g.	c #B8BEC6",
"h.	c #F7D272",
"i.	c #6C3643",
"j.	c #9F826B",
"k.	c #DA7468",
"l.	c #D58856",
"m.	c #E0DDDC",
"n.	c #E2E8E5",
"o.	c #E0F0EF",
"p.	c #C7E7F4",
"q.	c #B7DFF3",
"r.	c #BFE3F3",
"s.	c #C9E8F4",
"t.	c #C8E7F4",
"u.	c #C4E6F4",
"v.	c #C9E6F2",
"w.	c #B3A8B6",
"x.	c #B8DFF3",
"y.	c #C2E5F3",
"z.	c #491B2C",
"A.	c #D3506C",
"B.	c #C8E7F3",
"C.	c #BFE2F3",
"D.	c #C3E5F4",
"E.	c #BCE1F2",
"F.	c #B4DDF2",
"G.	c #B6DEF3",
"H.	c #BDE2F3",
"I.	c #BCE1F3",
"J.	c #B3A3AA",
"K.	c #B5DEF3",
"L.	c #2D1B32",
"M.	c #90302D",
"N.	c #B8E0F3",
"O.	c #A6D6EF",
"P.	c #A9D7ED",
"Q.	c #C2E4F3",
"R.	c #C7E6F4",
"S.	c #BAE1F3",
"T.	c #BAE0F3",
"U.	c #0C1947",
"V.	c #532B37",
"W.	c #D1564A",
"X.	c #C4E5F4",
"Y.	c #98CDEB",
"Z.	c #BAE0F0",
"`.	c #C0E3F2",
" +	c #C2E4F4",
".+	c #BBE0F3",
"++	c #BBE1F3",
"@+	c #C0E4F3",
"#+	c #C1E4F3",
"$+	c #151C45",
"%+	c #B28C8B",
"&+	c #FCFBD9",
"*+	c #FB8955",
"=+	c #C9E8F3",
"-+	c #C3E4F3",
";+	c #B4DEF2",
">+	c #AFDAF0",
",+	c #86C4E0",
"'+	c #95CEE7",
")+	c #A6D5EC",
"!+	c #BAE3FE",
"~+	c #B9E0F4",
"{+	c #B7DEF3",
"]+	c #B7DFFB",
"^+	c #BFE3FB",
"/+	c #2E3774",
"(+	c #15234E",
"_+	c #273989",
":+	c #FAE696",
"<+	c #D0522C",
"[+	c #B9DFF3",
"}+	c #BEE1F3",
"|+	c #BCE0F3",
"1+	c #B5DDF3",
"2+	c #B1DCF2",
"3+	c #A9D7EE",
"4+	c #A7E1FF",
"5+	c #A0D8F9",
"6+	c #79C0E2",
"7+	c #89C5E4",
"8+	c #A7DBF4",
"9+	c #ADDBF1",
"0+	c #B3DDF2",
"a+	c #BEE2F3",
"b+	c #112671",
"c+	c #233E98",
"d+	c #0A1D65",
"e+	c #E5D6C8",
"f+	c #B5DEF9",
"g+	c #B4DEF3",
"h+	c #B2DCF2",
"i+	c #B1DBF1",
"j+	c #ACD9EF",
"k+	c #A5D5ED",
"l+	c #9CD0E9",
"m+	c #A6DBF0",
"n+	c #A5DBF2",
"o+	c #A2D6F1",
"p+	c #76C1D6",
"q+	c #9EDAF3",
"r+	c #A1DAEF",
"s+	c #A8D9EF",
"t+	c #AAD9F2",
"u+	c #ADDCF1",
"v+	c #9DD2E7",
"w+	c #ABDBF0",
"x+	c #ADDCF3",
"y+	c #B4DDF3",
"z+	c #B5DEF4",
"A+	c #D3D5DA",
"B+	c #727593",
"C+	c #233CA4",
"D+	c #AFDDF3",
"E+	c #B1DDF2",
"F+	c #B0DCF1",
"G+	c #9DD1E9",
"H+	c #95CEE3",
"I+	c #90CBE8",
"J+	c #87C7E5",
"K+	c #86C7E5",
"L+	c #A3D7EE",
"M+	c #A2D7EE",
"N+	c #9ED9EE",
"O+	c #A3D6F1",
"P+	c #A4D8EE",
"Q+	c #A0DAF3",
"R+	c #80C0D3",
"S+	c #A4D8EF",
"T+	c #A5D8EF",
"U+	c #A7D8EF",
"V+	c #A5D8EE",
"W+	c #A9D9EF",
"X+	c #A8D7EE",
"Y+	c #ABD8EF",
"Z+	c #AFDBF0",
"`+	c #B1DCF1",
" @	c #B4E1F6",
".@	c #B3DEF3",
"+@	c #B3DDF3",
"@@	c #AF4F50",
"#@	c #193898",
"$@	c #12308A",
"%@	c #153AA6",
"&@	c #A67184",
"*@	c #D2E1E5",
"=@	c #C5D2D6",
"-@	c #80C4E3",
";@	c #7BC8EB",
">@	c #A5D9EF",
",@	c #A3DAEF",
"'@	c #7FC3DF",
")@	c #7DC2DE",
"!@	c #77BFDD",
"~@	c #6CBEE2",
"{@	c #79BEDC",
"]@	c #AAD6ED",
"^@	c #9CD3E6",
"/@	c #A3DAF2",
"(@	c #A4DBF3",
"_@	c #AADAF0",
":@	c #AADCF1",
"<@	c #AEE1F5",
"[@	c #ACDBF1",
"}@	c #ABD9EF",
"|@	c #A5DAF2",
"1@	c #AEE2FB",
"2@	c #81BEDA",
"3@	c #9DDAF3",
"4@	c #A1D8EE",
"5@	c #9DD5EC",
"6@	c #9CD7F9",
"7@	c #7ABCD5",
"8@	c #79B6D2",
"9@	c #9BD6F2",
"0@	c #A2DAEF",
"a@	c #686779",
"b@	c #0B1C59",
"c@	c #86CDEB",
"d@	c #97BDD3",
"e@	c #374092",
"f@	c #A2D4E7",
"g@	c #ABD9EE",
"h@	c #ADE0F5",
"i@	c #BDD7EC",
"j@	c #DFF0F8",
"k@	c #7F86A1",
"l@	c #B4DAF1",
"m@	c #ACDCF2",
"n@	c #A8D7F3",
"o@	c #98A8BC",
"p@	c #DFEFF9",
"q@	c #DEF1FA",
"r@	c #52538A",
"s@	c #9494A6",
"t@	c #8B8997",
"u@	c #F06C30",
"v@	c #B4E0F4",
"w@	c #B4DFF8",
"x@	c #B4E1F9",
"y@	c #CFE8F2",
"z@	c #BDC4E0",
"A@	c #EA4719",
"B@	c #B9DDF2",
"C@	c #D7ECE3",
"D@	c #D34C1B",
"E@	c #EA5128",
"F@	c #43316F",
"G@	c #BCBAE2",
"H@	c #B5DCEE",
"I@	c #CC3715",
"J@	c #ED8D3B",
"K@	c #B0AAB0",
"L@	c #B5E1EE",
"M@	c #BADFF9",
"N@	c #F17146",
"O@	c #BB3013",
"P@	c #B9DDED",
"Q@	c #C7E9F6",
"R@	c #CAE7FB",
"S@	c #B9D9E6",
"T@	c #B2D7E9",
"U@	c #F9CD4D",
"V@	c #FFFE6B",
"W@	c #FFFE73",
"X@	c #FEFC96",
"Y@	c #DD631A",
"Z@	c #BEE0EF",
"`@	c #CAEBF9",
" #	c #EAAC2F",
".#	c #FCC927",
"+#	c #EEB74F",
"@#	c #FEFBC9",
"##	c #FEFE7B",
"$#	c #FEFD87",
"%#	c #FDF678",
"&#	c #FBC81A",
"*#	c #FEF538",
"=#	c #FFFF64",
"-#	c #FCD928",
";#	c #FCD838",
">#	c #FDEB36",
",#	c #CBE6F1",
"'#	c #DBE7D4",
")#	c #FDCB14",
"!#	c #FEFD54",
"~#	c #FDD30A",
"{#	c #FFFB44",
"]#	c #E5F0D2",
"^#	c #E4F0D4",
"/#	c #DEEEE6",
"(#	c #F4E573",
"_#	c #FCE828",
":#	c #FEFF5C",
"<#	c #FCE21A",
"[#	c #FDF22B",
"}#	c #C4E2EE",
"|#	c #CCE8EF",
"1#	c #D2E6F1",
"2#	c #E5F0DB",
"3#	c #FDEA44",
"4#	c #FCF469",
"5#	c #FDC40A",
"6#	c #FCD618",
"7#	c #FEFC4B",
"8#	c #FEF653",
"9#	c #DFF8FF",
"0#	c #CAE5EE",
"a#	c #C7E8EF",
"b#	c #BAE3F9",
"c#	c #FCC413",
"d#	c #D7F0F7",
"e#	c #DAEDF6",
"f#	c #C5E9FA",
"g#	c #FBC639",
"h#	c #E7F3E6",
"i#	c #DBF1F7",
"j#	c #C3E6F9",
"k#	c #E6D6C7",
"l#	c #F9B927",
"m#	c #FDB806",
"n#	c #FEF547",
"o#	c #ECF4D2",
"p#	c #D6F2FC",
"q#	c #DEE9D4",
"r#	c #FEBB0B",
"s#	c #D3EBF5",
"t#	c #D4EEF9",
"u#	c #E2F1F6",
"v#	c #FEBA12",
"w#	c #F4A911",
"x#	c #E1F2FA",
"y#	c #E1EFFB",
"z#	c #F9BA36",
"A#	c #FDB313",
"B#	c #FBB71B",
"C#	c #FDB40B",
"D#	c #ECF4DB",
"E#	c #E1F9FF",
"F#	c #DCEFF9",
"G#	c #E59916",
"H#	c #DA9514",
"I#	c #EAF4D3",
"J#	c #EAF5F3",
"K#	c #F2F7D6",
"L#	c #F3F6DF",
"M#	c #EFF7D6",
"N#	c #EFF6EA",
"O#	c #ECF5F3",
"P#	c #F2F7DF",
"Q#	c #EEF1D8",
"R#	c #E8F5F1",
"S#	c #D59524",
"T#	c #E5920D",
"U#	c #EDCB32",
"V#	c #D48D13",
"W#	c #D88B0C",
"X#	c #F0F7E9",
"Y#	c #EDF1D9",
"Z#	c #ECE3DC",
"`#	c #ECEFD8",
" $	c #DAC77D",
".$	c #EAF4E7",
"+$	c #C98D29",
"@$	c #E4ECD5",
"#$	c #DBB158",
"$$	c #F3F7DE",
"%$	c #D1E3ED",
"  . . . . . . . . . . . . . . . . . . . . . . . . . . . . . . . . . . . + . @ . . . . #   $ $ $ $ $ % # . . . . . # & *   # . . ",
". . . . . . . . . . . . . . . . . . . . . . . . . . . . . . . . . . . . . . = . - . . . . . . # # # . . . . . . . . . . . . . . ",
". . . . . . . . . . . . . . . . . . . . . . . . . . . . . . . . ; > , ' ) ' , @ ! ! > . ~ # # # # # . . . . . . . . . . . . . . ",
". . . . . . . . . . . . . . . . . . . . . . . # . . . . . # { . ] ^ / ( _ _ _ ( / ( _ > ] . . . . . . . . # % . . . . . . . . # ",
". . . . . . . . . . . . . . . . . . . . . . . . . . . . . . . . : , ' ( _ < < < [ < [ < ^ , . . . . . . . .   . . . . . . . * } ",
". . . . . . . . . . . . . . . . . . . . . # . . . . . . . . : , ( ( ( _ _ _ < < < _ < _ < | 1 . . . . . . . . . . . . . . .   2 ",
". . . . . . . . . . . 3 4 . . . . . . . .   * 5 . . .   * ^ | ( _ ( _ < < < < _ _ < < < < < | ~ . . . . . . . . . # . . . . . 6 ",
". . . . . . . . . . 7 8 9 7 . . . . . . . . & 0 & # 5 & a , ! b b _ < < _ < [ c [ d e [ [ < < 5 . . . . . 5 . . . & f # . . . 0 ",
"5 . . . . . . . # # 4 8 g = h . . . . . . . . 5 5 . . . . . ~ i ! ' _ < [ ( g j k l m k [ / | ' n * # . . % . . . #   5 . . . 6 ",
"5 . . . . . . . . . . o 3 8 o p . . . . . . . . . # # . . # > , ( < [ < _ j g q e 1 r s t u v / w x y & z y & # . . . . # . * A ",
". . . . . . . .   % 5 5 5 3 B C p & & & % % % % & y D E E , ) _ < < < < < F G H F I J J m K C L M w N O P Q P R * & z * E D S T ",
"* & * U % . . & R V V V W S p X o Y x P S O O S P Z Z N , ! < < < < < e | e G m ` ` s m m m ` ~ M M M w M M M  ...x P x x N +.M ",
"x P x @.#.R $.%.Z +.+.&.w w M *.X 9 *.= w w w w M M M M , ' < ( < < [ =.e s G K ` ` ` m K -.c ;.M M M M M M M M M M M M M M M >.",
"M M M M w +.Z +.M M M M M M M M + X ,.9 { >.M M M M M M M M './ < _ d ).!.~.G {.` ` t m m ].u M M M M ~ ^.l ` M M M M M M M /.(.",
"M M M M M >.M M M M M M M M M M M >.B 8 9 9 M M >.>.M M >./.M + _.< k :.<.G G [.q }.].m q ` }.M M M M {.|.l ].~ M M M M M >./.1.",
"/.M M M M M M M M M M M M M M M >.>.>.2.X o Y >.>.>.M M 3.4./.5.| [ =.).6.<.7.l d k }.m }.` 8.M M M 8.9.0.7.a.k M M M M M /.M b.",
"c./.M M M M M M M M M M M M M M >.>.M >.F X u p M M M b.d.e.f.g.~ _ | g {.G h.l i.d C ^.9 j.^.M M 8.k.l.9.m.n.o.M M M M /.f.>.p.",
"q.r.s.M M M M M M M M >.>.>.>.M M >.t.u.3.v.8 *.w.b.3.r.x.x.y.>.d z.| [ | ~.H u p 2.i.J ~ ` M M M Y A.9.6.7.).m.M M M B.C.C.D.E.",
"F.G.r.t.M M M M M M M M M M M M M f.r.H.H.I.H.8 *.p k J.K.K.C.s.c L.! L., g :.m 9 Y p v u ` + ~ 9 Y A.M.r r [.k M M s.N.x.D.e.O.",
"P.F.G.I.Q.R.p.p.p.p.p.b.b.s.s.s.3.H.r.S.T.K.G.G.2.B -.0.u K.T.^.h U.v b V.7.7.K m m q m }.L ` ` r ,.,.,.W.|.V.M M M B.K.x.D.X.Y.",
"Z.`.r.u. +.+++++++++I.I.H.@+u.u.#+X.r.G.K.K.K.K.K.g }.K j.K.l.).z.! v $+%+|.[.|.-.-.u l q }.&+-.G *+A.,.8 p M >.=+=+-+G.K.;+>+,+",
"'+)+Z.!+~+T.T.T.d.{+]+^+r.D.r.T.d.T.G.K.K.K.K.K.K.!.g K l |.*+).) /+v (+1 m {.!.u , (+_+l :+[.7.<+*+).2.1 [+}+|+K.H.r.1+2+3+4+5+",
"6+7+8+9+0+D.Q.Q.a+X.p.r.r.q.G.K.G.K.K.K.K.K.K.K.K.g [.K -.j l.V.b+c+$+v s l K u ^ d+d+_+r 7.G G <.7.e+K.K.f+g+F.h+i+j+k+l+m+n+o+",
"p+q+r+s+t+u+v+w+x+e.S.y+F.g+y+K.K.K.K.K.K.K.K.z+K.A+).r l M.A.' b+c+b+c J K m B+b+_+C+c+).G G G 7.k D+E+2+F+u+G+H+I+J+K+'+L+M+o+",
"p+N+M+O+P+Q+R+S+S+T+U+V+W+9+X+Y+Z+`+h+ @.@+@0+g+F.g+@@@@p B M.| (+#@$@b /+/+_+$@#@$@%@_+&@1 *@=@-@;@>@>@,@T+r+'@)@!@~@{@N+o+M+M+",
"N+N+M+M+]@^@N+M+/@o+o+L+P+T+,@(@t J c V.V.1 _@:@<@[@}@2.@@~.g b U.d+%@b+b c+%@$@b+#@%@c+C+>@|@1@2@2@3@4@M+M+M+5@3@6@7@8@9@M+M+o+",
"N+M+M+M+M+N+3@M+M+N+M+M+o+> h h V.V.z.J c i.h 5.0@a@$+$+/ e v ! d+b d+(+t b U.b@#@#@#@b+, M+o+o+o+/@N+M+M+M+]@/@4@/@3@4@N+o+M+N+",
"N+M+M+N+M+N+N+M+M+N+M+o+t 1 V.e / , c@4@4@! | L.L.d@L+e@$+b@U.d+B+(+b@, U.b ( b@b@$+b+/+1 M+3@o+/@3@4@3@M+M+]@f@M+g@h@]@/@o+o+N+",
"M+M+M+M+N+N+N+N+M+M+M+v v L.4@o+/@^@c@^@M+N+M+M+M+]@i@j@5@o+B+B+B+= k@{ $+$+) b t F ).7.k.l.l@N+f@4@3@4@M+o+4@f@g@g@g@g@6@M+M+M+",
"f@M+m@M+3@o+o+o+n@o+o+o@5@N+M+o+M+M+o+M+M+o+M+]@a@/@p@q@N+M+^ , U.U.) B+r@s@k@t@r G 7.G u@<.7.4@/@f@N+/@4@f@f@]@v@K.K.w@m@4@M+M+",
"v@x@o+M+M+M+]@M+]@o+M+M+N+3@5@M+M+M+M+M+o+M+M+M+M+@@y@_./+$@b+U.b , z@i U.U.$+*.<+*+G G <.<.A@F f@m@h@M+g@v@w@m@v@B@w@K.K.v@v@]@",
"B@B@m@n@M+M+]@4@4@M+4@M+M+N+M+M+M+M+4@4@N+4@N+C@:.*+D@E@F@%@#@U.i { G@d+d+U.s W.*+*+D@<.<.<.D@r v@w@v@K.H@w@K.v@K.K.w@K.w@K.K.K.",
"B@K.w@]@M+f@]@M+N+M+o+M+M+M+M+M+4@5@4@^@f@^@4@:.u@A@I@X z./+^ { B+i b@$@b+L.).I@D@<.I@<.J@<.<+G m@w@B@B@K.K.K.w@K.B@B@K.K.B@K.B@",
"K.B@v@f@]@w@w@w@x@K.f@M+M+M+o+M+o+o+g@M+f@f@r G <.*+~.X ^.C G@K@{ ) #@#@c W.E@X *+u@I@~.<.~.D@J@K.K.K.B@K.B@K.K.K.K.K.K.K.K.v@K.",
"L@H@h@f@w@M@w@M@M@B@w@/@N+M+o+5@5@/@]@w@v@v@N@<.<.u@E@u@~.L ` ` / 0.z.M.<+O@X X E@A@N@A@u@A@u@*+K.B@H@H@H@B@M@B@B@K.K.K.K.h@L@m@",
"P@Q@Q@R@S@K.K.K.K.K.K.4@^@4@K.T@K.T@K.K.K.k I@u@u@N@U@V@V@W@X@).W.<+6.^.k.W.E@W.A@A@E@Y@J@<.Y@Y@k K.K.K.K.K.K.K.w@m@K.K.P@K.w@v@",
"Z@`@Q@M P@K.K.K.K.K.w@g@g@/@K.K.K.K.w@K.K.H <+D@N@ #.#V@V@V@V@V@+#l.h.:+@#` ` 9.D@h.########X@J@%+K.K.w@B@w@K.v@K.K.K.B@B@I.K.K.",
"M M `@M M K.H@K.K.K.K.w@v@K.w@K.T@K.K.K.K.:+$#W@%#&#*#V@=#=#V@=#W@-#;#V@W@##].` W@>#V@W@W@W@V@$#K.B@K.K.w@K.K.K.w@P@P@P@M Q@P@H@",
"M M M ,#M K.K.K.w@K.K.B@B@B@K.K.K.K.K.K.'#$#W@=#V@)#*#V@=#=#=#=#V@-#!#W@V@W@##X@~#{#W@=#V@=#=#V@$#]#^#/#w@K.K.K.K.H@X.Q@M M R@I.",
"M M M M Q@K.K.K.B@K.K.L@K.H@K.K./#(#$#$#(#W@V@V@V@-#_#:#=#=#=#=#;#<#=#V@V@V@V@V@!#[#*#[#*#:#=#V@V@$###$#]#K.K.K.K.}#M M |#M M M ",
"`@,#1#M Q@K.K.w@K.w@K.L@K.v@B@2#.#{#W@3#4#V@V@=#V@:#<#!#V@=#=#V@5#{#=#=#=#=#=#V@W@6#<#7#8#{#V@V@V@##=#%###2#K.K.v@}#M ,#|#|#M `@",
"9#0#a#a#a#P@K.H@K.K.b#P@P@B@K.U@)#=###.#V@:#V@V@=#=#!#=#=#=#8#3#c#{#V@V@V@=#V@=#V@=#V@:#=#V@:#=#=#V@>#W@##$#B@I.I.a#`@M d#M a#Q@",
"e#|#a#a#M f#B@K.H@H@f#Q@f#P@2#g#)#V@V@6#7#_#:#V@=#=#:#[#!#-#)#!#~#{#V@W@V@=#W@V@V@:#=#=#=#=#=#V@V@W@<#W@W@W@h#M `@M |#|#a#|#|#X.",
"i#e#a#a#M Q@B@P@Q@j#f#M `@X.k#l#c#=#=#.#&#8#V@=#=#:#!#6#;#m#{#=#n#[#4#=#V@=#V@V@!#!#W@=#=#=#V@V@W@_#[#W@W@##o#M M M M p#i#i#M M ",
". i#M M Q@`@X.X.Q@R@`@M `@Q@q#l#5#:#=#&#;#!#V@=#:#6#5#r#&#)#4#=#V@:#=#=#V@V@=#!#-#3#V@=#=#=#=#V@=#6#=#V@W@##o#|#|#M s#i#9#9#t#s#",
"u#i#M M Q@,#`@t#M M M M X.`@P@ #v#>#=#n#U@&#:#8#!#:#;#5#w#)#V@=#!#7#7#:#:#[#-#U@U@7#:#*#[#7#V@V@:#=#V@W@W@W@o#M M t#x#u#u#. y#s#",
". . t#,#M ,#,#X.,#,#M M M `@M U@l#)#_#!#.#z#.#*#:#=#V@;#l#A#!#*#~#5#6#7#=#>#3#B#C#-#-#n#W@##W@W@V@W@V@W@W@W@D#M M 1#E#x#x#i#. p#",
"F#. F#1#M M M Q@t#M |#a#M M (#-#V@:#;#c#G#.#5#:#=#=#=#%# #H#w#5#5#!#####=#:#:#>#m#)#:#V@V@=#=#V@V@W@=#W@V@$#|#M F#F#x#. . x#. . ",
". F#F#1#M M M M M p#i#i#,#I#.#:#V@V@:#;#w#B#5#{#7#=#=#W@.#C#v#>#V@V@W@V@V@_#!#!#5#-#:#=#=#=#=#=#W@=#_#~#:#o#d#t#. F#F#. . . F#. ",
". . x#1#M M M M s#9#x#x#1#U@-#!#7#7#!#7#B#.#&#5#_#7#:#V@-#)#>#=#=#=#V@V@W@=#<#>#c#-#=#=#=#=#=#=#=#W@&#6#%#h#d#i#x#x#x#. y#x#. . ",
"x#. . . M ,#,#e#x#. u#y#p#(#v#v#m#5#r#r#U@A#m#>#=#=#:#=#!#c#7#V@=#=#:#:#=#V@>#_#c#6#=#=#=#V@=#=#=#=#=#n#*#o#i#i#x#x#x#x#x#. . . ",
". x#J#. F#E#1#F#. x#u#u#x#K#B#r#r#C#r#B#B#r#m#!#:#=#=#=#!#-#{#=#=#=#{#3#=#V@8#*#c#)#:#=#V@=#=#=#=#=#:#<#=#X@i#x#u#. . . . x#. . ",
". . X@J#. E#. E#y#x#x#i#F#L#l#C#B#v#A#g#v#r#r#:#:#7#[#>#!#;#{#=#=#=#-#.#!#V@##7#5#.#>#7#{#_#:#=#=#=#V@*#=#M#i#y#u#x#. . . x#x#x#",
". . $#$#N#J#O#J#N#P#P#Q#X@;#l#z#z#g#B#U@r#A#m#:#*#m#m#C#5#g#[#:#=#=#{#)#-#!#V@=#)#c#&#5#r#-#:#=#=#=#V@-###R#. . x#. . F#. . . F#",
". x#{#=#V@W@W@V@W@V@V@V@:#_#C#G#H#G#A# #A#A#C#-#5#C#C#C#C#U@)#:#=#=#W@!#>#&#7#V@>#c#c#;#;#>#:#=#=#V@W@-#$#x#. F#. x#. x#. . . x#",
". . :+>#:#:#=#=#=#{#[#<#)#c#&#v#A#A#l#S#l#A#A#C#C#T#C#C#C#g#v#!#=#=#=#3#g#w#-#=#=#n#~#5#&#7#=#=#=#V@V@3#i#x#x#. . x#x#. x#F#. . ",
"x#x#x#P#U#-#>#{#!#!#:#!#7#7#n#>#&#A#B#V#U@B#A#H#V#G#T#C#C#G#B#5#{#:#:#&#V#A#)#=#=#=#=#:#=#=#=#=#V@##(#N#x#x#x#x#. x#x#. . F#. . ",
". x#. x#. N#[.U@&#l#&#&#&#v#&#v#A#w#S#V#S#U@ #V# #A#C#C#C#W#z#A#A#-#>#l#V#A#r#:#=#=#=#=#=#=#=#=#=#$#p#F#x#x#x#x#F#. . . x#. y#x#",
"y#x#. . x#x#x#x#. . X#K#Y#[.a.[.Z#`#X#X#J#. t# $l#A#C#C#C#W#S#B#T#w#C#z#V#A#r#{#=#=#=#V@=#=#=#=#!#.$p#F#x#y#. . . x#x#. . F#. . ",
". . . . . . . . . . x#. x#. F#. x#. . . F#9#s#|#+#v#C#C#C#w#V#S# #W#V#S#+$T#C#r#!#:#:#:#:#=#V@*#U@F#. F#. . x#x#. y#x#x#x#. . . ",
". . x#. y#. x#. . x#. x#. . . . . x#. F#. u#p#|#@$B#C#C#C#A#G#V#V#h.+# $#$V#w#m#)#7#:#=#:#!#6#g#x#x#. . F#x#x#. x#F#. x#F#. x#F#",
". F#x#x#. . . . F#. x#. . . x#x#. x#. x#. x#. ,#,#[.z#B#w#G#T#S##$g#z#l# #+$W#w#C#r#c#6#~#B#U@. . . F#x#x#x#x#. x#. . . . . x#x#",
"x#y#F#x#. x#x#x#. F#. . x#F#. . . . . . x#x#x#s#M M D#h.U@U@h.h#:+U@z#H##$a.a.+$H#w#C#r#+#$$. x#x#. . . . . . y#x#. x#. . F#x#. ",
"%$1#x#. F#. F#. F#. . . . . x#x#. . . F#. y#. F#`@M M M M M M M M M D#D#M M M M o.n.o.F#. u#x#x#. F#F#. . x#x#x#. x#. x#x#. y#x#"};
