/* XPM */
static char *_0bcd2e343734303e06c92dc8c3bd691LFdZNbtWfEtaSvuP[] = {
/* columns rows colors chars-per-pixel */
"64 64 246 2 ",
"   c #662A2E",
".  c #6A2A2E",
"X  c #662B31",
"o  c #6C2C32",
"O  c #6A2F39",
"+  c #722D33",
"@  c #723239",
"#  c #713B48",
"$  c #1B4C4D",
"%  c #1C5658",
"&  c #235958",
"*  c #1E6359",
"=  c #28694C",
"-  c #26675A",
";  c #317055",
":  c #35765C",
">  c #1D5A65",
",  c #255D64",
"<  c #354F7E",
"1  c #3A517D",
"2  c #1C626C",
"3  c #1E6A76",
"4  c #276768",
"5  c #356A6F",
"6  c #2A726A",
"7  c #367869",
"8  c #246A73",
"9  c #2B6D73",
"0  c #2C7678",
"q  c #347879",
"w  c #724B57",
"e  c #79546F",
"r  c #78586A",
"t  c #496D67",
"y  c #4D7872",
"u  c #737274",
"i  c #81313A",
"p  c #883A44",
"a  c #B33C4F",
"s  c #964A55",
"d  c #B04658",
"f  c #8E5B6F",
"g  c #AF5869",
"h  c #BB5667",
"j  c #8C6775",
"k  c #B56876",
"l  c #C1465B",
"z  c #3A8652",
"x  c #39816C",
"c  c #39867B",
"v  c #479A55",
"b  c #54955C",
"n  c #51A258",
"m  c #46856A",
"M  c #448775",
"N  c #528E74",
"B  c #67877A",
"V  c #6D9574",
"C  c #5EA362",
"Z  c #6FAA6F",
"A  c #78A974",
"S  c #919A77",
"D  c #84AE76",
"F  c #89B37A",
"G  c #95B37D",
"H  c #99B47F",
"J  c #374F80",
"K  c #3A5584",
"L  c #3B648B",
"P  c #2A7B83",
"I  c #337D83",
"U  c #465887",
"Y  c #7F5E80",
"T  c #4E718B",
"R  c #5A6998",
"E  c #70758E",
"W  c #67689B",
"Q  c #706EA2",
"!  c #7B76A6",
"~  c #8C718D",
"^  c #B17786",
"/  c #877CA8",
"(  c #8D7BAE",
")  c #947BAD",
"_  c #9A7EA9",
"`  c #8F7DB2",
"'  c #947DB1",
"]  c #C17D8A",
"[  c #2C8488",
"{  c #328285",
"}  c #33848A",
"|  c #388988",
" . c #3D988C",
".. c #2C8C93",
"X. c #338E94",
"o. c #388D94",
"O. c #2D949B",
"+. c #359294",
"@. c #3B9494",
"#. c #37969A",
"$. c #38A19F",
"%. c #2E9AA2",
"&. c #349CA3",
"*. c #3B9DA2",
"=. c #38A2A6",
"-. c #33A5AE",
";. c #3BA5AB",
":. c #35A9AE",
">. c #3AAAAF",
",. c #34A7B1",
"<. c #3AA6B1",
"1. c #35A9B1",
"2. c #3AACB2",
"3. c #3EB0B4",
"4. c #488A88",
"5. c #568988",
"6. c #44998A",
"7. c #459A97",
"8. c #569092",
"9. c #6C8C88",
"0. c #6A8899",
"q. c #728B98",
"w. c #669698",
"e. c #48A18C",
"r. c #5CA78C",
"t. c #4EA297",
"y. c #5AA795",
"u. c #77AE8A",
"i. c #79B18C",
"p. c #65A794",
"a. c #6CAA94",
"s. c #7AB193",
"d. c #4E9DA6",
"f. c #7396AB",
"g. c #48A7A9",
"h. c #59A8A8",
"j. c #5FB1AD",
"k. c #43ADB3",
"l. c #4BAAB2",
"z. c #55ACB2",
"x. c #44B1B5",
"c. c #4AB3B6",
"v. c #4CB6B9",
"b. c #4CB7B9",
"n. c #57B4B6",
"m. c #52B6B9",
"M. c #52B8BA",
"N. c #5CB9BB",
"B. c #64A5AA",
"V. c #76A7A9",
"C. c #67ACB5",
"Z. c #74ACB2",
"A. c #68B9BB",
"S. c #76BABB",
"D. c #75BFC0",
"F. c #7DC1C1",
"G. c #909091",
"H. c #B78799",
"J. c #AE9497",
"K. c #89A98A",
"L. c #8FAF8E",
"P. c #96AC8A",
"I. c #97B386",
"U. c #87B396",
"Y. c #97B599",
"T. c #ACAF8F",
"R. c #A5B494",
"E. c #A8B997",
"W. c #B9B998",
"Q. c #8A86A9",
"!. c #9586AB",
"~. c #8E97A7",
"^. c #9898AA",
"/. c #8C83B2",
"(. c #9786B2",
"). c #A990AD",
"_. c #AA9AB4",
"`. c #B699B5",
"'. c #91B0AD",
"]. c #A7A9A7",
"[. c #B8A8A7",
"{. c #A9B7AA",
"}. c #B8B8AA",
"|. c #ACA5B6",
" X c #B8A6B9",
".X c #BBACBD",
"XX c #A7BBBC",
"oX c #BBB7B8",
"OX c #CA838E",
"+X c #C98B98",
"@X c #CA929D",
"#X c #C1B892",
"$X c #C4BC9A",
"%X c #C9BE9D",
"&X c #CC97A5",
"*X c #CD9DAE",
"=X c #D1AAAC",
"-X c #C8B9A8",
";X c #C6A7B9",
":X c #CCACBC",
">X c #D4A7B7",
",X c #D3ADBC",
"<X c #C8BBB6",
"1X c #C5B2BB",
"2X c #CCB2BE",
"3X c #D3B3BE",
"4X c #DAB4BE",
"5X c #8AC3BF",
"6X c #B4C1AF",
"7X c #BAC4B9",
"8X c #C7C19E",
"9X c #C6C2A2",
"0X c #CAC1A5",
"qX c #C8C6B8",
"wX c #D2C4B3",
"eX c #87BAC0",
"rX c #B9ADC0",
"tX c #BCB6C1",
"yX c #C9ABC0",
"uX c #D6AEC1",
"iX c #CCB4C1",
"pX c #CAB8C2",
"aX c #D4B5C2",
"sX c #DCB4C2",
"dX c #D6B9C1",
"fX c #D9BAC2",
"gX c #D6B8C8",
"hX c #E2B8C4",
"jX c #89C3C3",
"kX c #9AC6C6",
"lX c #A8C9C8",
"zX c #BAC9C4",
"xX c #B4CCCA",
"cX c #BBCDCA",
"vX c #BDD0CF",
"bX c #C8C7C4",
"nX c #C3CCC6",
"mX c #C3CDCA",
"MX c #CACECA",
"NX c #D2CBC3",
"BX c #D6C9C6",
"VX c #C5D0CC",
"CX c #CCD0CB",
"ZX c #D7D1CA",
"AX c #C9D2D2",
"SX c #D2D3D1",
/* pixels */
"| } { { { c [ [ c [ [ | c [ [ { ..[ [ { { } [ c { { { c [ [ c [ [ [ [ [ [ [ { { { } { { c q I 4.} I I T 5 & $ & q 4.4.4.8.4.8.8.",
"c.2.2.2.3.:.:.2.:.:.:.:.:.1.1.1.1.1.:.1.2.2.2.2.-.:.1.1.,.,.-.-.-.-.1.,.:.1.2.2.2.2.2.=.[ 3 P o.g.k.;.+.I , $ 0 @.z.n.n.N.N.N.A.",
"3.2.2.2.2.:.2.2.2.:.:.2.1.<.2.1.1.1.:.:.1.1.1.:.:.:.,.:.,.-.-.-.-.-.,.,.1.1.1.2.1.2.<.&.X.P 0 P 9 { +.0 4 $ % > 9 o.7.g.n.N.A.A.",
">.2.2.2.2.2.2.2.2.:.:.:.:.:.1.1.1.1.1.:.1.1.1.:.-.:.,.,.-.-.-.-.-.-.,.,.1.1.1.1.1.1.2.1.>.>.g.@.@.q 9 I & $ % % % - 6 c c g.N.A.",
"0 O.%.;.<.2.:.2.:.1.:.:.:.:.:.1.1.,.1.,.:.:.:.:.:.-.,.,.-.-.-.-.,.,.1.1.1.,.1.1.1.<.1.-.%.[ c x 7 c q 4 & % % 4 = ; x M  .c t.A.",
"> 8 P %.>.2.1.1.-...[ %.:.1.:.:.1.1.1.,.:.:.:.:.1.-.,.,.-.-.-.-.,.l.k.1.1.1.1.1.2.1.:.+.0 6 - - - 7 7 - % % 4 6 x N 6.r.y.y.7.t.",
"2 > 2 P X.:.:...3 3 3 3 %.:.2.1.,.,.1.1.1.1.:.,.1.,.,.-.-.-.-.,.,.C.'.3.,.1.,.1.1.:...c 6 6 6 6 m x : ; : % % 7 x x c e.t.h.j.6.",
"0 2 > > 8 =.O.2 3 3 P 3 [ O.:.1.,.,.,.,.,.,.,.1.-.-.-.,.-.-.-.,.,.C.Z.,.,.,.1.,.1.%.[ 6 : M N 7 0 0 : y m = $ 4 4 - q c  .t.z.h.",
"+.3 % % > [ 2 3 P ..O.....P %.-.,.,.,.,.1.,.1.1.1.:.-.-.,.-.,.,.l.C.l.<.,.,.,.1.,.+.c c c | | } q & & - m = 4 7 7 6 4 9 4 I l.A.",
"8 2 - - % % % 3 O.%.%.%.O.....-.,.,.:.1.1.1.:.:.1.1.1.1.-.,.,.,.d.Z.C.l.1.<.<.1.&.#. . .&.*.#.} 4 5 5 & - m 6 0 | #.0 8 , 0 o.z.",
"6 6 7 6 $ $ $ > 3 0 ..O.-.%.O.%.1.1.:.:.:.1.:.:.1.1.1.:.1.1.,.,.l.C.C.<.1.<.1.1.=.=.%.1.2.*.o.} 5 9 8 & & y m 6 6.g.@.{ I 4 q h.",
"6 0 2 * $ $ % > 8 > 2 3 ..-.-.%.:.1.1.:.1.1.:.1.1.<.>.1.:.:.<.<.l.f.l.<.1.1.1.<.-.<.1.>.<.*.o.I 4 9 , 4 5 7 x 6 | 7.l.@.d.[ 0 8.",
"4 % - * * * % * * > [ [ 3 [ %.:.:.:.:.2.:.2.-.>.<.>.:.2.>.<.<.d.W f w.,.,.,.1.1.1.2.2.2.>.#.I 9 9 9 2 5 I y x - c l.v.g.k.#.} q ",
"4 6 & * * - * * * * c O.O...O.=.:.:.:.2.:.:.<.>.:.>.>.2.k.g.0.r # a Y 2.,.,.<.<.1.2.2.3.>.+.9 9 q 0 9 0 { | N 7 | g.v.v.c.l.7.P ",
"2 c m ; - x 2 x * * 6 O.=.%.=.:.:.:.:.1.2.2.2.k.k.2.x.k.d.E w @ s ) s E 2.<.2.3.2.1.2.>.#.8 8 I I I I L } T y x c g.M.M.m.m.l.} ",
"* x N 6 * 6 3 c c x * 6 ..-.:.:.1.2.2.2.2.3.2.k.2.k.z.w.r X . @ +X_.~ u l.<.<.<.2.2.2.:.[ 4 9 } X.X.9 8 } 5.4.M q 7.M.M.m.m.m.7.",
"2 x c - - 6 8 c c +.c - 6 ..>.>.>.>.2.2.2.k.k.k.x.h.E p + X + g `.|.).w E <.3.<.2.2.2.=.P 9 } +.*.X.0 8 4.0.w.| 6 @.b.b.M.M.M.g.",
"2 ..4.= * * 8 P ..O.[ q 6 [ =.>.2.2.k.k.x.k.x.z.q.r @ + X X p +XyXpX|.G.e B.k.3.2.2.2.;.P } *.;.;.*.I 8 7.0.h.*.4.7.c.b.b.M.M.N.",
"} #.q 6 % * X.*.=.-.O.{ c [ =.>.2.k.x.g.x.k.h.q.w . . . X @ k ;XoXyX.X|.u ~ l.3.x.2.2.;.P *.;.k.x.;.P } d.G.C.k.t.y.x.v.b.b.M.N.",
"O.O.[ q % 6 } &.:.2.:.O.O.=.$.3.g.q.f.B.B.B.u # . .     X p @XyXpXpX2X X!.e 0.l.x.x.k.;.#.k.x.2.k.*.} ;.B.{.C.c.x.g.v.v.b.b.M.N.",
"*.-.X.M = 4  .;.2.2.2.:.;.<.k.k.R f h k k g # . .     . @ k ;X:X2XaXiX.XrX~ u z.x.x.k.2.;.2.x.3.2.*.*.k.B.].n.c.x.x.c.v.b.b.b.N.",
"2.,.&.4.7 4 | ;.2.2.2.2.2.3.3.l.Q ~ d l d d i .       . s &X:XaX2X:X1X1X|._.f q.k.c.x.x.3.3.3.x.x.=.k.x.V.{.z.c.c.b.c.v.b.b.b.m.",
"3.2.k.5.5.M 8.n.c.3.3.k.2.c.x.d.Q /.f d l a a   .   . i ] >X3XfX3X;X2X2XpX|.G.j B.c.x.k.x.3.3.x.x.2.k.c.~.XXl.x.x.x.c.k.k.c.b.N.",
"x.v.C.w.'.V.V.S.A.v.x.2.k.x.x.0./ (.( f g g d . . . . s &X:X4X4X=X>XaXdXpXrX_.e G.z.c.x.x.x.3.3.x.x.x.l.'.{.k.k.x.x.x.g.#.x.b.n.",
"v.A.eX^.7XXXxXzXkXS.n.x.v.v.n.E /.! /.)..X;X^     . @ OX>X4X3X*XOX@X;X2X1XpX|.^.r V.c.c.x.x.k.x.k.k.k.z.|.'.k.3.x.x.x. .} k.x.n.",
"m.eXrX].MXnXnXmXcXkXA.n.M.N.j.f.R U /._.pX1Xf     . g *X4X4X@XOXOX+X*X,X2X<XrX X~ ~ n.c.c.c.x.k.k.k.k.j.].f.d.d.x.x.x.0 { k.x.g.",
"A.lXtX{.SXCXMXMXVXxX5XA.N.N.A./.L L /._.<XJ.O X o @ OX;X&X&XOXOX&X*X*X&X,XiXpX1X].f V.M.n.c.c.c.k.k.k.Z.{.w.P 8 =.k.k.0 9 =.g.7.",
"jXxXtXXXCXCXMXMXVXxXlX5XD.N.D.f.R R /._.1Xf X X @ g =X3X@X&X@X&X,X=X@X+X&X1XpXpX.X!.j C.m.c.v.c.c.c.k.'.oXh.o.4 4 g.g.| 9 g.o.7.",
"kXvXtXoXCXAXVXMXVXcXlXlXkXF.A.Z.R K ) `.H.#     p +XsXfX=X=X>X>X=X*X@X&X+X2X2X2X.X Xj G.C.m.m.c.c.k.z.{.{.z.=.I > 8 7.9 q { 6 | ",
"kXxXzX1XVXVXVXVXVXzXxXcX7XkXS.f.R K _ _ f     o k >XaXfX4X,X=X&X&X&X+X*X:X3X3XpXpX.X).j Z.N.m.v.c.c.B.oX{.k.=.o.L 9 $ % & 4 c 7.",
"lXxXtXoXVXVXVXVXcXvXcXVXVXxXD.f.R W ~ f X X X s @X4XBXfX3X&X@X@X@X&X>X3XyXiX2X<X2X1X;X~ G.C.N.m.m.m.Z.-X'.2.k.d.I q , & - 6 c h.",
"vXvXxXzXmXVXCXnXcX7XnXnXcX7X'.~ Q e # . X X @ k >X4XfX4X4X@X@X=X,XhXdXdXdXaXiXpX2X2X.X|.j ~.A.N.n.n.'.}.h.d.I , % % , , 4 q 6.h.",
"mXzXlX7XxXmXmXnXcXnXnXVXcXzXJ.w # .     . + p &X4XaXfX3XfX=X,X3X4XdXaXaXaXaXaXiX:XuXyX.XJ.j Z.A.A.C.G.V 7 - ; 7 7 4 % $ , q 0 T ",
"vXcXXX7XxXcXcXcXnXcXVXnXnX7Xs o         . @ ] uXaXfXdX3X3X3X3XaX3X3X3X,X2X:X:X;X:XuXyX.X Xj ^.S.S.a.K.V N m M 7 M M & ; M 4 8 y ",
"vXcX7X7XxXxXxXmXnXVXnXnXmX].@ o . . . . . s *XuXdXfXBX4XfXfXdXdXaXaX3X3X4XuXuX,XuXuXuXhX;XJ.j XXlX].].w.6.c o.} 4.m - y y : 4 5 ",
"vXcX7XoXxXcXcXmXVXnXMXnXMXj . + + . . . # ^ ;XuX3XaXdX3X3X3X3X3XaXuX,X:X*X>X>X>X>X>X>XhX;X;X[.bXqX-X7X6XB.#.g.g.4.: - 7 4.M 5.w.",
"vXcXzX}.cXmXcXmXMXnXnXVXoXw . . . + O # f `.gXgXdXaXdXdXsXdX3XdXgXuXuX).f h h h h h h h h k =XZX<X0XwXVXkXj.c.g.5.t 6 c r.w.Z.'.",
"vXxXzXqXmXmXmXmXcXnXVXnXG.O . . O # e / ' ;XgXgXdXdXdXfXNX4XfXfXaXsXuX).(.j a a d d a a d a k =X-XwXZXZXxXA.v.g.N N c y.'.jXlXvX",
"xXxXcXwXnXmXmXmXmXmXmXoXw O # w ~ ) ) ' ) `.aXaXaX3XaXaX3X3X3X3XuXaXyX_ ! / ~ H.H.H.H.^ H.H.H.H.&XwXZXZXcX'.v.8.8.6.7.j.jXkXlXvX",
"xXxXzXwXnXmXcXmXmXcXmX].w Y ~ ) ( ` ' ' ) rXgXaXaXfXdXfX4XBX4XBXfXaXyX(.`.(.`.(.) ) ) ) !.*X|.=X[.NXZXZXVXkXV.0.d.g.t.A.jXkXlXvX",
"lXxXcXqXqXVXcXVXmXmXmXtXQ.` ( ! Q Q ( ) ) `.yXuXiXiXiX2XaXiX3X2XiXiX;X`.*X`. X`.).).(.(.`.,X X[.-XBXZXZXcX6XG.f.n.n.n.D.kXlXlXAX",
"kXlXxXqXqXnXcXVXmXmXmXtX(.( R U R R ( ) ) `.gXyXrXrX|.Q.Q.Q.Q._..X XiX>XsXuXyX.X`.yXyXuX4X4X[.[.BXZXZXZXmX].G.C.N.A.D.jXkXlXxXAX",
"kXkXvXqXqXzXVXcXmXmXmXpX(.( R R W U W ) ` `.yXrXrXrX^.1 1 K K !.rXrXyX;X,X>XoXq.8.0._.;X4X4X X2XZXZXZXZX<XJ.'.n.A.F.jXkXlXxXvXAX",
"jXkXlXzX-XnXvXnXmXmXmXcX(.Q 1 < R J W ) ' yXuXrXrXrX^.1 1 1 1 Q.tXrXyX>XuX>X}.y U T `.;XhXsX<XZXZXZXZXNX}.oXjXN.S.jXkXxXvXmXAXAX",
"kXlXxXzX0XqXcXVXmXbXnXtX(.! J K R K Q ' ' yXgXyXrXrX~.< < J J ~.rXyXuX>XuX>XoXT U 5._.:X4X4XdXZXZXZXBX<X<XnXjXD.F.kXxXcXmXMXCXSX",
"vXmXmXnXwXqXcXVXmXmXMXbX(.Q K L R K Q ` ' `.yXrXrXrX^.1 < J J !.rXrXyX;XuX>XoXu T 5._.;X4X4X<XZXZXZX<X=XqXzXkX'.jXkXxXcXVXCXCXSX",
"AXAXMXMX<X-XbXmXmXMXmXbX(.! L L R U Q ' ' yXuXrXtXtX^.E U 1 J (..X.XaX>XsXuX.XV y B |.:XhXhX3XwXwX3X-X<XnXxXlXlXkXkXxXcXmXMXCXSX",
"SXSXSXMXbX-XbXnXnXMXMXzX(.! L L R K W ` ' `.yXrX X X^.q.y K K ^.tXrXiX;X>X:X}.9.y 9._.;XuX,XoXP.E.-XwXZXmXzXxXxXlXxXcXmXmXAXCXSX",
"AXAXMXMXbX-X<XMXMXbXNXbX(.! K K R K W ( ' ;XuXrXrXrX^.~.E U 1 ^.rXrX:X;X4X2X}.B y B _.,XhX4X].b A T.wXZXMXMXmXmXcXmXCXCXCXMXCXZX",
"mXmXmXMXMX}.-XbXnX].{.qX!.! R R Q R Q ' '  XyXrXyX1X X X|.|.|..XiXiXyX*X4X=X{.T U B _.;X4X4X].C n A qXZXMXnXmXmXmXVXVXMXCXCXCXSX",
"mXcXmXmXMX<X-XqX{.t ; G.(.! W R W W ! ( ' ;XyXyXyX3XiXaXaXaXaXaXuXuXuX;X4X;XoXy y 9.`.:X4X4X].b n C 6XqX7X6XmXmXmXVXVXMXCXCXCXSX",
"AXcXmXmXnX7X-XE.N = = u /.` /.(.` ` ) ( ' ;XuXuX3X2X3XaX4XdXaX4XsXuXuX*X4X:X}.y 5 E _.>X,X3XW.b v n n C m V {.nXnXmXmXmXnXMXCXSX",
"mXcXVXVX7XK.Z m = = = y ( ( /./.( ( ( ( ' ;XaXaXaXdX4X4XBXfXBX4XsXsX4X;XsX:X}.V B V `.,X4X4X].m z z v z ; b L.qXqXVXcXVXMXCXCXSX",
"AXmXcXvXU.n v = = = = y Q./ /.(.Q./ / / / |..XoX1X1X1X1X1X1X1X1X1X.X.X`.;X XoX6X6XqXpXNXBXbX<Xt = z z = : V [.wXqXnX7XcXzXnXCXCX",
"AXmX7XU.C n z * = ; u S ].~.0.q.w.q.q.w.q.|.qXnXqXbXbXbXbXbXbXqXbX<X<X_.|.^..XNXNXNXNXqXNXNXpXP.t ; = = ; 9.J..XqX6XY.I.U.Y.E.6X",
"lXoX{.C v v z z t G.%X%X-X].q.8.9.5.w.V 9.K.I.G L.P.P.P.P.I.K.K.S V u.~.'.Q.{.7X7X9X7X6X6X<X<XwXR.C Z C C V u K.E.E.F H F F L.i.",
"U.L.D Z Z Z Z N P.=X-X%X=X0XW.A Z Z Z Z D D D Z D D D D A D A A Z Z Z A A A A D A A D A A G.J.qX6XG F D F F A G G H I.I.I.I.I.E.",
"{.8XE.T.I.I.Z S |.[.<X-XwXwXwXI.D F F G G G G G D D G G H H H H G G H H G G G G I.F G G A S P.P.H I.I.T.R.R.W.%X8X8X0X0X0X9X9XqX",
"J.[.#X#XW.W.I.S u G.[.-X<X-X<XW.E.#XW.8X8X8X#X#X#X8X8X8X8X8X8X8X$X8X9X9X9X9X-X%X9X9X%X%X-X8X8X0X8X8X9X0X8X8X0X0X8X9XE.E.E.E.6XE.",
"W.W.T.W.W.W.T.S B u j G.J.J.].W.8X#XW.8X8X8X8X8X8X8X8X8X8X8X8X8X8X-X9X0X9X9X9X-X9X0XW.-XW.}.E.E.E.E.E.E.E.E.E.Y.I.Y.U.U.s.i.a.s.",
"Y.Y.R.R.T.E.E.R.R.R.P.I.R.R.R.R.E.E.E.I.E.E.E.E.H E.E.E.E.E.E.E.R.E.E.R.R.Y.R.Y.Y.Y.Y.U.Y.U.U.U.U.U.U.U.U.s.s.s.s.a.s.y.y.r.y.y.",
"U.U.'.Y.Y.Y.L.Y.U.U.U.i.i.i.K.u.i.i.u.u.u.u.i.i.F i.i.F U.s.i.i.U.U.s.s.a.a.p.r.r.r.y.r.y.p.w.p.a.a.p.B.p.y.t.8.e.$.e. .e.$.e.t.",
"p.r.r.p.r.r.p.p.p.r.r.r.r.r.r.r.r.r.r.r.r.r.r.r.r.y.r.r.r.p.a.a.a.a.a.p.y.e.7.@.+.+.+.@.o.X.X.X.X.+.X.o.+.+.O. .#.#.#. .$.e.$.t.",
"6. . . . . .6.6.6.6.e.e.c 6.e.e.e.e.e.e.e.e.e.e.e. .e.e.6. .@. .@.#.@.@.+.+.X.X.+.X.X.O.X.X.X.+.O.+.+.+.+.O.+.+.O. .+.#. . .$.$."
};
