/* XPM */
static char * mountain_xpm[] = {
"64 64 183 2",
"  	c #2CA7E2",
". 	c #2BA8E0",
"+ 	c #2AACE8",
"@ 	c #2BA9DD",
"# 	c #26AAE2",
"$ 	c #2DA9D7",
"% 	c #35ADE8",
"& 	c #32A6E1",
"* 	c #33A2CD",
"= 	c #4DB9E5",
"- 	c #54BBEA",
"; 	c #5AB7E3",
"> 	c #5AB6E9",
", 	c #3BADE2",
"' 	c #2CA6DC",
") 	c #27A9DC",
"! 	c #4CBAEB",
"~ 	c #4EB5DB",
"{ 	c #55B6E3",
"] 	c #5BBBEA",
"^ 	c #52BDF2",
"/ 	c #4CBCF2",
"( 	c #26A6E0",
"_ 	c #3AA6DA",
": 	c #55C1EB",
"< 	c #56B9E4",
"[ 	c #55B6E9",
"} 	c #32ABE2",
"| 	c #34B1E5",
"1 	c #25A4DB",
"2 	c #3BABDC",
"3 	c #59B9E4",
"4 	c #56B8DD",
"5 	c #5CB9DD",
"6 	c #43B4EB",
"7 	c #2DA4D6",
"8 	c #32A5DB",
"9 	c #2D9ED2",
"0 	c #63B5E1",
"a 	c #46B2DD",
"b 	c #47B9F0",
"c 	c #44B3E4",
"d 	c #4CAEE2",
"e 	c #34A8D6",
"f 	c #55B5DD",
"g 	c #2CB0E7",
"h 	c #4CB5E4",
"i 	c #359FD2",
"j 	c #43ACDC",
"k 	c #4AB6EA",
"l 	c #32A9DC",
"m 	c #3CA4D5",
"n 	c #2DA1CE",
"o 	c #4DB3DD",
"p 	c #33A4D4",
"q 	c #5BB6DC",
"r 	c #55B5D7",
"s 	c #45B9EC",
"t 	c #3BAFEA",
"u 	c #46B9E6",
"v 	c #63BCE3",
"w 	c #63BADD",
"x 	c #3DB1E4",
"y 	c #65C1E4",
"z 	c #62B5DB",
"A 	c #7AC2E2",
"B 	c #75BFE1",
"C 	c #5CB3D6",
"D 	c #6EC1DE",
"E 	c #77C7E7",
"F 	c #75C0DE",
"G 	c #6ABFE8",
"H 	c #5BBEF3",
"I 	c #6DC1E4",
"J 	c #74C1E1",
"K 	c #64B5D6",
"L 	c #75BEDD",
"M 	c #76C1D6",
"N 	c #65C1EA",
"O 	c #5CC1EC",
"P 	c #7AC1DD",
"Q 	c #6CC4EA",
"R 	c #6CBDDD",
"S 	c #5FBAD7",
"T 	c #6E5B4E",
"U 	c #6BBEE2",
"V 	c #62BEE9",
"W 	c #AA9981",
"X 	c #AA9980",
"Y 	c #9A8971",
"Z 	c #79BEDC",
"` 	c #3CA9D5",
" .	c #AB9A78",
"..	c #7ABCD5",
"+.	c #72C5EA",
"@.	c #79BEE0",
"#.	c #56473E",
"$.	c #BDB193",
"%.	c #2E2723",
"&.	c #766454",
"*.	c #6DB9D5",
"=.	c #75BBD5",
"-.	c #9CE1FE",
";.	c #96D9F4",
">.	c #83C5E3",
",.	c #A2DDFB",
"'.	c #84725F",
").	c #97E0FF",
"!.	c #9CD7F9",
"~.	c #94D3EC",
"{.	c #A1D8EE",
"].	c #9DDAF3",
"^.	c #ACDCF2",
"/.	c #A2D7EE",
"(.	c #9DD5EC",
"_.	c #94D6F3",
":.	c #9ED9EE",
"<.	c #A3DAF2",
"[.	c #A2D6F1",
"}.	c #9BD6F2",
"|.	c #91CCE6",
"1.	c #78BCCF",
"2.	c #A2E1F6",
"3.	c #413630",
"4.	c #AAD6ED",
"5.	c #9CD3E6",
"6.	c #8CD2F1",
"7.	c #A89676",
"8.	c #81BEDA",
"9.	c #79B6D2",
"0.	c #A2D4E7",
"a.	c #ABD9EE",
"b.	c #86CDEB",
"c.	c #ADE0F5",
"d.	c #877561",
"e.	c #A8D7F3",
"f.	c #B4E0F4",
"g.	c #B5DEF3",
"h.	c #B4DFF8",
"i.	c #B4E1F9",
"j.	c #B9DDF2",
"k.	c #4C3F38",
"l.	c #B5DCEE",
"m.	c #B5E1EE",
"n.	c #BADFF9",
"o.	c #B9DDED",
"p.	c #C7E9F6",
"q.	c #CAE7FB",
"r.	c #B9D9E6",
"s.	c #56473D",
"t.	c #BEE0EF",
"u.	c #CAEBF9",
"v.	c #CBE9F4",
"w.	c #BCE1F3",
"x.	c #CBE6F1",
"y.	c #C4E5F4",
"z.	c #67574A",
"A.	c #C4E2EE",
"B.	c #CCE8EF",
"C.	c #D2E6F1",
"D.	c #DFF8FF",
"E.	c #CAE5EE",
"F.	c #C7E8EF",
"G.	c #BAE3F9",
"H.	c #D7F0F7",
"I.	c #DAEDF6",
"J.	c #C5E9FA",
"K.	c #473B34",
"L.	c #DBF1F7",
"M.	c #C3E6F9",
"N.	c #4C3E38",
"O.	c #D6F2FC",
"P.	c #DFF1FB",
"Q.	c #D3EBF5",
"R.	c #D4EEF9",
"S.	c #E2F1F6",
"T.	c #E1F2FA",
"U.	c #E1EFFB",
"V.	c #E1F9FF",
"W.	c #DCEFF9",
"X.	c #BEE8F6",
"Y.	c #CCF0FE",
"Z.	c #D1E3ED",
"  . +             @   @ @   .   @ # .   @   #     $ @     % & @ * = - ; > , & ' @ @ ) # @     @ .       @ # @ @ # @   .     @ . ",
"    # # .     @   . @     @   @ . # . @ . @ @     $ # +   , - ! ~ { ] ; ] - ^ = /   ( @ @ ' @       @   @ @ @ @ @ @ .       . . ",
"# # # # @ ( #     @   . @     @   # #   # @ @ @ . # + .   _ { { : < ] ; < { [ { - }   . . ' # @ @ #   . @ @ @ # @   .   @ @   . ",
") . ' | @ 1 # @ @   . # #   .   @   @ @       @ @   % & 2 < ; 3 < ; ; ; 4 5 ; 3 ] 6 }   } @ .     .   # @ . @ @ @   #         . ",
"' ' 7 8 9 } @ . @     # @   @         . .   . #   ) 7 8 - ] 0 4 ; < ; ; < < < ] - a 7 & }             . . .       # @   . # . . ",
"8 6 b / ^ 6   @ @ @ @ @ # @ @ @ @ @ @ . @ .     8 c ^ [ { ] ; 4 ; > ] < { < < < < < < b ' @ # . #     #     @ @       @ .   . . ",
"2 a = = < d 2 e 8 | @ ) )   e e e e e   ) . ( ) 2 f ; < - < { < < < < 4 < < < 5 5 < < { 2 ) #   g + % #     . #     . + . . ) . ",
"[ h { ] > { ! < > d i @ @ _ > > { > j &   + . $ k [ ] < > < ; < < 4 ; < ; < < < { < { { - @ . # ' l '   (   @     + .         . ",
"m ] { < 4 4 < 4 ; [ n @ 7 : ; ; ; 4 o (     } ! ; < < ] ; < { < ; < < < ; < < < > { < { - e   @ p - 2 }   . @       .     # ' . ",
"= < < < < ; q r r < : s = { < 4 4 < ~ ' # t c = ; < < < < { 3 < < ; < ] ; 3 3 ; ; 4 { < - ! b s h < : u 8 . # .   # . #     ) @ ",
"v v w w f ; v v v 5 { ; { ; < < - < o x , d o = > { < { > < < 3 < < 5 < < 3 3 w 0 y z < < ] - - < < < [ t '   #       . + .   . ",
"A B B B C D E F G z 5 ; < < > > > ; ; H ; 3 < < [ ; ; < < < < ] < < < < 5 < 3 I J J K ; < 4 ; 3 3 < C > [ 7 . @ @           )   ",
"L J J F F F F M B v ; ; < < ] - ; < ; < 3 ; ; 3 3 < 3 < < 3 3 < 5 3 ] f q - N F L A F 5 O : < > - < 3 3 < - @ $ $ 7   +   }     ",
"F F F F P F J F J Q y 4 : < < < < < < < ] ; ; 3 3 : 3 < < < ; < < 0 0 I D ] I A J F L R < < ; < < < < < { - ! = : - }   e @ @ . ",
"J P J J L P F F F J I S 4 < 3 < { = < ; 3 < ; ] 3 < 3 5 < - < T T T T T T T F F L F L F w < < ; ; 4 ; < < < O v U V h c h a e g ",
"F J F F P F P F F F F E w v 5 5 < - ; < 4 < < ] 3 q 0 V ~ T T W X X X X Y Y T T B L B P F v ] ; ; 5 ; 3 ] f D F Z D 5 - 4 : ` 2 ",
"F F L F F F P F F M F J L L J 0 ; < q < 4 < < 3 3 w B G T X X T T Y Y Y  .Y Y Y T F J J ..R v ; 5 5 z w I z F F F F y 3 4 < f { ",
"F B L A B F L F F Z L J J P U +.3 > < ; < < { 3 3 G @.#.$.Y Y Y Y T T Y Y Y Y X $.%.P J L J Q N w w J J J J D F F M I 3 < < 4 5 ",
"@.J J B B J P F F J J F F D P F y f 5 4 { ; v G G P F #.$.X Y Y Y Y Y Y Y X $.&.#.%.F J J L I I R J M F F P D E D Z J I q < 3 ; ",
"F F F F F F F F Z P Z Z M F P F E 5 R v ; w D D R F J #.&.$.$.X Y Y Y X $.$.&.#.#.#.F B F F J I J D F F L P J F F M J B y 4 3 0 ",
"J F F P P M J E M ....Z *.F B J R R F J z E F F F B T T &.&.Y $.$.$.$.$.&.#.#.#.#.#.T T @.F F J F J J F B @.L F D F F I J C z K ",
"J B =.-.;.F F F L >.,.,.Z F @.F F J L L J P M F T T X X &.&.&.&.Y Y Y #.#.#.#.#.#.'.Y Y T T F F F F E P -.Z Z F D F F F F P ).!.",
"B @.;.~.{.].L J A ].^./.~.J @.J A F B Z ].(._.T X Y Y Y Y &.&.&.&.Y #.#.#.#.#.#.'.Y Y Y Y Y T F F F ]._.].!.>.J F F F F Z :.<.[.",
"M ].:./.[./.M (.].[./.[.(.}.A L F F F ~.{.[.T X Y Y $.Y Y Y &.&.&.&.#.#.#.#.'.Y Y Y Y Y Y Y X %.F I ].{././.:.P M A B A |././.[.",
"M :./.[./.].1././././.(.(./.>.P P F L 2.:.#.X Y Y Y Y Y Y Y Y Y &.&.#.#.'.Y Y Y Y Y Y Y Y X 3.3.%.+.{.{.:./.:.P P L U Z :.[././.",
":.:././.4.5.:./.<.[.[./././.:.].M D 6.~.{.#.X Y Y Y Y Y $.$.Y Y 7.Y Y Y Y Y Y Y Y Y Y X $.3.3.3.%.8.].{./././.(.].!...9.}././.[.",
":././././.:.]././.:././.[.[.4.{.9.F P ^.0.#.$.$.X X $.$.Y Y Y Y Y Y Y Y Y Y Y Y X X X $.#.3.3.3.3.%.:./././.4.<.{.<.].{.:.[./.:.",
":././.:./.:.:././.:./.[.[.[.a./.].].b.{.#.&.&.Y $.$.X Y Y Y $.Y Y Y Y Y X X X '.'.&.&.#.#.3.3.3.3.%.{.]././.4.0./.a.c.4.<.[.[.:.",
"/./././.:.:.:.:././././././.{.[.<.5.b.5.#.&.d.&.&.Y $.X Y Y Y Y X X X &.&.'.'.Y X &.#.#.3.3.3.3.%.%.].{./.[.{.0.a.a.a.a.!./././.",
"0./.^./.].[.[.[.e.[.[./.(.:./.[././.[./.#.&.&.&.&.&.&.$.X X &.&.&.'.'.Y Y Y Y X $.#.#.#.3.&.Y Y Y %.:.<.{.0.0.4.f.g.g.h.^.{././.",
"f.i.[./././.4./.4.[././.:.].(././././.T T &.&.&.&.&.&.&.#.#.Y Y Y Y Y Y Y Y X $.#.#.#.3.&.Y Y Y Y Y %./.a.f.h.^.f.j.h.g.g.f.f.4.",
"j.j.^.e././.4.{.{./.{././.:././././.T X Y Y d.&.&.&.&.&.#.Y $.X Y Y Y Y Y X $.#.#.k.#.3.X X Y Y Y Y X %.l.h.g.f.g.g.h.g.h.g.g.g.",
"j.g.h.4./.0.4./.:./.[./././././.{.T X Y Y Y Y Y d.&.&.#.&.&.&.$.$.X X X $.$.#.#.#.#.#.3.&.$.$.X X X $.%.g.g.g.h.g.j.j.g.g.j.g.j.",
"g.j.f.0.4.h.h.h.i.g.0./././.[./.T X Y  .Y Y Y Y Y Y &.3.&.&.&.&.Y $.$.$.&.#.#.#.#.#.3.&.&.&.&.$.$.$.#.#.%.j.g.g.g.g.g.g.g.g.f.g.",
"m.l.c.0.h.n.h.n.n.j.h.<.:./.[.T $.X Y Y Y Y Y Y Y Y Y Y 3.&.&.&.&.&.Y &.#.#.#.#.#.&.&.&.&.&.&.&.&.&.#.#.%.j.n.j.j.g.g.g.g.c.m.^.",
"o.p.p.q.r.g.g.g.g.g.g.{.5.{.g.s.Y $.X Y Y Y 7.Y Y Y Y X 3.&.&.&.&.&.&.#.#.#.#.&.Y Y Y Y Y &.&.&.&.&.#.#.%.g.g.g.h.^.g.g.o.g.h.f.",
"t.u.p.v.o.g.g.g.g.g.h.a.a.<.g.s.&.Y $.X Y Y Y Y Y X X &.#.3.&.&.&.&.&.#.#.#.&.Y Y Y Y Y Y Y Y &.&.#.#.#.%.h.g.f.g.g.g.j.j.w.g.g.",
"v.v.u.v.v.g.l.g.g.g.g.h.f.g.s.&.&.&.Y $.X Y Y Y X $.&.#.#.3.#.#.#.#.&.#.#.#.$.Y Y Y Y Y Y Y Y Y Y #.#.#.#.%.g.g.h.o.o.o.v.p.o.l.",
"v.v.v.x.v.g.g.g.h.g.g.j.j.j.s.&.&.&.Y Y $.X Y X $.&.#.#.#.3.3.Y Y d.#.#.#.&.Y $.$.$.$.$.$.$.$.$.&.#.#.#.#.%.g.g.g.l.y.p.v.v.q.w.",
"v.v.v.v.p.g.g.g.j.g.g.m.g.l.s.&.z.&.Y &.Y $.$.$.&.#.#.k.#.3.Y Y Y Y Y d.#.&.&.Y $.Y Y Y Y $.&.#.#.#.#.#.3.%.g.g.g.A.v.v.B.v.v.v.",
"u.x.C.v.p.g.g.h.g.h.g.m.g.f.s.&.&.Y &.&.&.&.$.&.#.#.#.#.3.Y Y Y Y Y Y Y Y d.&.&.Y $.Y $.$.#.#.#.#.#.#.#.3.%.g.g.f.A.v.x.B.B.v.u.",
"D.E.F.F.F.o.g.l.g.g.G.o.o.j.s.&.&.Y &.&.&.&.Y #.#.#.#.3.Y Y Y Y $.Y Y Y Y Y d.&.&.Y $.&.#.#.#.#.%.#.#.#.3.3.%.w.w.F.u.v.H.v.F.p.",
"I.B.F.F.v.J.j.g.l.l.J.p.J.o.s.&.&.Y &.&.d.&.Y #.K.#.3.X Y Y Y Y Y Y 7.Y Y Y Y 3.&.&.Y #.#.#.#.#.%.#.#.#.3.3.%.v.u.v.B.B.F.B.B.y.",
"L.I.F.F.v.p.j.o.p.M.J.v.u.y.%.&.Y &.&.&.&.&.#.#.#.#.3.$.X X Y Y &.&.Y Y Y Y X 3.&.&.Y #.#.#.N.#.%.#.#.3.3.3.%.v.v.v.v.O.L.L.v.v.",
"P.L.v.v.p.u.y.y.p.q.u.v.u.p.w.%.Y &.&.&.&.Y #.#.#.3.3.Y $.$.&.&.Y Y Y Y X $.#.3.&.&.&.Y #.#.#.#.#.%.#.3.3.3.%.B.B.v.Q.L.D.D.R.Q.",
"S.L.v.v.p.x.u.R.v.v.v.v.y.u.o.u.%.&.&.&.&.Y #.3.3.3.&.&.&.#.$.$.X X X $.$.#.#.#.3.&.&.Y #.#.#.#.#.%.#.3.3.%.v.v.v.R.T.S.S.P.U.Q.",
"P.P.R.x.v.x.x.y.x.x.v.v.v.u.v.p.v.%.%.&.&.3.3.3.3.3.&.&.&.#.&.Y $.$.$.Y #.#.#.#.3.&.&.&.#.#.#.#.#.%.3.%.%.v.v.v.v.C.V.T.T.L.P.O.",
"W.P.W.C.v.v.v.p.R.v.B.F.v.v.p.p.u.v.v.%.%.3.3.3.3.%.&.&.#.&.&.&.Y Y #.#.#.#.N.#.3.&.&.&.&.N.#.#.3.%.%.v.x.v.B.v.W.W.T.P.P.T.P.P.",
"P.W.W.C.v.v.v.v.v.O.L.L.x.p.v.v.v.v.v.v.v.%.%.%.%.%.&.&.#.&.&.&.&.Y #.#.#.#.#.3.3.%.&.&.&.#.#.%.%.p.v.v.C.v.H.R.P.W.W.P.P.P.W.P.",
"P.P.T.C.v.v.v.v.Q.D.T.T.C.v.x.v.x.v.v.v.v.p.o.g.l.%.&.#.&.&.&.&.&.Y #.#.#.#.3.3.3.%.%.%.%.%.%.j.o.q.v.v.v.v.H.L.T.T.T.P.U.T.P.P.",
"T.P.P.P.v.x.x.I.T.P.S.U.O.R.v.v.v.v.v.v.v.v.y.o.l.%.&.#.&.z.&.&.&.&.Y #.#.3.3.3.%.v.v.v.p.X.M.o.v.v.v.v.x.v.L.L.T.T.T.T.T.P.P.P.",
"P.T.P.P.W.V.C.W.P.T.S.S.T.P.O.D.B.B.v.v.v.u.y.u.o.l.%.#.&.&.&.&.&.&.Y #.3.3.3.%.v.v.v.v.u.m.l.p.u.v.C.v.v.D.L.T.S.P.P.P.P.T.P.P.",
"P.P.P.P.P.V.P.V.U.T.T.L.W.U.D.D.L.L.v.v.v.v.v.p.p.A.q.%.%.&.&.&.&.&.Y 3.3.%.%.v.v.v.v.Q.p.X.J.u.p.v.v.x.P.O.L.U.S.T.P.P.P.T.T.T.",
"P.P.W.P.P.P.T.P.P.P.P.T.T.W.P.P.W.W.Q.Q.v.B.H.v.F.v.v.v.v.%.%.%.%.%.%.%.%.v.v.v.v.v.v.v.v.F.v.v.v.v.B.H.L.L.P.P.T.P.P.W.P.P.P.W.",
"P.T.P.P.T.T.T.P.T.T.T.P.P.P.P.P.T.W.R.u.v.Q.v.v.F.v.v.v.v.v.v.v.v.v.u.v.v.v.v.v.v.v.u.v.v.v.v.v.v.v.v.D.P.T.P.W.P.T.P.T.P.P.P.T.",
"P.P.P.W.W.P.P.U.P.W.W.T.P.T.P.T.T.W.D.D.P.Q.B.v.F.F.v.v.v.v.v.v.v.v.v.v.v.v.v.v.v.v.v.v.v.v.v.v.v.v.L.L.L.T.T.P.P.T.T.P.T.W.P.P.",
"T.T.T.P.W.W.P.P.W.T.P.T.W.P.T.P.P.P.P.P.P.P.R.v.v.v.v.v.v.v.v.v.v.v.v.v.v.v.v.u.v.v.v.v.v.v.v.v.v.v.W.P.T.T.T.T.P.T.T.P.P.W.P.P.",
"P.T.P.T.P.P.P.T.P.P.T.T.P.P.P.T.T.P.L.P.T.P.W.v.C.v.v.v.v.v.v.v.v.v.v.v.v.Y.v.v.v.v.Y.v.v.v.v.v.v.u.O.W.T.T.T.T.W.P.P.P.T.P.U.T.",
"U.T.P.P.T.T.T.T.P.P.T.P.P.P.P.P.W.W.T.T.P.P.R.v.v.v.v.v.v.v.v.v.v.v.v.v.v.v.v.v.v.v.v.v.v.v.v.v.v.Q.O.W.T.U.P.P.P.T.T.P.P.W.P.P.",
"P.P.P.P.P.P.P.P.P.P.T.P.T.P.W.P.T.P.P.P.W.D.Q.B.F.v.v.v.v.v.v.v.v.v.v.v.u.v.v.v.v.v.v.v.v.B.V.V.W.W.P.W.P.P.T.T.P.U.T.T.T.P.P.P.",
"P.P.T.P.U.P.T.P.P.T.P.T.P.P.P.P.P.T.P.W.P.S.O.B.v.v.v.v.v.v.u.v.v.v.v.v.v.v.v.v.v.v.v.v.v.D.T.U.T.T.P.P.W.T.T.P.T.W.P.T.W.P.T.W.",
"P.W.T.T.P.P.P.P.W.P.T.P.P.P.T.T.P.T.P.T.P.T.P.x.x.F.v.v.v.v.v.v.v.v.v.v.v.v.v.v.v.v.v.C.P.L.T.P.P.P.W.T.T.T.T.P.T.P.P.P.P.P.T.T.",
"T.U.W.T.P.T.T.T.P.W.P.P.T.W.P.P.P.P.P.P.T.T.T.Q.v.v.v.v.v.v.v.v.v.v.v.v.v.u.v.v.v.v.v.C.T.T.P.T.T.P.P.P.P.P.P.U.T.P.T.P.P.W.T.P.",
"Z.C.T.P.W.P.W.P.W.P.P.P.P.P.T.T.P.P.P.W.P.U.P.W.u.v.v.v.v.v.v.v.v.v.v.v.v.v.v.v.v.v.v.W.P.S.T.T.P.W.W.P.P.T.T.T.P.T.P.T.T.P.U.T."};
