/* XPM */
static char * mountain_xpm[] = {
"64 64 185 2",
"  	c #DDF0FB",
". 	c #DFF1FB",
"+ 	c #DEF1FB",
"@ 	c #DCEFFA",
"# 	c #DDF0FA",
"$ 	c #DCF0FA",
"% 	c #DBEFFA",
"& 	c #6E5B4E",
"* 	c #AA9981",
"= 	c #AA9980",
"- 	c #9A8971",
"; 	c #AB9A78",
"> 	c #56473E",
", 	c #C1B9A3",
"' 	c #2E2723",
") 	c #D4ECF9",
"! 	c #766454",
"~ 	c #CCE8F7",
"{ 	c #D5ECF9",
"] 	c #C0B9A3",
"^ 	c #DEF0FB",
"/ 	c #DAEEFA",
"( 	c #D9EEFA",
"_ 	c #84725F",
": 	c #DBF0FA",
"< 	c #D8EEF9",
"[ 	c #CEE9F6",
"} 	c #D1EBF6",
"| 	c #CFEBF6",
"1 	c #D7EEF8",
"2 	c #DAEFF9",
"3 	c #D9EEF9",
"4 	c #D3ECF7",
"5 	c #CCE9F5",
"6 	c #DBEFF9",
"7 	c #D5EDF7",
"8 	c #413630",
"9 	c #CBE9F4",
"0 	c #CBE9F5",
"a 	c #CEEAF6",
"b 	c #D0EBF6",
"c 	c #CFEAF5",
"d 	c #CDEAF5",
"e 	c #CFEBF5",
"f 	c #D2ECF7",
"g 	c #D9EFF9",
"h 	c #D4ECF7",
"i 	c #CEEAF5",
"j 	c #BFB8A2",
"k 	c #A89676",
"l 	c #CAE9F4",
"m 	c #CCE9F4",
"n 	c #CAE8F4",
"o 	c #C4E6F3",
"p 	c #C5E6F4",
"q 	c #877561",
"r 	c #B7AB8E",
"s 	c #B4A88C",
"t 	c #C8E8F4",
"u 	c #C1E4F4",
"v 	c #BEB8A2",
"w 	c #BAAD90",
"x 	c #B6AA8D",
"y 	c #C6E7F4",
"z 	c #C7E7F4",
"A 	c #B7DFF3",
"B 	c #BFE3F3",
"C 	c #C9E8F4",
"D 	c #BBAF91",
"E 	c #C8E7F3",
"F 	c #BFE2F3",
"G 	c #C3E5F4",
"H 	c #BCE1F2",
"I 	c #B4DDF2",
"J 	c #B6DEF3",
"K 	c #C8E7F4",
"L 	c #B5A98D",
"M 	c #B5A98C",
"N 	c #B4A98C",
"O 	c #4C3F38",
"P 	c #B8E0F3",
"Q 	c #B8DFF3",
"R 	c #BCE2F3",
"S 	c #A6D6EF",
"T 	c #A9D7ED",
"U 	c #BCE1F3",
"V 	c #C2E4F3",
"W 	c #C7E6F4",
"X 	c #BCB7A1",
"Y 	c #B5DEF3",
"Z 	c #C4E5F4",
"` 	c #98CDEB",
" .	c #BAE0F0",
"..	c #C0E3F2",
"+.	c #C4E6F4",
"@.	c #C2E4F4",
"#.	c #BEB8A1",
"$.	c #C9E8F3",
"%.	c #C3E4F3",
"&.	c #B4DEF2",
"*.	c #AFDAF0",
"=.	c #86C4E0",
"-.	c #95CEE7",
";.	c #A6D5EC",
">.	c #BAE3FE",
",.	c #BDB7A1",
"'.	c #BDE2F3",
").	c #B5DDF3",
"!.	c #B1DCF2",
"~.	c #A9D7EE",
"{.	c #A7E1FF",
"].	c #A0D8F9",
"^.	c #79C0E2",
"/.	c #89C5E4",
"(.	c #A7DBF4",
"_.	c #ADDBF1",
":.	c #56473D",
"<.	c #B1DBF1",
"[.	c #ACD9EF",
"}.	c #A5D5ED",
"|.	c #9CD0E9",
"1.	c #A6DBF0",
"2.	c #A5DBF2",
"3.	c #A2D6F1",
"4.	c #76C1D6",
"5.	c #9EDAF3",
"6.	c #A1DAEF",
"7.	c #A8D9EF",
"8.	c #BBB6A1",
"9.	c #90CBE8",
"0.	c #87C7E5",
"a.	c #86C7E5",
"b.	c #A3D7EE",
"c.	c #A2D7EE",
"d.	c #9ED9EE",
"e.	c #BAB6A1",
"f.	c #6CBEE2",
"g.	c #79BEDC",
"h.	c #B8AC8F",
"i.	c #7ABCD5",
"j.	c #79B6D2",
"k.	c #9BD6F2",
"l.	c #67574A",
"m.	c #9DDAF3",
"n.	c #A1D8EE",
"o.	c #ADE0F5",
"p.	c #AAD6ED",
"q.	c #A3DAF2",
"r.	c #ABD9EE",
"s.	c #9CD7F9",
"t.	c #A2D4E7",
"u.	c #ACDCF2",
"v.	c #473B34",
"w.	c #B4DFF8",
"x.	c #B4E0F4",
"y.	c #B4E1F9",
"z.	c #4C3E38",
"A.	c #B9DDF2",
"B.	c #A8D7F3",
"C.	c #B5E1EE",
"D.	c #B5DCEE",
"E.	c #B9DDED",
"F.	c #C7E9F6",
"G.	c #CAE7FB",
"H.	c #BCB7A2",
"I.	c #BEE0EF",
"J.	c #CAEBF9",
"K.	c #BCB092",
"L.	c #BDB7A0",
"M.	c #C7E8EF",
"N.	c #BEB8A3",
"O.	c #CCE8EF",
"P.	c #BDB193",
"Q.	c #D3EBF5",
"R.	c #D6F2FC",
"S.	c #DCEFF9",
"T.	c #BDB295",
"U.	c #E1EFFB",
"V.	c #E1F2FA",
"W.	c #E2F1F6",
"X.	c #E1F9FF",
"Y.	c #DBF1F7",
"Z.	c #DFF8FF",
"`.	c #D2E6F1",
" +	c #D1E3ED",
"  . . . . . . . . . . . . . . . . . . . . . . . . . . . . . . . . . . . . . . . . . . +   @ @ @ @ @ # + . . . . . + $ %   + . . ",
". . . . . . . . . . . . . . . . . . . . & & & & & & & . . . . . . . . & & & & & & & . . . . . + + + . . . . . . . . . . . . . . ",
". . . . . . . . . . . . . . . . . . & & * = = = = - - & & . . . . & & * = = = = - - & & . + + + + + . . . . . . . . . . . . . . ",
". . . . . . . . . . . . . . . . . & = = & & - - - ; - - - & . . & = = & & - - - ; - - - & . . . . . . . . + # . . . . . . . . + ",
". . . . . . . . . . . . . . . . > , - - - - & & - - - - = , ' > , - - - - & & - - - - = , ' . . . . . . . .   . . . . . . . % ) ",
". . . . . . . . . . . . . . . . > , = - - - - - - - = , ! > ' > , = - - - - - - - = , ! > ' . . . . . . . . . . . . . . . .   ~ ",
". . . . . . . . . . . . . . . . > ! , , = - - - = , , ! > > > > ! , , = - - - = , , ! > > > . . . . . . . . . . . + . . . . . { ",
". . . . . . . . . . . . . . . & & ! ! - , , , ] , ! > > > > > & & ! - , , , , , ! > > > > > & & . . . . . ^ . . . $ / + . . . ( ",
"^ . . . . . . . + + . . . & & = = ! ! ! ! - - - > > > > > > _ - - & & ! - - - > > > > > > _ - - & & + . . # . . . +   ^ . . . { ",
"^ . . . . . . . . . . . & = - - - - ! ! ! ! - > > > > > > _ - - - - - & ! - > > > > > > _ - - - - - & $ : < $ + . . . . + . % [ ",
". . . . . . . .   # ^ & = - - , - - - ! ! ! ! > > > > _ - - - - - - - = ' ! > > > > _ - - - - - - - = ' } | } 1 % $ : % 2 3 4 5 ",
"% $ % 6 # . . $ 1 7 > = - - - - - - - - - ! ! > > _ - - - - - - - - = 8 8 ' > > _ - - - - - - - - = 8 8 ' 9 9 0 a b } b b c d 9 ",
"b } b e f 1 g h i d > = - - - - - j j - - k - - - - - - & & & & & & & 8 8 ' - - - - - - - - - = j 8 8 8 ' 9 9 9 9 9 9 9 9 9 9 l ",
"9 9 9 9 m d i d 9 9 > j j = = j j - - - - - - - - - & & * = = = = - - & & 8 ' - - - - - = = = j > 8 8 8 8 ' 9 9 9 9 9 9 9 9 n o ",
"9 9 9 9 9 l 9 9 9 > ! ! - j j = - - - j - - - - - & = = & & - - - ; - - - & ' - = = = _ _ ! ! > > 8 8 8 8 ' 9 9 9 9 9 9 9 l n p ",
"n 9 9 9 9 9 9 9 9 > ! q ! ! - j = - - - - = = = > r - - - - & & - - - - = s ' ! ! _ _ - = ! > > 8 8 8 8 ' ' 9 9 9 9 9 9 9 n 9 t ",
"u n 9 9 9 9 9 9 9 > ! ! ! ! ! ! v = = ! ! ! _ _ > w = - - - - - - - = w ! > ' - - - - = x > > > 8 ! - - - ' 9 9 9 9 9 9 n y l z ",
"A B C 9 9 9 9 9 & & ! ! ! ! ! ! ! > > - - - - - > ! w D = - - - = r w ! > > > ' - - = D > > > 8 ! - - - - - ' 9 9 9 9 E F F G H ",
"I J B K 9 9 9 & = - - q ! ! ! ! ! > - x = - - & & ! ! - L L M L N ! > > > > > & & = w > > O > 8 = = - - - - = ' 9 9 C P Q G R S ",
"T I J U V W & = - - - - - q ! ! > ! ! ! D & & = = ! ! ! ! - - - > > > > > > _ - - & & > > > > 8 ! s X = = = j ' 9 9 E Y Q G Z ` ",
" ...B +.@.& = - ; - - - - - - ! 8 ! ! ! & = - - - - ! ! ! ! - > > > > > > _ - - - - - & > > 8 ! ! ! ! X #.v > > ' $.%.J Y &.*.=.",
"-.;. .>.& ,.= - - - - - - - - - - 8 ! & = - - w - - - ! ! ! ! > > > > _ - - - - - - - = ' ! ! ! ! ! ! ! ! ! > > ' '.B ).!.~.{.].",
"^./.(._.:.- #.= - - - k - - - - = 8 > = - - - - - - - - - ! ! > > _ - - - - - - - - = 8 8 ' - - - ! ! ! ! ! > > ' <.[.}.|.1.2.3.",
"4.5.6.7.:.! - 8.= - - - - - = = ! > > = - - - - - L L - - k - - - - - - - - - - = s 8 8 8 ' - - - - - ! ! > > > ' 9.0.a.-.b.c.3.",
"4.d.c.:.! ! ! - e.= - - - = r ! > > > L L = = r L - - - - - - - - - - - - = = = L > 8 8 8 8 ' - - - - - - > > > > ' f.g.d.3.c.c.",
"d.d.c.:.! ! ! - - e.= - = D ! > > > ! ! - w h.= - - - w - - - - - = = = _ _ ! ! > > 8 8 8 8 ' w w w w w ! > > > > ' i.j.k.c.c.3.",
"d.c.c.:.! l.! - ! - D w w ! > > O > ! q ! ! - w = - - - - = = = ! ! _ _ - = ! > > 8 8 8 8 ' ' - - w ! > > > > > 8 ' m.n.d.3.c.d.",
"d.c.c.:.! ! - ! ! ! ! w ! > > > > > ! ! ! ! ! ! w = = ! ! ! _ _ - - - - = L > > > 8 ! - - - ' w w > > > > > > > 8 ' o.p.q.3.3.d.",
"c.c.c.:.! ! - ! ! ! ! - > > > > & & ! ! ! ! ! ! ! > > - - - - - - - - = L > > > 8 ! - - - - - ' > > > > ' > > > 8 8 ' r.s.c.c.c.",
"t.c.u.:.! ! - ! ! q ! - > v.> & = - - q ! ! ! ! ! > - w = - - - - - = L > > O > 8 = = - - - - = ' > > > ' > > > 8 8 ' w.u.n.c.c.",
"x.y.3.' ! - ! ! ! ! ! > > > & = - - - - - q ! ! > ! ! ! N r = = = L L > > > > > 8 ! N s = = = L ' > z.> ' > > 8 8 8 ' Y Y x.x.p.",
"A.A.u.B.' - ! ! ! ! - > > & = - ; - - - - - - ! 8 ! ! ! ! - r r w ! > > > > > 8 ! ! ! ! r r r > > ' > > > ' > 8 8 8 ' Y w.Y Y Y ",
"A.Y w.p.c.' ! ! ! ! - > & N = - - - - - - - - - - 8 ! ! ! ! ! - ! > > > > > ! ! ! ! ! ! ! ! ! > > ' > > > ' > 8 8 ' ' Y Y A.Y A.",
"Y A.x.t.p.w.' ' ! ! 8 8 :.- N = - - - k - - - - = 8 ! ! ! ! ! ! > > > > ! - - - - - ! ! ! ! ! > > ' > > > ' 8 ' ' - = ' Y Y x.Y ",
"C.D.o.t.w.& & ! ' ' 8 8 :.! - r = - - - - - = = ! > 8 ! ! ! ! ! > > > ! - - - - - - - - ! ! > > > ' > > 8 ' ' = = = X ' Y o.C.u.",
"E.F.F.G.& = - - q ! ' :.! ! ! - r = - - - = w ! > > 8 > > > > ! > > > L - - - - - - - - - - > > > > ' ' ' ! ! X H.8.> > ' Y w.x.",
"I.J.F.& = - - - - - q :.! ! ! - - r = - = r ! > > > 8 8 - - q > > > ! - w w w w D K.N N N ! > > > > ' ! ! ! ! ! ! ! > > ' U Y Y ",
"9 9 & = - ; - - - - - :.! l.! - ! - x r r ! > > O > 8 - - - - - q > ! ! - D - - - - N ! > > > > > 8 ' - - ! ! ! ! ! > > ' F.E.D.",
"9 & j = - - - - - - - :.! ! - ! ! ! ! r ! > > > > 8 - - - - - - - - q ! ! - r - L L > > > > > > > 8 ' - - - - ! ! > > > ' 9 G.U ",
"9 :.- j = - - - k - - :.! ! - ! ! ! ! - > > > > 8 - - - - D - - - - - q ! ! - L ! > > > > ' > > > 8 8 ' - - - - - > > > > ' 9 9 ",
"J.:.! - v = - - - - - :.! ! - ! ! q ! - > v.> 8 = - - - - - - k - - - - 8 ! ! - > > > > > ' > > > 8 8 ' X X X X ! > > > > ' 9 J.",
":.! ! ! - L.= - - - = ' ! - ! ! ! ! ! > > > > 8 r = = - - ! ! - - - - = 8 ! ! - > > > z.> ' > > 8 8 8 ' - X ! > > > > > 8 ' M.F.",
":.! ! ! - - ,.= - = N.! ' - ! ! ! ! - > > > 8 8 - L w ! ! - - - - = D > 8 ! ! ! - > > > > > ' > 8 8 8 ' ,.> > > > > > > 8 ' O.Z ",
":.! l.! - ! - L.v v ! > > ' ! ! ! ! - > 8 8 8 ! ! ! > r P.= = = D K.> > > 8 ! ! - > > > > > ' > 8 8 ' ! > > > > ' > > > 8 8 ' 9 ",
":.! ! - ! ! ! ! v ! > > > & ' ' ! ! 8 8 8 8 8 ! ! ! > ! - w P.K.- > > > > 8 ! ! ! > > > > > ' 8 ' ' - > > > > > ' > > > 8 8 ' Q.",
":.! ! - ! ! ! ! - > > > & N = - ' ' 8 8 8 8 ' ! ! > ! ! ! - - > > > > z.> 8 ! ! ! ! z.> > 8 ' ' > ' - > > > z.> ' > > 8 8 8 ' Q.",
":.! ! - ! ! q ! - > v.> :.- w = - - ' ' ' ' ' ! ! > ! ! ! ! - > > > > > 8 8 ' ! ! ! > > ' ' ! > > ' ! - > > > > > ' > 8 8 8 ' R.",
"' ! - ! ! ! ! ! > > > > :.! - D = - - - - - ' ! > ! ! ! ! ! - > > > > 8 8 8 ' ' ' ' ' ' ! ! > > > ' ! - > > > > > ' > 8 8 ' . . ",
". ' - ! ! ! ! - > > > :.! ! ! - r = - - - = ' ! > ! l.! ! ! ! - > > 8 8 8 ' - - - - - - - - > > > > ' ! > > > > > ' 8 ' ' . S.. ",
". . ' ! ! ! ! - > 8 8 :.! ! ! - - T.= - = T.! ' > ! ! ! ! ! ! - > 8 8 8 ' N N s w w L L L ! > > > > ' ! ! z.> > 8 ' ' . U.V.. . ",
"V.. . ' ' ! ! 8 8 8 8 :.! l.! - ! - T.T.T.! > > ' ' ! ! ! ! ! - 8 8 ' ' - s - - - - L ! > > > > > 8 ' ! ! > > ' ' V.V.V.V.. . . ",
". V.. . S.' ' 8 8 8 8 :.! ! - ! ! ! ! w ! > > > > 8 ' ' ' ' ' ' ' ' q ! ! - r - r w > > > > > > > 8 ' ' ' ' ' V.W.. . . . V.. . ",
". . . . . X.. ' ' ' ' :.! ! - ! ! ! ! - > > > > 8 - - - - r - - - - - q ! ! - r ! > > > > ' > > > 8 8 ' . R.Y.U.W.V.. . . V.V.V.",
". . S.. . . V.. . . . :.! ! - ! ! q ! - > v.> 8 = - - - - - - k - - - - 8 ! ! - > > > > > ' > > > 8 8 ' Y.Y.. . V.. . S.. . . S.",
". V.. . V.V.V.. V.V.V.' ! - ! ! ! ! ! > > > > 8 N = = - - ! ! - - - - = 8 ! ! - > > > z.> ' > > 8 8 8 ' . V.. S.. V.. V.. . . V.",
". . . S.S.. . U.. S.S.V.' - ! ! ! ! - > > > 8 8 - s j ! ! - - - - = j > 8 ! ! ! - > > > > > ' > 8 8 8 ' Y.V.V.. . V.V.. V.S.. . ",
"V.V.V.. S.S.. . S.V.. V.S.' ! ! ! ! - > 8 8 8 ! ! ! > j j = = = j j > > > 8 ! ! - > > > > > ' > 8 8 ' . V.V.V.V.. V.V.. . S.. . ",
". V.. V.. . . V.. . V.V.. . ' ' ! ! 8 8 8 8 8 ! ! ! > ! - j j j - > > > > 8 ! ! ! > > > > > ' 8 ' ' R.S.V.V.V.V.S.. . . V.. U.V.",
"U.V.. . V.V.V.V.. . V.. . . . . ' ' 8 8 8 8 ' ! ! > ! ! ! - - > > > > z.> 8 ! ! ! ! z.> > 8 ' ' 9 Q.R.S.V.U.. . . V.V.. . S.. . ",
". . . . . . . . . . V.. V.. S.. V.. ' ' ' ' ' ! ! > ! ! ! ! - > > > > > 8 8 ' ! ! ! > > ' ' X.X.S.S.. S.. . V.V.. U.V.V.V.. . . ",
". . V.. U.. V.. . V.. V.. . . . . V.. S.. W.' ! > ! ! ! ! ! - > > > > 8 8 8 ' ' ' ' ' ' 9 Z.V.U.V.V.. . S.V.V.. V.S.. V.S.. V.S.",
". S.V.V.. . . . S.. V.. . . V.V.. V.. V.. V.' ! > ! l.! ! ! ! - > > 8 8 8 ' 9 9 9 9 9 `.. Y.V.. . . S.V.V.V.V.. V.. . . . . V.V.",
"V.U.S.V.. V.V.V.. S.. . V.S.. . . . . . V.V.V.' > ! ! ! ! ! ! - > 8 8 8 ' J.9 9 9 9 9 `.V.V.. V.V.. . . . . . U.V.. V.. . S.V.. ",
" +`.V.. S.. S.. S.. . . . . V.V.. . . S.. U.. S.' ' ! ! ! ! ! - 8 8 ' ' 9 9 9 9 9 9 9 S.. W.V.V.. S.S.. . V.V.V.. V.. V.V.. U.V."};
