/* XPM */
static char * shenron_xpm[] = {
"64 64 359 2",
"  	c #2CA7E2",
". 	c #2BA8E0",
"+ 	c #2AACE8",
"@ 	c #2BA9DD",
"# 	c #26AAE2",
"$ 	c #2DA9D7",
"% 	c #35ADE8",
"& 	c #32A6E1",
"* 	c #33A2CD",
"= 	c #4DB9E5",
"- 	c #54BBEA",
"; 	c #5AB7E3",
"> 	c #5AB6E9",
", 	c #3BADE2",
"' 	c #2CA6DC",
") 	c #27A9DC",
"! 	c #4CBAEB",
"~ 	c #4EB5DB",
"{ 	c #CE8409",
"] 	c #5BBBEA",
"^ 	c #06A736",
"/ 	c #12A645",
"( 	c #52BDF2",
"_ 	c #4CBCF2",
": 	c #26A6E0",
"< 	c #3AA6DA",
"[ 	c #55B6E3",
"} 	c #55C1EB",
"| 	c #56B9E4",
"1 	c #B8E927",
"2 	c #B5F201",
"3 	c #C2FA08",
"4 	c #B9E736",
"5 	c #BAF402",
"6 	c #BAF30B",
"7 	c #34B1E5",
"8 	c #25A4DB",
"9 	c #3BABDC",
"0 	c #59B9E4",
"a 	c #A87216",
"b 	c #B3ED02",
"c 	c #8DB22D",
"d 	c #E7FD74",
"e 	c #6F6C32",
"f 	c #EBEEB5",
"g 	c #F5FBAC",
"h 	c #FDF7D8",
"i 	c #B5EC13",
"j 	c #A9D828",
"k 	c #B4ED0B",
"l 	c #2DA4D6",
"m 	c #32A5DB",
"n 	c #2D9ED2",
"o 	c #32ABE2",
"p 	c #63B5E1",
"q 	c #CC7C08",
"r 	c #ECB736",
"s 	c #F5FBB3",
"t 	c #372703",
"u 	c #FCFDBB",
"v 	c #ABE609",
"w 	c #B5F10B",
"x 	c #43B4EB",
"y 	c #47B9F0",
"z 	c #C3F918",
"A 	c #B0AC72",
"B 	c #44B3E4",
"C 	c #A77528",
"D 	c #FBFDB4",
"E 	c #BBFA05",
"F 	c #BAF418",
"G 	c #161705",
"H 	c #FCFBC6",
"I 	c #9AC72D",
"J 	c #46B2DD",
"K 	c #4CAEE2",
"L 	c #34A8D6",
"M 	c #D5F26B",
"N 	c #F7F5B8",
"O 	c #ACE502",
"P 	c #75A817",
"Q 	c #B7EA19",
"R 	c #89B411",
"S 	c #ECC34D",
"T 	c #8E5628",
"U 	c #173800",
"V 	c #6CAC02",
"W 	c #78A726",
"X 	c #5CB9DD",
"Y 	c #6BB203",
"Z 	c #D6D3A9",
"` 	c #E8E9A8",
" .	c #B8EB07",
"..	c #55B6E9",
"+.	c #4CB5E4",
"@.	c #359FD2",
"#.	c #43ACDC",
"$.	c #557903",
"%.	c #BBF313",
"&.	c #AECE60",
"*.	c #CBF14D",
"=.	c #56B8DD",
"-.	c #BCF326",
";.	c #75A908",
">.	c #EA150A",
",.	c #B12812",
"'.	c #D81506",
").	c #B01B0E",
"!.	c #AAD737",
"~.	c #F9F8A8",
"{.	c #C6F537",
"].	c #3CA4D5",
"^.	c #2DA1CE",
"/.	c #FDEC9D",
"(.	c #FEECA2",
"_.	c #FAEBB5",
":.	c #11A738",
"<.	c #EAC96D",
"[.	c #E5BA4A",
"}.	c #EEB64E",
"|.	c #E9BA4B",
"1.	c #E4BA52",
"2.	c #648A05",
"3.	c #E9FD88",
"4.	c #C4F627",
"5.	c #55B5D7",
"6.	c #45B9EC",
"7.	c #E7B956",
"8.	c #E4BB45",
"9.	c #354902",
"0.	c #DBE89A",
"a.	c #95CA0E",
"b.	c #6AA807",
"c.	c #02020A",
"d.	c #8F8B52",
"e.	c #92702C",
"f.	c #72AC02",
"g.	c #46B9E6",
"h.	c #C4EC2A",
"i.	c #63BCE3",
"j.	c #C4EB37",
"k.	c #63BADD",
"l.	c #55B5DD",
"m.	c #ACE516",
"n.	c #FDECAB",
"o.	c #4DB3DD",
"p.	c #3DB1E4",
"q.	c #D12E15",
"r.	c #073502",
"s.	c #B4DB38",
"t.	c #4A7502",
"u.	c #090907",
"v.	c #000000",
"w.	c #160A04",
"x.	c #4F340A",
"y.	c #2B110B",
"z.	c #3BAFEA",
"A.	c #7AC2E2",
"B.	c #75BFE1",
"C.	c #5CB3D6",
"D.	c #6EC1DE",
"E.	c #77C7E7",
"F.	c #75C0DE",
"G.	c #62B5DB",
"H.	c #EBDAA9",
"I.	c #5BBEF3",
"J.	c #76B316",
"K.	c #AE9251",
"L.	c #171816",
"M.	c #D8B03B",
"N.	c #75BEDD",
"O.	c #74C1E1",
"P.	c #76C1D6",
"Q.	c #F7E7A6",
"R.	c #527014",
"S.	c #022400",
"T.	c #D1AB4F",
"U.	c #080713",
"V.	c #371801",
"W.	c #7AC1DD",
"X.	c #65C1E4",
"Y.	c #EB3025",
"Z.	c #BAE646",
"`.	c #6CA715",
" +	c #6DC1E4",
".+	c #699818",
"++	c #E8C257",
"@+	c #DCB749",
"#+	c #714D0E",
"$+	c #5CC1EC",
"%+	c #6BBEE2",
"&+	c #62BEE9",
"*+	c #2CB0E7",
"=+	c #CF140B",
"-+	c #4D4E0D",
";+	c #F92507",
">+	c #264800",
",+	c #DBB857",
"'+	c #8D1707",
")+	c #79BEDC",
"!+	c #3CA9D5",
"~+	c #5BB6DC",
"{+	c #ECF5A8",
"]+	c #071703",
"^+	c #172802",
"/+	c #76A82D",
"(+	c #1B4400",
"_+	c #D9B966",
":+	c #26A54A",
"<+	c #2A5500",
"[+	c #C2EC12",
"}+	c #366A07",
"|+	c #271802",
"1+	c #A9D90C",
"2+	c #79BEE0",
"3+	c #ACF403",
"4+	c #04A72C",
"5+	c #365801",
"6+	c #ADEB01",
"7+	c #3D3944",
"8+	c #AFD44B",
"9+	c #263801",
"0+	c #B4EB2F",
"a+	c #EBFA98",
"b+	c #075114",
"c+	c #524F2B",
"d+	c #6F942B",
"e+	c #256D36",
"f+	c #466902",
"g+	c #F6F99A",
"h+	c #FBFBFB",
"i+	c #D5D4D4",
"j+	c #CDB16E",
"k+	c #262519",
"l+	c #167635",
"m+	c #AAD02F",
"n+	c #64B5D6",
"o+	c #75BBD5",
"p+	c #9CE1FE",
"q+	c #56702A",
"r+	c #6E1206",
"s+	c #272703",
"t+	c #07792A",
"u+	c #5C5A55",
"v+	c #C82645",
"w+	c #B22E46",
"x+	c #36340E",
"y+	c #135428",
"z+	c #364E16",
"A+	c #598602",
"B+	c #AAAA5C",
"C+	c #97E0FF",
"D+	c #96D9F4",
"E+	c #A1D8EE",
"F+	c #92B04B",
"G+	c #73714B",
"H+	c #D0CD93",
"I+	c #55312A",
"J+	c #F2ECCD",
"K+	c #FA5D7D",
"L+	c #EA4E6C",
"M+	c #480701",
"N+	c #0A7933",
"O+	c #5C921B",
"P+	c #A8D918",
"Q+	c #94916A",
"R+	c #9CD7F9",
"S+	c #83C5E3",
"T+	c #A2D6F1",
"U+	c #9DDAF3",
"V+	c #9ED9EE",
"W+	c #A2D7EE",
"X+	c #689804",
"Y+	c #F3EC90",
"Z+	c #B38A2F",
"`+	c #F9E899",
" @	c #501704",
".@	c #14762B",
"+@	c #072A02",
"@@	c #F5F2E7",
"#@	c #E92B11",
"$@	c #32322E",
"%@	c #046D16",
"&@	c #CAB88B",
"*@	c #FA1C06",
"=@	c #E5BB67",
"-@	c #CF2245",
";@	c #106929",
">@	c #EDD891",
",@	c #F82715",
"'@	c #999824",
")@	c #A29F9C",
"!@	c #570801",
"~@	c #ADE0F5",
"{@	c #AAD6ED",
"]@	c #A3DAF2",
"^@	c #CD942C",
"/@	c #AC986C",
"(@	c #462802",
"_@	c #E6B748",
":@	c #ABD9EE",
"<@	c #A2D4E7",
"[@	c #ACDCF2",
"}@	c #A8D7F3",
"|@	c #9DD5EC",
"1@	c #99725B",
"2@	c #B4DFF8",
"3@	c #B4E0F4",
"4@	c #B5DEF3",
"5@	c #B9DDF2",
"6@	c #B5DCEE",
"7@	c #B4E1F9",
"8@	c #B5E1EE",
"9@	c #BADFF9",
"0@	c #AEE2FB",
"a@	c #B9DDED",
"b@	c #C7E9F6",
"c@	c #9CD3E6",
"d@	c #B2D7E9",
"e@	c #BEE0EF",
"f@	c #CAEBF9",
"g@	c #BCE1F3",
"h@	c #CBE9F4",
"i@	c #CF302A",
"j@	c #C4E5F4",
"k@	c #CAE7FB",
"l@	c #CCE8EF",
"m@	c #C4E2EE",
"n@	c #CBE6F1",
"o@	c #DFF8FF",
"p@	c #CAE5EE",
"q@	c #C7E8EF",
"r@	c #BAE752",
"s@	c #BAE3F9",
"t@	c #D7F0F7",
"u@	c #DAEDF6",
"v@	c #C5E9FA",
"w@	c #DEDCDD",
"x@	c #DBF1F7",
"y@	c #C3E6F9",
"z@	c #D6F2FC",
"A@	c #DFF1FB",
"B@	c #D3EBF5",
"C@	c #D4EEF9",
"D@	c #E2F1F6",
"E@	c #E1F2FA",
"F@	c #E1EFFB",
"G@	c #D2E6F1",
"H@	c #E1F9FF",
"I@	c #DCEFF9",
"J@	c #93260D",
"K@	c #9CE70B",
"L@	c #709313",
"M@	c #916B0F",
"N@	c #BEE8F6",
"O@	c #B5B28A",
"P@	c #CCF0FE",
"Q@	c #75B305",
"R@	c #D1E3ED",
"  . +             @   @ @   .   @ # .   @   #     $ @     % & @ * = - ; > , & ' @ @ ) # @     @ .       @ # @ @ # @   .     @ . ",
"    # # .     @   . @     @   @ . # . @ . @ @     $ # +   , - ! ~ { ] ; ^ / ( = _   : @ @ ' @       @   @ @ @ @ @ @ .       . . ",
"# # # # @ : #     @   . @     @   # #   # @ @ @ . # { .   < [ [ } { ^ ^ | 1 2 2 3 4 5 2 6 ' # @ @ #   . @ @ @ # @   .   @ @   . ",
") . ' 7 @ 8 # @ @   . # #   .   @   @ @ ^     @ @   { & 9 | ; 0 | a ; b b c d e f g h i j 2 k     .   # @ . @ @ @   #         . ",
"' ' l m n o @ . @     # @   @         2 i   . #   ) l m - ] p q r | b 5 | | s g f g g g t u 2 v w     . . .       # @   . # . . ",
"m x y _ ( x   @ @ @ @ @ # @ @ @ z g A g @ . b   m B q C [ ] ; { { > D f s | 2 | 6 E F 2 2 G D H z I   #     @ @       @ .   . . ",
"9 J = = | K 9 L m 7 @ ) )   L M N O P Q u N R ) 9 { S a - | 1 T { | D U b V W X Y V V V 2 1 5 Z `  .P #     . #     . + . . ) . ",
"..+.[ ] > [ ! | > K @.@ @ < g 2 4 R #.2 $.g 1 %./ ..q q > v &.*.C =.; -.;.V | >.,.| '.).Y V !.5 g ~.{.  :   @     + .         . ",
"].] [ | =.=.| =.; ..^.@ l -.; R /.(.~._.*.i H R :.| | a ; | [ r ; | R | ; <.[.}.|.[.1.[.- '.V V 2.s 2 o   . 3.2 &.2 4.    # ' . ",
"= | | 3 | ; 2 5.5.| } 6.= [ | =.(.| 7.8./.9.0.a.; | | { | {.O { | a.b.>.[.|.7.c.c.d.}.e.[.[.[.'.f.*.~.g.h.. # .   # . #     ) @ ",
"i.i.j.k.l.; i.i.i.X [ ; m.; (.n.|.| o.p., q.0.k j [ | q 6 r.b { s.t.'.[.8.u.v.v.v.v.v.w.[.[.x.[.y.Y E F z.'   #       . j..   . ",
"A.1 B.B.C.D.E.F.R G.X ; D H.` [.> ; ; I.; [.i j 5 ; ; A 2 r.~. .J.R K.L.v.v.v.v.v.v.v.v.v.8.[.[.[.M.r.d.2 l . @ @           )   ",
"N.O.O.F.F.F.F.P.B.i.; ; 5 (.Q.- ; | ; | 0 ; i 2.E A 0 u R.S.k 5 P T.c.v.v.v.v.v.v.v.v.v.v.U.}.}.V.w 7.R Q - @ $ $ l   +   o     ",
"F.F.F.F.W.F.O.F.O.j.X.=.Y._.1.| | | | | ] ; 4 Z.j z 0 H v i 2 2 `.w 1 v.v.v.v.v.v.v.v.v.v.v.L.7.D }.[.).m.w ! = } - o   L @ @ . ",
"O.W.O.O.N.W.F.F.F.O. +u /.(.[.| [ = | ; 0 | ; a.6 v 0 X 4 5 v S.V .+3 v.v.v.v.v.v.v.v.v.v.v.v.++@+[.#+|.w 5 $+i.%+&++.B +.J L *+",
"F.O.F.F.W.F.W.F.F.F.F.E.k.(.X X | - ; | =.| Q 9.4 .+2 =+-+6 ;+f.>+W U v.v.v.v.v.v.v.v.v.v.v.v.3 t ,+[.[.'+1 b F.)+D.X - =.} !+9 ",
"F.F.N.F.F.F.W.F.F.P.F.1 N.^ O.p ; | ~+| =.| 0.{+]+t.h.^+/+J.^+i >+J.(+c.v.v.v.v.v.v.v.v.v.v.G v.}.[.[.[._+U 5 F.F.F.X.0 =.| l.[ ",
"F.B.N.A.B.F.N.F.F.)+H S.w b 5 2 2 w | :+| | [ i 1 <+i 6 1 [+z 5 /+}+c v.v.v.v.v.v.v.v.v.v.v.$.v.|+[.7._+[.F %.1+F.P. +0 | | =.X ",
"2+O.O.B.B.O.W.F.F.3+2 M u D ` N N ~.m.6 w 4+i.6 5+`.n.-.c 2 6+V 1.V v.v.v.v.v.v.v.v.v.v.v.]+]+7+8+}.|.[.[.Q 2 E.Z.)+O. +~+| 0 ; ",
"F.F.F.F.F.F.F.F.E 0.Z 9+0+2 c b E {.a+{+0.1 !.b+F c+t.2 2 w 2 c f d+(+v.v.v.v.v.v.v.U.b e+]+R ]+2 [.[.[.[.=+2 F.F.P.O.B.X.=.&.p ",
"O.F.F.W.W.P.-.1 D U i 2 >+5 w f+O 6+O >+Q D 3.2 2 v g+h+i+h+]+[.j+h.k+v.v.v.v.v.v.l+7+S.s.6 k 0+1+<.[.[.@+).2 2 m+F.F. +O.C.c n+",
"O.B.o+p+^ -.5 q+k F (+h r+/./.(.(.N h ;+s+b $.E 5+h.t+u+v+v+w+8.u.8+x+v.v.v.v.t+y+ .i R.9+z+>+2 A+(.(.N [.)+b.2 B+F.F.k 4 V C+Z.",
"B.2+D+:.E+2 g 3+F+j G+5 (.(.y.(.(.H+(.n.h I+g R J+s 8+h+K+L+M+,+m.m.<+1 v.N+l+t+m+N w O+P+w 5 P Q+/.(.[.[.R+S+O.g {.F.F.)+V V T+",
"P.U+V+W+2 ~.1 X+,.(.n.Y+@+[.Z+8.[.,+`+(.|+_.h r+z b D h+K+K+ @N (.(.n.{+{..@:.v 3 4.+@5+P 2 V R.(.(.[.[.[.).V+V 2 f.B.A.V V @@T+",
"P.V+W+0+Q U 1 Q ~.(.|.j+i 1.Z v.|+,+}.[.|+|+(.e h #@+@k+K+K+$@n./.(.(.Q.%@t+b O E Q Q V w.P (.[.[.Y+8.[.[.'.f.W.V 4 Z h.`.V V W+",
"V+V+W+E s a.b {+d.[.[.W+0+s (.&@v.v.v.u.G 8./.N (.h *@N K+K+h+.+k+w.7.y+<+2 6+k i *.!.`+(.[.[.[.Z (.|.}.=@c W+8.V 2 2 V b.V ;.R ",
"V+W+-.9+Q {.V.(.|.1.W+W+0+x+M /.c.c.f G q.M.8.1.n.(.Q+/.r+-@i+{+6+;@U.l+;.]+s c+2 ;+2 >@[.@+7.@@d.(.[.[.W+W+P [.E+V V f.V+T+i+V+",
"V+W+5 s+2 b u.@+[.V+W+T+m+,@(._.Q+U.v.v.'@~.8.Z+/.(.n.|+)@y.=@S.i s 2 ^+5 b 4.4 !@e.@+T.7.x.h+(.t (.[.[.W+W+7.I+[.[.~@{@]@T+T+V+",
"W+W+1 H+2 3+(.^@W+W+W+W+W+1 /@(.(.(.Q.c.9+h 3+W+[.>@(./.T.w.h (@).5+5 v e {+2.t.z %.{.#@h h `+(.(.`+[._@'.W T.[.[.[.:@s.R+W+W+W+",
"<@W+[@b 2 M+/.[.}@T+T+W+|@V+W+(.|+(.(._.[+H+O b.7.[.,+(./.(.(.(.h h M+;+).V.M+q.;+1@h @@n.(.(.(.(.[.7.]@E+/+7.[.[.[.).2@[@E+W+W+",
"3@:.&.5 -.;+@+W+{@T+W+W+V+U+|@W+{+(.(.Q+8+g b c Y |.Z+[.(./.(.(.(.(.(._.H H H _.n.(.(.Q.(.(.` (.(.[.[.W+/+3@2@[@3@[.1.a.4@3@3@{@",
"5@5@[@6++@K.8.E+E+W+E+W+W+V+W+;.W+>.`+n.r+N b V+<@W+W+[.[.|.(.(.(.(.(.(./.(.(.(.(.(.(.Q.(.(.n.Q.[.[.3@b.6@2@4@[.[.[.[.P 2@4@4@4@",
"5@4@H i i }.1.W+V+W+T+W+W+W+W+W+E+|@`.;.;+*.2 V+<@W+[@W+[._@[.(.(.(.(.(./.(.(.(.(.(.(.H+(.(.(.[.8.[.=+`.4@4@4@1.[.[.[.4@4@5@4@5@",
"4@5@3@2 1 S 2@2@7@4@<@W+W+W+T+W+T+T+:@W+<@<@<@<@<@{@W+W+]@}.8.[.S /./.(.5@(.(./.(.(.(.e.n.[.[.[.4@>.c 5@4@5@4@,+,+7.7.4@4@4@3@4@",
"8@6@*.b b _@K.9@9@5@2@]@V+W+T+|@|@]@{@2@/.2 O 3@3@0@[@}@]@:.k ,+[._@[.[.4@[.[.8.8.[.[.[.S [.8.a 4@;.6@6@6@5@9@/.[.[.[.P 4@~@8@[@",
"a@b@b@6 2 4@4@4@4@4@4@E+c@E+4@d@4@d@4@4@/.w *.1 2@5@5@:@s.E+W+-.f+1 [.[.C [.[.|.2@[.[.[.4@4@>.b.4@4@4@4@4@4@4@Q.[.[.S 4@a@4@2@3@",
"e@f@2 u 2 *@4@4@4@4@2@:@:@]@4@4@4@4@2@4@4@j {+b 2@9@5@:@E+5 [@m+-.9+q.(.5@_.4@2@4@4@4@'.`.V 4@4@4@4@4@2@5@2@4@n.}.[.4@`.5@g@4@4@",
"h@h@4 {+6 2 1.4@4@4@4@2@3@4@2@4@d@4@4@4@4@4@4@k 4@2@^ 4+2 0+*.2 k i@H.5@4@Q.(.4@5@4@4@4@4@2@4@4@4@5@4@4@2@4@i@/.[.[.a@V h@b@a@6@",
"h@h@h@u $.2 ,+4@2@4@4@5@5@5@4@4@4@4@4@4@4@_.R s 4@5@^ c d@2 3 w 2 (._.6@4@(./@f.4@4@3@4@4@2@4@2@4@4@2@4@2@4@n.@+[.[.j@b@h@h@k@g@",
"h@h@h@5 g 4@4@4@5@4@4@8@4@6@4@4@4@4@4@4@4@` ;+4@4+2@;.-.4@b i 5 (.(.6@6@4@Q.4@2@4@2@5@4@3@4@2@2@4@4@4@4@4@4@K.[.[.[.'.h@l@h@h@h@",
"f@P :+j D *.2 2@4@2@4@8@4@3@5@4@4@2@4@5@4@4@/.4@:.-.5@%.F b  .H+n.6@3@6@4@~.R 4@4@2@4@4@4@5@4@4@2@4@4@4@4@4@/.j+7.m@h@n@l@l@h@f@",
"o@p@q@4.2 s+r@F 4@4@s@a@a@5@4@4@2@4@3@4@5@2@^ :.4@2 2 g+z 2 4@(.4@4@4@4@/.~.3@a@4@2@4@4@4@4@4@4@5@6@4@6@%./.(.[.[.[.f@h@t@h@q@b@",
"u@l@W q@b b H 2 k 6@v@b@v@a@2 m.1 D i 5@4.3 ^ 4@4@1 D 5 b ;+4@w@4@4@4@2@n.k 3@a@5@3@3@4@4@5@5@6@5@6@6@3 (.&@[.[.[.C l@l@q@l@l@j@",
"x@u@q@J.h@2 6 u b@y@k h@f@5 {+Q z c a@4@5@4@4@5 d d k 2 >.n.2@4+4@4@4@H+4@4@a@a@6@a@4@5@2@4@5@6@5@a@a@5@(.n.[.[.[.h@h@z@x@x@h@h@",
"A@x@h@j ^ f@b 5 D s +@%.2 2 8+-.c 0+4+j@b.V i H+Q 5 1 Y.~.h.2 4@4@2@/.Q.4@6@j@j@g@a@5@4@4@4@5@6@z 4@j@H.(.[.[.l@l@h@B@x@o@o@C@B@",
"D@x@h@k i /+f@3 4.^+D s Q+D a@f@j@^ n@V j !.s 2 6+m.#@(.3 U f z [+5@4@4@4@5@j@b@b@g@6@4@4@4@k s.k >@(./.[.[.[.h@h@C@E@D@D@A@F@B@",
"A@A@C@n@i 4.n@j@{.i h@h@4.f@^ ^ h@b.2 h@~.z 1 F b r+(.5@n.%.1 a.0.g i  .s@b@h@h@h@f@a@[+v *.6 i@Q.(.(.[.|+[.@+=+h@G@H@E@E@x@A@z@",
"I@A@I@G@h@*.h@b@b.:.l@q@h@b.b.b@j 2 N *.Q 5 6+5 _.n.4@9@(.e i@h.h.b s.M g N g h@g D 1 2.F ,@|+(.n.u [.[.[.h@=+h@I@I@E@A@A@E@A@A@",
"A@I@I@G@h@h@{.3 i z@x@x@b.i h@h@j 2 R 2 E 8+J@(./.8@8@4@@+Q+(.(.x.i@3+c m.0+(+K@^+*.*@Q.(.(.n./.8.[.[.[.G@h@t@C@A@I@I@A@A@A@I@A@",
"A@A@E@G@h@h@h@R B@6 j.2 k 4 5 h@2 5 m.L@2 ;+n./.6@8@3@2@5@8.1.>@(.(.(.n.`+(.Q.n.{+n.(.(./.n.[.M@[.[.C h@h@h@t@x@E@E@E@A@F@E@A@A@",
"E@A@A@A@h@n@n@u@E@z Z.w z@C@2 2 2 2 U #@`+(.j@a@6@8@8@2@5@H.v f@8.[.(.(.Q.(.(.(.(.n.(.7.(@[.[.=@1.h@h@h@n@h@x@x@E@E@E@E@E@A@A@A@",
"A@E@A@A@I@H@G@I@A@E@D@V f.A@u h a.k D h@h@f@j@f@a@6@j@f@f@H+`.b@h@q@b@[.=@[.[.K.[.[.8.[.[.|.6@b@f@h@G@h@h@o@x@E@D@A@A@A@A@E@A@A@",
"A@A@A@A@A@H@A@H@F@E@E@x@I@F@o@` g %.h@%.h@h@h@b@b@m@k@k@k@m.b@j@q@q@b@b@q@h@@@h@h@h@h@B@b@N@v@f@b@h@h@n@A@z@x@F@D@E@A@A@A@E@E@E@",
"A@A@I@A@A@A@E@A@A@A@A@E@E@I@{.2 1 c B@2 h@l@t@h@q@h@h@h@h@z h@h@h@h@h@h@h@h@h@h@h@h@h@h@h@q@h@h@h@h@l@t@x@x@A@A@E@A@A@I@A@A@A@I@",
"A@E@A@A@E@E@E@A@E@E@E@A@A@A@A@A@E@b.V f@h@B@h@h@q@h@h@h@/.h@h@h@h@h@f@h@h@h@h@h@h@h@f@h@h@h@h@h@h@h@h@o@A@E@A@I@A@E@A@E@A@A@A@E@",
"A@A@A@I@I@A@A@F@A@I@I@E@A@E@Q m.f.J.o@o@A@B@l@h@q@q@h@h@(.V h@h@h@h@h@h@h@h@h@h@h@h@h@h@h@h@h@h@h@h@x@x@x@E@E@A@A@E@E@A@E@I@A@A@",
"E@E@E@A@I@I@A@A@I@E@A@E@u 2 -.5 A@A@A@A@A@A@C@h@h@h@h@h@>@b.h@h@h@h@h@h@h@h@h@f@h@h@h@h@h@h@h@h@h@h@I@A@E@E@E@E@A@E@E@A@A@I@A@A@",
"A@E@A@E@A@A@A@E@A@A@E@E@W O@v 2 E@A@x@A@E@A@I@h@G@h@h@h@&@%.h@h@h@h@h@h@h@P@h@h@h@h@P@h@h@h@h@h@h@f@z@I@E@E@E@E@I@A@A@A@E@A@F@E@",
"F@E@A@A@E@E@E@E@A@A@E@A@A@-.j.A@I@I@E@E@A@A@C@h@h@h@h@h@h@h@h@h@h@h@h@h@h@h@h@h@h@h@h@h@h@h@h@h@h@B@z@I@E@F@A@A@A@E@E@A@A@I@A@A@",
"A@A@A@A@A@A@A@A@A@A@E@A@E@`.~.c E@A@A@A@I@o@B@l@q@h@h@h@h@c h@h@h@h@h@h@f@h@h@h@h@h@h@h@h@l@H@H@I@I@A@I@A@A@E@E@A@F@E@E@E@A@A@A@",
"A@A@E@A@F@A@E@A@A@E@A@E@A@A@A@A@A@E@A@I@A@D@z@l@h@h@h@h@h@h@0+h@h@h@h@h@h@h@h@h@h@h@h@h@h@o@E@F@E@E@A@A@I@E@E@A@E@I@A@E@I@A@E@I@",
"A@I@E@E@A@A@A@A@I@A@E@A@A@A@E@E@A@E@A@E@A@E@A@n@n@q@h@h@h@h@h@h@h@h@h@h@h@h@h@h@h@h@h@G@A@x@E@A@A@A@I@E@E@E@E@A@E@A@A@A@A@A@E@E@",
"E@F@I@E@A@E@E@E@A@I@A@A@E@I@A@A@A@A@A@A@E@E@E@B@h@h@h@h@h@h@h@h@h@h@Y Q@`.f@h@h@h@h@h@G@E@E@A@E@E@A@A@A@A@A@A@F@E@A@E@A@A@I@E@A@",
"R@G@E@A@I@A@I@A@I@A@A@A@A@A@E@E@A@A@A@I@A@F@A@I@f@h@h@h@h@h@h@h@h@h@h@h@h@h@h@h@h@h@h@I@A@D@E@E@A@I@I@A@A@E@E@E@A@E@A@E@E@A@F@E@"};
