/* XPM */
static char *_3676c554b9549f099bb2ae260a71d5c7hWfSVYZiNS9ua4Z[] = {
/* columns rows colors chars-per-pixel */
"64 64 176 2 ",
"   c #2D9ED2",
".  c #359FD2",
"X  c #2DA1CE",
"o  c #33A2CD",
"O  c #2DA4D6",
"+  c #2DA9D7",
"@  c #25A4DB",
"#  c #2CA6DC",
"$  c #27A9DC",
"%  c #2BA9DD",
"&  c #33A4D4",
"*  c #3CA4D5",
"=  c #34A8D6",
"-  c #3CA9D5",
";  c #32A5DB",
":  c #3AA6DA",
">  c #32A9DC",
",  c #3BABDC",
"<  c #26A6E0",
"1  c #2CA7E2",
"2  c #26AAE2",
"3  c #2BA8E0",
"4  c #2AACE8",
"5  c #32A6E1",
"6  c #32ABE2",
"7  c #3BADE2",
"8  c #35ADE8",
"9  c #3BAFEA",
"0  c #2CB0E7",
"q  c #34B1E5",
"w  c #3DB1E4",
"e  c #43ACDC",
"r  c #46B2DD",
"t  c #4EB5DB",
"y  c #4DB3DD",
"u  c #55B5D7",
"i  c #5CB3D6",
"p  c #5FBAD7",
"a  c #55B5DD",
"s  c #5BB6DC",
"d  c #56B8DD",
"f  c #5CB9DD",
"g  c #78BCCF",
"h  c #64B5D6",
"j  c #6DB9D5",
"k  c #62B5DB",
"l  c #63BADD",
"z  c #6CBDDD",
"x  c #74B6D4",
"c  c #79B6D2",
"v  c #75BBD5",
"b  c #7ABCD5",
"n  c #75B7D9",
"m  c #75BEDD",
"M  c #79BEDC",
"N  c #4CAEE2",
"B  c #44B3E4",
"V  c #4CB5E4",
"C  c #46B9E6",
"Z  c #4DB9E5",
"A  c #43B4EB",
"S  c #4AB6EA",
"D  c #45B9EC",
"F  c #4CBAEB",
"G  c #55B6E3",
"H  c #5AB7E3",
"J  c #56B9E4",
"K  c #59B9E4",
"L  c #55B6E9",
"P  c #5AB6E9",
"I  c #54BBEA",
"U  c #5BBBEA",
"Y  c #47B9F0",
"T  c #4CBCF2",
"R  c #52BDF2",
"E  c #5BBEF3",
"W  c #63B5E1",
"Q  c #63BCE3",
"!  c #6BBEE2",
"~  c #62BEE9",
"^  c #6ABFE8",
"/  c #75BFE1",
"(  c #79BEE0",
")  c #6EC1DE",
"_  c #76C1D6",
"`  c #7EC2D5",
"'  c #75C0DE",
"]  c #7AC1DD",
"[  c #55C1EB",
"{  c #5CC1EC",
"}  c #65C1E4",
"|  c #6DC1E4",
" . c #65C1EA",
".. c #6CC4EA",
"X. c #74C1E1",
"o. c #77C7E7",
"O. c #7AC2E2",
"+. c #72C5EA",
"@. c #81BEDA",
"#. c #83C5E3",
"$. c #8BCBE5",
"%. c #86CDEB",
"&. c #91CCE6",
"*. c #8ED1EB",
"=. c #9CD3E6",
"-. c #94D3EC",
";. c #9DD5EC",
":. c #96D8EE",
">. c #9ED9EE",
",. c #8CD2F1",
"<. c #94D6F3",
"1. c #9BD6F2",
"2. c #96D9F4",
"3. c #9DDAF3",
"4. c #9CD7F9",
"5. c #9CDCFB",
"6. c #A2D4E7",
"7. c #A2D7EE",
"8. c #AAD6ED",
"9. c #A1D8EE",
"0. c #ABD9EE",
"q. c #B9D9E6",
"w. c #B2D7E9",
"e. c #B5DCEE",
"r. c #B9DDED",
"t. c #A2D6F1",
"y. c #A8D7F3",
"u. c #A3DAF2",
"i. c #ACDCF2",
"p. c #A2DDFB",
"a. c #B5DEF3",
"s. c #B9DDF2",
"d. c #B4DFF8",
"f. c #BADFF9",
"g. c #9FE1F5",
"h. c #97E0FF",
"j. c #9CE1FE",
"k. c #B5E1EE",
"l. c #BEE0EF",
"z. c #A2E1F6",
"x. c #ADE0F5",
"c. c #AEE2FB",
"v. c #B4E0F4",
"b. c #BCE1F3",
"n. c #BEE8F6",
"m. c #B4E1F9",
"M. c #BAE3F9",
"N. c #C1DFEA",
"B. c #C4E2EE",
"V. c #CAE5EE",
"C. c #C7E8EF",
"Z. c #CCE8EF",
"A. c #D1E3ED",
"S. c #C4E5F4",
"D. c #CBE6F1",
"F. c #C7E9F6",
"G. c #CBE9F4",
"H. c #C3E6F9",
"J. c #CAE7FB",
"K. c #C5E9FA",
"L. c #CAEBF9",
"P. c #D2E6F1",
"I. c #D3EBF5",
"U. c #DAEDF6",
"Y. c #D4EEF9",
"T. c #DCEFF9",
"R. c #CCF0FE",
"E. c #D7F0F7",
"W. c #DBF1F7",
"Q. c #D6F2FC",
"!. c #DFF1FB",
"~. c #DFF8FF",
"^. c #E1EFFB",
"/. c #E2F1F6",
"(. c #E1F2FA",
"). c #E1F9FF",
/* pixels */
"1 3 4 1 1 1 1 1 1 % 1 % % 1 3 1 % 2 3 1 % 1 2 1 1 + % 1 1 8 5 % o Z I H P 7 5 # % % $ 2 % 1 1 % 3 1 1 1 % 2 % % 2 % 1 3 1 1 % 3 ",
"1 1 2 2 3 1 1 % 1 3 % 1 1 % 1 % 3 2 3 % 3 % % 1 1 + 2 4 1 7 I F t G U H U I R Z T 1 < % % # % 1 1 1 % 1 % % % % % % 3 1 1 1 3 3 ",
"2 2 2 2 % < 2 1 1 % 1 3 % 1 1 % 1 2 2 1 2 % % % 3 2 4 3 1 : G G [ J U H J G L G I 6 1 3 3 # 2 % % 2 1 3 % % % 2 % 1 3 1 % % 1 3 ",
"$ 3 # q % @ 2 % % 1 3 2 2 1 3 1 % 1 % % 1 1 1 % % 1 8 5 , J H K J H H H d f H K U A 6 1 6 % 3 1 1 3 1 2 % 3 % % % 1 2 1 1 1 1 3 ",
"# # O ;   6 % 3 % 1 1 2 % 1 % 1 1 1 1 3 3 1 3 2 1 $ O ; I U W d H J H H J J J U I r O 5 6 1 1 1 1 1 1 3 3 3 1 1 1 2 % 1 3 2 3 3 ",
"; A Y T R A 1 % % % % % 2 % % % % % % 3 % 3 1 1 ; B R L G U H d H P U J G J J J J J J Y # % 2 3 2 1 1 2 1 1 % % 1 1 1 % 3 1 3 3 ",
", r Z Z J N , = ; q % $ $ 1 = = = = = 1 $ 3 < $ , a H J I J G J J J J d J J J f f J J G , $ 2 1 0 4 8 2 1 1 3 2 1 1 3 4 3 3 $ 3 ",
"L V G U P G F J P N . % % : P P G P e 5 1 4 3 + S L U J P J H J J d H J H J J J G J G G I % 3 2 # > # 1 < 1 % 1 1 4 3 1 1 1 1 3 ",
"* U G J d d J d H L X % O [ H H H d y < 1 1 6 F H J J U H J G J H J J J H J J J P G J G I = 1 % & I , 6 1 3 % 1 1 1 3 1 1 2 # 3 ",
"Z J J J J H s u u J [ D Z G J d d J t # 2 9 B Z H J J J J G K J J H J U H K K H H d G J I F Y D V J [ C ; 3 2 3 1 2 3 2 1 1 $ % ",
"Q Q l l a H Q Q Q f G H G H J J I J y w 7 N y Z P G J G P J J K J J f J J K K l W } k J J U I I J J J L 9 # 1 2 1 1 1 3 4 3 1 3 ",
"O./ / / i ) o.' ^ k f H J J P P P H H E H K J J L H H J J J J U J J J J f J K | X.X.h H J d H K K J i P L O 3 % % 1 1 1 1 1 $ 1 ",
"m X.X.' ' ' ' _ / Q H H J J U I H J H J K H H K K J K J J K K J f K U a s I  .' m O.' f { [ J P I J K K J I % + + O 1 4 1 6 1 1 ",
"' ' ' ' ] ' X.' X...} d [ J J J J J J J U H H K K [ K J J J H J J W W | ) U | O.X.' m z J J H J J J J J G I F Z [ I 6 1 = % % 3 ",
"X.] X.X.m ] ' ' ' X.| p d J K J G Z J H K J H U K J K f J I J I H W ! ' ' l ' ' m ' m ' l J J H H d H J J J { Q ! ~ V B V r = 0 ",
"' X.' ' ] ' ] ' ' ' ' o.l Q f f J I H J d J J U K s W ~ t H H K ^ X.X._ / ' X.' / m / ] ' Q U H H f H K U a ) ' M ) f I d [ - , ",
"' ' m ' ' ' ] ' ' _ ' X.m m X.W H J s J d J J K K l / ^ u s H f ] m ] X.X./ X.X.' ' X.X.b z Q H f f k l | k ' ' ' ' } K d J a G ",
"' / m O./ ' m ' ' M m X.X.] ! +.K P J H J J G K K ^ ( X.| Q X.| M O.m X./ O./ ] X.m ] X.m X... .l l X.X.X.X.) ' ' _ | K J J d f ",
"( X.X./ / X.] ' ' X.X.' ' ) ] ' } a f d G H Q ^ ^ ] ' ] ' m m X.' X./ ' O.m ' m ' ' ' X.X.m | | z X._ ' ' ] ) o.) M X.| s J K H ",
"' ' ' ' ' ' ' ' M ] M M _ ' ] ' o.f z Q H l ) ) z ' X.' ' O.' X.' ' ' ' m / ' ' ' ' ' / ' ' X.| X.) ' ' m ] X.' ' _ X./ } d K W ",
"X.' ' ] ] _ X.o._ b b M j ' / X.z z ' X.k o.' ' ' / X.' ' / ] X.X.X.' ' z m / v v v v ( ( ' ' X.' X.X.' / ( m ' ) ' ' | X.i k h ",
"X./ v j.2.' ' ' m #.p.p.M ' ( ' ' X.m m X.] _ ' X.' ' ' ' m / X.m m X.' _ b 1.3.3.3.3.n ( ' ' ' ' ' o.] j.M M ' ) ' ' ' ' ] h.4.",
"/ ( 2.-.9.3.m X.O.3.i.7.-.X.( X.O.' / M 3.;.<.( / ' ' ' ' O.O.X.' ' m ' g.;.u.t.t.t.t.4./ ' ' ' ' ' 3.<.3.4.#.X.' ' ' ' M >.u.t.",
"_ 3.>.7.t.7._ ;.3.t.7.t.;.1.O.m ' ' ' -.9.t.t.2.g ' X.' ' m m ' ' X.m $.3.>.t.7.7.t.7.4.t.-.:.] ' | 3.9.7.7.>.] _ O./ O.&.7.7.t.",
"_ >.7.t.7.3.g 7.7.7.7.;.;.7.#.] ] ' m z.>.t.7.>.` ' _ X.' X.X.' ' ( x 5.7.7.7.7.7.7.7.7.7.7.3.x O.+.9.9.>.7.>.] ] m ! M >.t.7.7.",
">.>.7.7.8.=.>.7.u.t.t.7.7.7.>.3._ ) ,.-.9.7.7.>.g.*.] m m m / X.] ( 1.y.3.t.7.7.t.7.>.t.7.9.u.c.@.@.3.9.7.7.7.;.3.4.b c 1.7.7.t.",
">.7.7.7.7.>.3.7.7.>.7.7.t.t.8.9.c ' ] i.6.7.7.7.>.>.3.3.M O.M O.t.t.u.7.t.>.7.>.3.;.>.t.t.7.t.t.t.u.>.7.7.7.8.u.9.u.3.9.>.t.7.>.",
">.7.7.>.7.>.>.7.7.>.7.t.t.t.0.7.3.3.%.9.9.7.7.7.t.7.7.u.4.5.4.p.t.t.9.9.1.7.7.7.7.7.>.;.=.7.3.t.u.3.9.3.7.7.8.6.7.0.x.8.u.t.t.>.",
"7.7.7.7.>.>.>.>.7.7.7.7.7.7.9.t.u.=.%.=.7.>.7.7.7.8.8.7.;.t.u.u.t.7.9.>.7.7.3.t.7.7.7.u.t.7.3.>.6.9.3.9.7.t.9.6.0.0.0.0.4.7.7.7.",
"6.7.i.7.3.t.t.t.y.t.t.7.;.>.7.t.7.7.t.7.7.t.7.8.t.u.t.3.>.7.;.7.t.t.t.6.7.0.6.8.8.d.d.d.8.9.g.9.u.6.>.u.9.6.6.8.v.a.a.d.i.9.7.7.",
"v.m.t.7.7.7.8.7.8.t.7.7.>.3.;.7.7.7.7.7.t.7.7.7.7.7.>.t.>.3.>.7.t.t.7.i.i.d.d.a.d.a.a.a.w.6.6.9.6.i.x.7.0.v.d.i.v.s.d.a.a.v.v.8.",
"s.s.i.y.7.7.8.9.9.7.9.7.7.>.7.7.7.7.9.9.>.9.>.>.6.7.7.t.t.7.7.7.t.7.i.v.a.a.s.a.v.a.a.s.f.v.8.x.v.d.v.a.e.d.a.v.a.a.d.a.d.a.a.a.",
"s.a.d.8.7.6.8.7.>.7.t.7.7.7.7.7.9.;.9.=.6.=.9.>.6.7.i.7.7.>.7.>.u.i.a.d.s.s.s.a.a.a.a.s.a.s.i.v.i.d.s.s.a.a.a.d.a.s.s.a.a.s.a.s.",
"a.s.v.6.8.d.d.d.m.a.6.7.7.7.t.7.t.t.0.7.6.6.6.6.6.8.7.7.u.7.t.7.u.i.a.s.s.e.s.a.a.d.d.y.s.f.i.v.a.a.a.s.a.s.a.a.a.a.a.a.a.a.v.a.",
"k.e.x.6.d.f.d.f.f.s.d.u.>.7.t.;.;.u.8.d.v.v.d.v.v.c.i.y.u.7.7.>.9.i.a.s.a.v.a.a.a.a.a.a.s.s.e.k.a.s.e.e.e.s.f.s.s.a.a.a.a.x.k.i.",
"r.F.F.J.q.a.a.a.a.a.a.9.=.9.a.w.a.w.a.a.a.a.a.a.d.s.s.0.=.9.7.6.>.0.v.s.a.s.a.a.d.a.s.a.a.a.a.a.a.a.a.a.a.a.a.a.d.i.a.a.r.a.d.v.",
"l.L.F.G.r.a.a.a.a.a.d.0.0.u.a.a.a.a.d.a.a.a.a.d.d.f.s.0.9.i.i.6.>.g.v.s.s.a.a.d.a.a.a.a.a.a.a.a.a.a.a.d.s.d.a.v.a.a.a.s.s.b.a.a.",
"G.G.L.G.G.a.e.a.a.a.a.d.v.a.d.a.w.a.a.a.a.a.a.a.a.d.d.v.v.d.d.8.6.k.a.s.a.a.a.a.s.a.a.a.a.d.a.a.a.s.a.a.d.a.a.a.d.r.r.r.G.F.r.e.",
"G.G.G.D.G.a.a.a.d.a.a.s.s.s.a.a.a.a.a.a.a.a.a.d.a.s.a.a.w.s.d.s.6.8.a.e.a.a.a.a.a.a.v.a.a.d.a.d.a.a.d.a.d.a.a.a.a.e.S.F.G.G.J.b.",
"G.G.G.G.F.a.a.a.s.a.a.k.a.e.a.a.a.a.a.a.a.a.a.a.a.d.f.a.a.a.s.a.f.M.e.e.a.a.a.d.a.d.s.a.v.a.d.d.a.a.a.a.a.a.a.a.a.B.G.G.Z.G.G.G.",
"L.D.P.G.F.a.a.d.a.d.a.k.a.v.s.a.a.d.a.s.a.a.d.a.a.a.s.s.s.a.a.a.y.e.v.e.a.a.a.a.a.d.a.a.a.s.a.a.d.a.a.a.a.a.a.a.v.B.G.D.Z.Z.G.L.",
"~.V.C.C.C.r.a.e.a.a.M.r.r.s.a.a.d.a.v.a.s.d.d.a.a.a.a.a.d.a.a.a.a.a.a.a.a.a.v.r.a.d.a.a.a.a.a.a.s.e.a.e.a.a.s.b.b.C.L.G.E.G.C.F.",
"U.Z.C.C.G.K.s.a.e.e.K.F.K.r.a.e.e.a.e.s.a.a.a.a.a.a.a.d.d.d.a.a.a.a.a.d.a.a.v.r.s.v.v.a.a.s.s.e.s.e.e.s.s.r.G.G.L.G.Z.Z.C.Z.Z.S.",
"W.U.C.C.G.F.s.r.F.H.K.G.L.S.s.e.e.a.r.a.s.a.a.a.a.a.a.a.a.s.d.a.a.a.a.a.a.a.r.r.e.r.a.s.d.a.s.e.s.r.r.s.b.F.G.G.G.G.G.Q.W.W.G.G.",
"!.W.G.G.F.L.S.S.F.J.L.G.L.F.b.S.S.S.D.S.e.a.a.s.d.a.a.a.a.a.a.a.a.d.a.d.a.e.S.S.b.r.s.a.a.a.s.e.a.a.S.S.S.L.G.Z.Z.G.I.W.~.~.Y.I.",
"/.W.G.G.F.D.L.Y.G.G.G.G.S.L.r.L.S.S.D.S.n.a.a.a.a.a.d.a.a.a.a.a.a.s.a.a.a.s.S.F.F.b.e.a.a.a.s.r.s.b.D.D.G.D.G.G.G.Y.(././.!.^.I.",
"!.!.Y.D.G.D.D.S.D.D.G.G.G.L.G.F.G.F.G.G.R.s.a.a.a.a.a.s.a.d.a.a.d.a.a.a.M.F.G.G.G.L.r.s.e.a.a.e.a.s.D.D.G.G.G.G.G.P.).(.(.W.!.Q.",
"T.!.T.P.G.G.G.F.Y.G.Z.C.G.G.F.F.L.G.G.L.G.F.s.a.a.a.a.f.s.a.a.a.a.s.s.s.D.G.G.G.G.G.G.e.e.v.v.e.e.H.D.G.D.G.Z.G.T.T.(.!.!.(.!.!.",
"!.T.T.P.G.G.G.G.G.Q.W.W.D.F.G.G.G.G.G.G.G.L.r.e.e.k.k.a.a.a.a.v.F.H.H.F.G.G.G.G.G.G.G.F.e.k.e.s.r.F.G.G.P.G.E.Y.!.T.T.!.!.!.T.!.",
"!.!.(.P.G.G.G.G.I.~.(.(.P.G.D.G.D.G.G.G.G.F.r.a.e.k.v.d.s.a.r.b.G.G.G.J.I.G.G.G.G.G.G.J.b.k.a.s.r.J.G.G.G.G.E.W.(.(.(.!.^.(.!.!.",
"(.!.!.!.G.D.D.U.(.!./.^.Q.Y.G.G.G.G.G.G.G.G.S.r.e.k.k.d.s.r.N.L.G.G.G.G.G.G.G.G.G.G.G.G.F.n.H.r.G.G.G.G.D.G.W.W.(.(.(.(.(.!.!.!.",
"!.(.!.!.T.).P.T.!.(././.(.!.Q.~.Z.Z.G.G.G.L.S.L.r.e.S.L.L.B.S.F.G.C.F.G.G.G.G.G.G.G.G.G.L.k.e.F.L.G.P.G.G.~.W.(./.!.!.!.!.(.!.!.",
"!.!.!.!.!.).!.).^.(.(.W.T.^.~.~.W.W.G.G.G.G.G.F.F.B.J.J.J.G.F.S.C.C.F.F.C.G.G.G.G.G.G.I.F.n.K.L.F.G.G.D.!.Q.W.^./.(.!.!.!.(.(.(.",
"!.!.T.!.!.!.(.!.!.!.!.(.(.T.!.!.T.T.I.I.G.Z.E.G.C.G.G.G.G.G.G.G.G.G.G.G.G.G.G.G.G.G.G.G.G.C.G.G.G.G.Z.E.W.W.!.!.(.!.!.T.!.!.!.T.",
"!.(.!.!.(.(.(.!.(.(.(.!.!.!.!.!.(.T.Y.L.G.I.G.G.C.G.G.G.G.G.G.G.G.G.L.G.G.G.G.G.G.G.L.G.G.G.G.G.G.G.G.~.!.(.!.T.!.(.!.(.!.!.!.(.",
"!.!.!.T.T.!.!.^.!.T.T.(.!.(.!.(.(.T.~.~.!.I.Z.G.C.C.G.G.G.G.G.G.G.G.G.G.G.G.G.G.G.G.G.G.G.G.G.G.G.G.W.W.W.(.(.!.!.(.(.!.(.T.!.!.",
"(.(.(.!.T.T.!.!.T.(.!.(.T.!.(.!.!.!.!.!.!.!.Y.G.G.G.G.G.G.G.G.G.G.G.G.G.G.G.G.L.G.G.G.G.G.G.G.G.G.G.T.!.(.(.(.(.!.(.(.!.!.T.!.!.",
"!.(.!.(.!.!.!.(.!.!.(.(.!.!.!.(.(.!.W.!.(.!.T.G.P.G.G.G.G.G.G.G.G.G.G.G.G.R.G.G.G.G.R.G.G.G.G.G.G.L.Q.T.(.(.(.(.T.!.!.!.(.!.^.(.",
"^.(.!.!.(.(.(.(.!.!.(.!.!.!.!.!.T.T.(.(.!.!.Y.G.G.G.G.G.G.G.G.G.G.G.G.G.G.G.G.G.G.G.G.G.G.G.G.G.G.I.Q.T.(.^.!.!.!.(.(.!.!.T.!.!.",
"!.!.!.!.!.!.!.!.!.!.(.!.(.!.T.!.(.!.!.!.T.~.I.Z.C.G.G.G.G.G.G.G.G.G.G.G.L.G.G.G.G.G.G.G.G.Z.).).T.T.!.T.!.!.(.(.!.^.(.(.(.!.!.!.",
"!.!.(.!.^.!.(.!.!.(.!.(.!.!.!.!.!.(.!.T.!./.Q.Z.G.G.G.G.G.G.L.G.G.G.G.G.G.G.G.G.G.G.G.G.G.~.(.^.(.(.!.!.T.(.(.!.(.T.!.(.T.!.(.T.",
"!.T.(.(.!.!.!.!.T.!.(.!.!.!.(.(.!.(.!.(.!.(.!.D.D.C.G.G.G.G.G.G.G.G.G.G.G.G.G.G.G.G.G.P.!.W.(.!.!.!.T.(.(.(.(.!.(.!.!.!.!.!.(.(.",
"(.^.T.(.!.(.(.(.!.T.!.!.(.T.!.!.!.!.!.!.(.(.(.I.G.G.G.G.G.G.G.G.G.G.G.G.G.L.G.G.G.G.G.P.(.(.!.(.(.!.!.!.!.!.!.^.(.!.(.!.!.T.(.!.",
"A.P.(.!.T.!.T.!.T.!.!.!.!.!.(.(.!.!.!.T.!.^.!.T.L.G.G.G.G.G.G.G.G.G.G.G.G.G.G.G.G.G.G.T.!./.(.(.!.T.T.!.!.(.(.(.!.(.!.(.(.!.^.(."
};
