/* XPM */
static char * sky_xpm[] = {
"64 64 298 2",
"  	c #DDF0FB",
". 	c #DFF1FB",
"+ 	c #DEF1FB",
"@ 	c #DCEFFA",
"# 	c #DDF0FA",
"$ 	c #DCF0FA",
"% 	c #DBEFFA",
"& 	c #D4ECF9",
"* 	c #CCE8F7",
"= 	c #DEF0FB",
"- 	c #D5ECF9",
"; 	c #D9EEFA",
"> 	c #DAEEFA",
", 	c #D8EEF9",
"' 	c #D1EAF7",
") 	c #D0EAF7",
"! 	c #D4ECF8",
"~ 	c #D6EDF8",
"{ 	c #D4ECF7",
"] 	c #D1ECF6",
"^ 	c #D0EBF6",
"/ 	c #D1EBF6",
"( 	c #D3ECF7",
"_ 	c #DAEFF9",
": 	c #CEE9F6",
"< 	c #CBE9F5",
"[ 	c #CBE9F4",
"} 	c #CDEAF5",
"| 	c #CCE9F4",
"1 	c #DBF0FA",
"2 	c #D9EEF9",
"3 	c #D7EEF8",
"4 	c #CEEAF5",
"5 	c #CCEAF4",
"6 	c #CFEAF5",
"7 	c #D2ECF6",
"8 	c #CFEBF6",
"9 	c #CCE9F5",
"0 	c #DBEFF9",
"a 	c #D5EDF7",
"b 	c #D4EDF7",
"c 	c #CEEAF6",
"d 	c #CFEBF5",
"e 	c #D2ECF7",
"f 	c #D9EFF9",
"g 	c #CAE9F4",
"h 	c #CAE8F4",
"i 	c #C4E6F3",
"j 	c #C5E6F4",
"k 	c #C6E6F4",
"l 	c #C4E5F3",
"m 	c #C9E7F3",
"n 	c #C8E7F4",
"o 	c #C8E8F4",
"p 	c #C1E4F4",
"q 	c #BEE3F3",
"r 	c #BCE2F3",
"s 	c #C6E7F4",
"t 	c #C6E7F3",
"u 	c #C2E4F3",
"v 	c #C9E7F4",
"w 	c #C7E7F4",
"x 	c #B7DFF3",
"y 	c #BFE3F3",
"z 	c #C9E8F4",
"A 	c #C4E6F4",
"B 	c #B8DFF3",
"C 	c #C2E5F3",
"D 	c #C6E6F3",
"E 	c #C4E5F4",
"F 	c #C8E7F3",
"G 	c #BFE2F3",
"H 	c #C3E5F4",
"I 	c #BCE1F2",
"J 	c #B4DDF2",
"K 	c #B6DEF3",
"L 	c #BDE2F3",
"M 	c #BCE1F3",
"N 	c #BEE2F3",
"O 	c #BAE1F3",
"P 	c #B5DEF3",
"Q 	c #C7E6F3",
"R 	c #C9E8F3",
"S 	c #B8E0F3",
"T 	c #A6D6EF",
"U 	c #A9D7ED",
"V 	c #C7E6F4",
"W 	c #BAE0F3",
"X 	c #BBE1F3",
"Y 	c #C3E4F4",
"Z 	c #B6DFF3",
"` 	c #98CDEB",
" .	c #BAE0F0",
"..	c #C0E3F2",
"+.	c #C2E4F4",
"@.	c #BBE0F3",
"#.	c #C0E4F3",
"$.	c #C1E4F3",
"%.	c #C1E3F3",
"&.	c #B9E0F3",
"*.	c #C3E4F3",
"=.	c #B4DEF2",
"-.	c #AFDAF0",
";.	c #86C4E0",
">.	c #95CEE7",
",.	c #A6D5EC",
"'.	c #BAE3FE",
").	c #B9E0F4",
"!.	c #B7DEF3",
"~.	c #B7DFFB",
"{.	c #BFE3FB",
"].	c #C3E5F3",
"^.	c #B5E5FE",
"/.	c #B9DFF3",
"(.	c #BEE1F3",
"_.	c #BCE0F3",
":.	c #B5DDF3",
"<.	c #B1DCF2",
"[.	c #A9D7EE",
"}.	c #A7E1FF",
"|.	c #A0D8F9",
"1.	c #79C0E2",
"2.	c #89C5E4",
"3.	c #A7DBF4",
"4.	c #ADDBF1",
"5.	c #B3DDF2",
"6.	c #C5E7F5",
"7.	c #B5DEF9",
"8.	c #B5DEF2",
"9.	c #B3DCF2",
"0.	c #B4DEF3",
"a.	c #B2DCF2",
"b.	c #B1DBF1",
"c.	c #ACD9EF",
"d.	c #A5D5ED",
"e.	c #9CD0E9",
"f.	c #A6DBF0",
"g.	c #A5DBF2",
"h.	c #A2D6F1",
"i.	c #76C1D6",
"j.	c #9EDAF3",
"k.	c #A1DAEF",
"l.	c #A8D9EF",
"m.	c #AAD9F2",
"n.	c #ADDCF1",
"o.	c #9DD2E7",
"p.	c #ABDBF0",
"q.	c #ADDCF3",
"r.	c #B4DDF3",
"s.	c #B5DEF4",
"t.	c #C0E3F3",
"u.	c #B3DDF3",
"v.	c #B0DDF2",
"w.	c #A1D3EB",
"x.	c #99D0E9",
"y.	c #9DD3ED",
"z.	c #AFDDF3",
"A.	c #B1DDF2",
"B.	c #B0DCF1",
"C.	c #9DD1E9",
"D.	c #95CEE3",
"E.	c #90CBE8",
"F.	c #87C7E5",
"G.	c #86C7E5",
"H.	c #A3D7EE",
"I.	c #A2D7EE",
"J.	c #9ED9EE",
"K.	c #A3D6F1",
"L.	c #A4D8EE",
"M.	c #A0DAF3",
"N.	c #80C0D3",
"O.	c #A4D8EF",
"P.	c #A5D8EF",
"Q.	c #A7D8EF",
"R.	c #A5D8EE",
"S.	c #A9D9EF",
"T.	c #A8D7EE",
"U.	c #ABD8EF",
"V.	c #AFDBF0",
"W.	c #B1DCF1",
"X.	c #B4E1F6",
"Y.	c #B3DEF3",
"Z.	c #B7E0F3",
"`.	c #B8DFFB",
" +	c #B2DDF2",
".+	c #AEDBF1",
"++	c #A7DCF3",
"@+	c #81BDD9",
"#+	c #80C4E3",
"$+	c #7BC8EB",
"%+	c #A5D9EF",
"&+	c #A3DAEF",
"*+	c #7FC3DF",
"=+	c #7DC2DE",
"-+	c #77BFDD",
";+	c #6CBEE2",
">+	c #79BEDC",
",+	c #AAD6ED",
"'+	c #9CD3E6",
")+	c #A3DAF2",
"!+	c #A4DBF3",
"~+	c #93CDE2",
"{+	c #95D0E8",
"]+	c #A3D8F2",
"^+	c #AADBF0",
"/+	c #A9DAF0",
"(+	c #AADAF0",
"_+	c #AADCF1",
":+	c #AEE1F5",
"<+	c #ACDBF1",
"[+	c #ABD9EF",
"}+	c #B0DCF2",
"|+	c #ACDAF2",
"1+	c #ABDAF0",
"2+	c #A8DBF0",
"3+	c #A8D9F0",
"4+	c #A5DAF2",
"5+	c #AEE2FB",
"6+	c #81BEDA",
"7+	c #9DDAF3",
"8+	c #A1D8EE",
"9+	c #9DD5EC",
"0+	c #9CD7F9",
"a+	c #7ABCD5",
"b+	c #79B6D2",
"c+	c #9BD6F2",
"d+	c #A2D8EE",
"e+	c #7DB8D4",
"f+	c #7CC3E0",
"g+	c #81C4DF",
"h+	c #ADDCF2",
"i+	c #A3D5E8",
"j+	c #A2DAEF",
"k+	c #9DD0E9",
"l+	c #A4D5ED",
"m+	c #ACD9F0",
"n+	c #B2DDF3",
"o+	c #AFDDF2",
"p+	c #A5DAEF",
"q+	c #A0DBF3",
"r+	c #9FD6ED",
"s+	c #A0D9EE",
"t+	c #A3D7F1",
"u+	c #ABD9EE",
"v+	c #86CDEB",
"w+	c #A4DAF2",
"x+	c #9FD8F9",
"y+	c #A1DCFB",
"z+	c #A3D9F9",
"A+	c #A9DDFB",
"B+	c #ABDAF2",
"C+	c #ABDBF1",
"D+	c #A7D9F2",
"E+	c #A2D4E7",
"F+	c #ADE0F5",
"G+	c #A3D9EF",
"H+	c #ACDCF2",
"I+	c #A8D7F3",
"J+	c #B4DFF8",
"K+	c #9FE1F5",
"L+	c #B4E0F4",
"M+	c #B4E1F9",
"N+	c #B2D7E9",
"O+	c #B9DDF2",
"P+	c #BADFF9",
"Q+	c #B5DCEE",
"R+	c #B5E1EE",
"S+	c #B9DDED",
"T+	c #C7E9F6",
"U+	c #CAE7FB",
"V+	c #B9D9E6",
"W+	c #BEE0EF",
"X+	c #CAEBF9",
"Y+	c #CBE6F1",
"Z+	c #BAE3F9",
"`+	c #C4E2EE",
" @	c #CCE8EF",
".@	c #D2E6F1",
"+@	c #DFF8FF",
"@@	c #CAE5EE",
"#@	c #C7E8EF",
"$@	c #D7F0F7",
"%@	c #DAEDF6",
"&@	c #C5E9FA",
"*@	c #DBF1F7",
"=@	c #C3E6F9",
"-@	c #D6F2FC",
";@	c #D3EBF5",
">@	c #D4EEF9",
",@	c #E2F1F6",
"'@	c #BEE8F6",
")@	c #E1F2FA",
"!@	c #E1EFFB",
"~@	c #CCF0FE",
"{@	c #E1F9FF",
"]@	c #DCEFF9",
"^@	c #C1DFEA",
"/@	c #D1E3ED",
"  . . . . . . . . . . . . . . . . . . . . . . . . . . . . . . . . . . . . . . . . . . +   @ @ @ @ @ # + . . . . . + $ %   + . . ",
". . . . . . . . . . . . . . . . . . . . . . . . . . . . . . . . . . . . . . . . . . . . . . . + + + . . . . . . . . . . . . . . ",
". . . . . . . . . . . . . . . . . . . . . . . . . . . . . . . . . . . . . . . . . . . . . + + + + + . . . . . . . . . . . . . . ",
". . . . . . . . . . . . . . . . . . . . . . . + . . . . . + . . . . . . . . . . . . . . . . . . . . . . . + # . . . . . . . . + ",
". . . . . . . . . . . . . . . . . . . . . . . . . . . . . . . . . . . . . . . . . . . . . . . . . . . . . .   . . . . . . . % & ",
". . . . . . . . . . . . . . . . . . . . . + . . . . . . . . . . . . . + . . . . . . . . . . . . . . . . . . . . . . . . . .   * ",
". . . . . . . . . . . . . . . . . . . . .   % = . . .   % = . . . . . + . . . . . . . . . . . . . . . . . . . . . + . . . . . - ",
". . . . . . . . . . . . . . . . . . . . . . $ ; $ + = $ $   . . . . . . .   = + . = % % $ # # = . . . . . = . . . $ > + . . . ; ",
"= . . . . . . . + + . . . . . . . . . . . . . = = . . . . . . . . = $ % , ' ) ! ~ { ] ^ / / / ( ~ % + . . # . . . +   = . . . - ",
"= . . . . . . . . . . . . . . . . . . . . . . . . + + . . + # @ _ ~ ( ^ : < [ } } | [ [ [ [ [ [ | ^ , $ 1 , $ + . . . . + . % : ",
". . . . . . . .   # = = = = # $ 1 $ $ $ # # # # $ , 2 _ _ 3 ( / ^ 4 5 | [ [ [ [ [ [ [ [ [ [ [ [ [ | 6 7 / 8 / 3 % $ 1 % _ 2 ( 9 ",
"% $ % 0 # . . $ 3 a a a b ( 7 ^ ^ ^ ^ / ( 7 7 ( / 4 4 6 6 } | [ [ [ [ [ [ [ [ [ [ [ [ [ [ [ [ [ [ [ [ | [ [ [ < c ^ / ^ ^ 6 } [ ",
"^ / ^ d e 3 f { 4 } } 5 | | [ [ [ [ [ [ | | | | [ [ [ [ [ [ [ [ [ [ [ [ [ [ [ [ [ [ [ [ [ [ [ [ [ [ [ [ [ [ [ [ [ [ [ [ [ [ [ g ",
"[ [ [ [ | } 4 } [ [ [ [ [ [ [ [ [ [ [ [ [ g [ [ [ [ [ [ [ [ [ [ [ [ [ [ [ [ [ [ [ [ [ g [ [ [ [ [ [ [ [ [ [ [ [ [ [ [ [ [ [ h i ",
"[ [ [ [ [ g [ [ [ [ [ [ [ [ [ [ [ g g [ [ [ [ [ g g [ [ g h [ [ [ [ [ [ [ [ [ [ [ [ [ [ [ [ [ [ [ [ [ [ [ [ [ [ [ [ [ [ [ g h j ",
"h [ [ [ [ [ [ [ [ [ [ [ [ [ [ [ g g g [ [ [ [ g g g [ [ k l h [ [ m n [ [ [ [ [ g g [ [ [ [ [ [ [ [ [ [ [ [ [ [ [ [ [ [ [ h [ o ",
"p h [ [ [ [ [ [ [ [ [ [ [ [ [ [ g g [ g [ [ [ [ [ [ [ o q r s g h t u n [ [ [ [ v w [ [ [ [ [ [ [ [ [ [ [ [ [ [ [ [ [ [ h s g w ",
"x y z [ [ [ [ [ [ [ [ g g g g [ [ g n A k n z z o o k y B B C g [ h D j [ [ [ [ E y w g [ [ [ [ [ z z [ [ [ [ [ [ [ [ F G G H I ",
"J K y n [ [ [ [ [ [ [ [ [ [ [ [ [ s y L L M L N N L O x P P G z [ [ h Q [ [ [ h y B q k h g h z i q u R [ [ [ [ [ [ z S B H r T ",
"U J K M u V w w w w w o o z z z k L y O W P K K K K P P P P W j g [ h l z [ [ o X P x L Y k n k L Z P M g [ [ [ [ [ F P B H E ` ",
" ...y A +.@.X X X X M M L #.A A $.E y K P P P P P P P P P P Z r k h z l D z z %.x P P Z &.q A E M Z P P *.h [ g R R *.K P =.-.;.",
">.,. .'.).W W W q !.~.{.y H y W q W K P P P P P P P P P P P P K y h h o V o ].&.P P P P K S M M S K P P ^./.(._.P L y :.<.[.}.|.",
"1.2.3.4.5.H u u N E w y y x K P K P P P P P P P P P P P P P P K $.s z o 6.E L x P P P 7.P K Z 8.9.5.P P P 7.0.J a.b.c.d.e.f.g.h.",
"i.j.k.l.m.n.o.p.q.r O r.J 0.r.P P P P P P P P s.P P P P P P P K E t.n H L X B K P P P 7.P u.v.w.x.y.z.A.<.B.n.C.D.E.F.G.>.H.I.h.",
"i.J.I.K.L.M.N.O.O.P.Q.R.S.4.T.U.V.W.a.X.Y.u.5.0.J 0.P P P P P Z k Z./.`.Z K P 0.u.5. + +<..+++@+#+$+%+%+&+P.k.*+=+-+;+>+J.h.I.I.",
"J.J.I.I.,+'+J.I.)+h.h.H.L.P.&+!+~+{+]+%+^+/+(+_+:+<+[+-.a.5.r.0.Z P P P P P 5.}+|+1+2+m.3+%+4+5+6+6+7+8+I.I.I.9+7+0+a+b+c+I.I.h.",
"J.I.I.I.I.J.7+I.I.J.I.I.h.h.,+d+e+f+g+h+i+H.H.L.j+&+!+++k+l+[.m+n+u.Y.5.n+o+<+p+q+r+s+t+K.I.h.h.h.)+J.I.I.I.,+)+8+)+7+8+J.h.I.J.",
"J.I.I.J.I.J.J.I.I.J.I.h.h.h.u+I.7+7+v+8+8+I.I.I.h.I.H.w+x+y+z+A+m.B+<+C+D+l.P.H.I.I.J.9+'+I.7+h.)+7+8+7+I.I.,+E+I.u+F+,+)+h.h.J.",
"I.I.I.I.J.J.J.J.I.I.I.I.I.I.8+h.)+'+v+'+I.J.I.I.I.,+,+I.9+h.)+w+t+L.G+s+L.H.7+h.I.I.I.)+h.I.7+J.E+8+7+8+I.h.8+E+u+u+u+u+0+I.I.I.",
"E+I.H+I.7+h.h.h.I+h.h.I.9+J.I.h.I.I.h.I.I.h.I.,+h.)+h.7+J.I.9+I.h.h.h.E+I.u+E+,+,+J+J+J+,+8+K+8+)+E+J.)+8+E+E+,+L+P P J+H+8+I.I.",
"L+M+h.I.I.I.,+I.,+h.I.I.J.7+9+I.I.I.I.I.h.I.I.I.I.I.J.h.J.7+J.I.h.h.I.H+H+J+J+P J+P P P N+E+E+8+E+H+F+I.u+L+J+H+L+O+J+P P L+L+,+",
"O+O+H+I+I.I.,+8+8+I.8+I.I.J.I.I.I.I.8+8+J.8+J.J.E+I.I.h.h.I.I.I.h.I.H+L+P P O+P L+P P O+P+L+,+F+L+J+L+P Q+J+P L+P P J+P J+P P P ",
"O+P J+,+I.E+,+I.J.I.h.I.I.I.I.I.8+9+8+'+E+'+8+J.E+I.H+I.I.J.I.J.)+H+P J+O+O+O+P P P P O+P O+H+L+H+J+O+O+P P P J+P O+O+P P O+P O+",
"P O+L+E+,+J+J+J+M+P E+I.I.I.h.I.h.h.u+I.E+E+E+E+E+,+I.I.)+I.h.I.)+H+P O+O+Q+O+P P J+J+I+O+P+H+L+P P P O+P O+P P P P P P P P L+P ",
"R+Q+F+E+J+P+J+P+P+O+J+)+J.I.h.9+9+)+,+J+L+L+J+L+L+5+H+I+)+I.I.J.8+H+P O+P L+P P P P P P O+O+Q+R+P O+Q+Q+Q+O+P+O+O+P P P P F+R+H+",
"S+T+T+U+V+P P P P P P 8+'+8+P N+P N+P P P P P P J+O+O+u+'+8+I.E+J.u+L+O+P O+P P J+P O+P P P P P P P P P P P P P J+H+P P S+P J+L+",
"W+X+T+[ S+P P P P P J+u+u+)+P P P P J+P P P P J+J+P+O+u+8+H+H+E+J.K+L+O+O+P P J+P P P P P P P P P P P J+O+J+P L+P P P O+O+M P P ",
"[ [ X+[ [ P Q+P P P P J+L+P J+P N+P P P P P P P P J+J+L+L+J+J+,+E+R+P O+P P P P O+P P P P J+P P P O+P P J+P P P J+S+S+S+[ T+S+Q+",
"[ [ [ Y+[ P P P J+P P O+O+O+P P P P P P P P P J+P O+P P N+O+J+O+E+,+P Q+P P P P P P L+P P J+P J+P P J+P J+P P P P Q+E T+[ [ U+M ",
"[ [ [ [ T+P P P O+P P R+P Q+P P P P P P P P P P P J+P+P P P O+P P+Z+Q+Q+P P P J+P J+O+P L+P J+J+P P P P P P P P P `+[ [  @[ [ [ ",
"X+Y+.@[ T+P P J+P J+P R+P L+O+P P J+P O+P P J+P P P O+O+O+P P P I+Q+L+Q+P P P P P J+P P P O+P P J+P P P P P P P L+`+[ Y+ @ @[ X+",
"+@@@#@#@#@S+P Q+P P Z+S+S+O+P P J+P L+P O+J+J+P P P P P J+P P P P P P P P P L+S+P J+P P P P P P O+Q+P Q+P P O+M M #@X+[ $@[ #@T+",
"%@ @#@#@[ &@O+P Q+Q+&@T+&@S+P Q+Q+P Q+O+P P P P P P P J+J+J+P P P P P J+P P L+S+O+L+L+P P O+O+Q+O+Q+Q+O+O+S+[ [ X+[  @ @#@ @ @E ",
"*@%@#@#@[ T+O+S+T+=@&@[ X+E O+Q+Q+P S+P O+P P P P P P P P O+J+P P P P P P P S+S+Q+S+P O+J+P O+Q+O+S+S+O+M T+[ [ [ [ [ -@*@*@[ [ ",
". *@[ [ T+X+E E T+U+X+[ X+T+M E E E Y+E Q+P P O+J+P P P P P P P P J+P J+P Q+E E M S+O+P P P O+Q+P P E E E X+[  @ @[ ;@*@+@+@>@;@",
",@*@[ [ T+Y+X+>@[ [ [ [ E X+S+X+E E Y+E '@P P P P P J+P P P P P P O+P P P O+E T+T+M Q+P P P O+S+O+M Y+Y+[ Y+[ [ [ >@)@,@,@. !@;@",
". . >@Y+[ Y+Y+E Y+Y+[ [ [ X+[ T+[ T+[ [ ~@O+P P P P P O+P J+P P J+P P P Z+T+[ [ [ X+S+O+Q+P P Q+P O+Y+Y+[ [ [ [ [ .@{@)@)@*@. -@",
"]@. ]@.@[ [ [ T+>@[  @#@[ [ T+T+X+[ [ X+[ T+O+P P P P P+O+P P P P O+O+O+Y+[ [ [ [ [ [ Q+Q+L+L+Q+Q+=@Y+[ Y+[  @[ ]@]@)@. . )@. . ",
". ]@]@.@[ [ [ [ [ -@*@*@Y+T+[ [ [ [ [ [ [ X+S+Q+Q+R+R+P P P P L+T+=@=@T+[ [ [ [ [ [ [ T+Q+R+Q+O+S+T+[ [ .@[ $@>@. ]@]@. . . ]@. ",
". . )@.@[ [ [ [ ;@+@)@)@.@[ Y+[ Y+[ [ [ [ T+S+P Q+R+L+J+O+P S+M [ [ [ U+;@[ [ [ [ [ [ U+M R+P O+S+U+[ [ [ [ $@*@)@)@)@. !@)@. . ",
")@. . . [ Y+Y+%@)@. ,@!@-@>@[ [ [ [ [ [ [ [ E S+Q+R+R+J+O+S+^@X+[ [ [ [ [ [ [ [ [ [ [ [ T+'@=@S+[ [ [ [ Y+[ *@*@)@)@)@)@)@. . . ",
". )@. . ]@{@.@]@. )@,@,@)@. -@+@ @ @[ [ [ X+E X+S+Q+E X+X+`+E T+[ #@T+[ [ [ [ [ [ [ [ [ X+R+Q+T+X+[ .@[ [ +@*@)@,@. . . . )@. . ",
". . . . . {@. {@!@)@)@*@]@!@+@+@*@*@[ [ [ [ [ T+T+`+U+U+U+[ T+E #@#@T+T+#@[ [ [ [ [ [ ;@T+'@&@X+T+[ [ Y+. -@*@!@,@)@. . . )@)@)@",
". . ]@. . . )@. . . . )@)@]@. . ]@]@;@;@[  @$@[ #@[ [ [ [ [ [ [ [ [ [ [ [ [ [ [ [ [ [ [ [ #@[ [ [ [  @$@*@*@. . )@. . ]@. . . ]@",
". )@. . )@)@)@. )@)@)@. . . . . )@]@>@X+[ ;@[ [ #@[ [ [ [ [ [ [ [ [ X+[ [ [ [ [ [ [ X+[ [ [ [ [ [ [ [ +@. )@. ]@. )@. )@. . . )@",
". . . ]@]@. . !@. ]@]@)@. )@. )@)@]@+@+@. ;@ @[ #@#@[ [ [ [ [ [ [ [ [ [ [ [ [ [ [ [ [ [ [ [ [ [ [ [ *@*@*@)@)@. . )@)@. )@]@. . ",
")@)@)@. ]@]@. . ]@)@. )@]@. )@. . . . . . . >@[ [ [ [ [ [ [ [ [ [ [ [ [ [ [ [ X+[ [ [ [ [ [ [ [ [ [ ]@. )@)@)@)@. )@)@. . ]@. . ",
". )@. )@. . . )@. . )@)@. . . )@)@. *@. )@. ]@[ .@[ [ [ [ [ [ [ [ [ [ [ [ ~@[ [ [ [ ~@[ [ [ [ [ [ X+-@]@)@)@)@)@]@. . . )@. !@)@",
"!@)@. . )@)@)@)@. . )@. . . . . ]@]@)@)@. . >@[ [ [ [ [ [ [ [ [ [ [ [ [ [ [ [ [ [ [ [ [ [ [ [ [ [ ;@-@]@)@!@. . . )@)@. . ]@. . ",
". . . . . . . . . . )@. )@. ]@. )@. . . ]@+@;@ @#@[ [ [ [ [ [ [ [ [ [ [ X+[ [ [ [ [ [ [ [  @{@{@]@]@. ]@. . )@)@. !@)@)@)@. . . ",
". . )@. !@. )@. . )@. )@. . . . . )@. ]@. ,@-@ @[ [ [ [ [ [ X+[ [ [ [ [ [ [ [ [ [ [ [ [ [ +@)@!@)@)@. . ]@)@)@. )@]@. )@]@. )@]@",
". ]@)@)@. . . . ]@. )@. . . )@)@. )@. )@. )@. Y+Y+#@[ [ [ [ [ [ [ [ [ [ [ [ [ [ [ [ [ .@. *@)@. . . ]@)@)@)@)@. )@. . . . . )@)@",
")@!@]@)@. )@)@)@. ]@. . )@]@. . . . . . )@)@)@;@[ [ [ [ [ [ [ [ [ [ [ [ [ X+[ [ [ [ [ .@)@)@. )@)@. . . . . . !@)@. )@. . ]@)@. ",
"/@.@)@. ]@. ]@. ]@. . . . . )@)@. . . ]@. !@. ]@X+[ [ [ [ [ [ [ [ [ [ [ [ [ [ [ [ [ [ ]@. ,@)@)@. ]@]@. . )@)@)@. )@. )@)@. !@)@"};
